Baskervville-Italic.ufo
<glyph name="exclam" format="1">
  <advance width="275"/>
  <unicode hex="0021"/>
  <note>
    exclam
  </note>
  <outline>
    <contour>
      <point x="146" y="199" type="line"/>
      <point x="322" y="642" type="line" smooth="yes"/>
      <point x="327" y="654"/>
      <point x="329" y="665"/>
      <point x="329" y="675" type="curve" smooth="yes"/>
      <point x="329" y="705"/>
      <point x="307" y="720"/>
      <point x="286" y="720" type="curve" smooth="yes"/>
      <point x="256" y="720"/>
      <point x="231" y="705"/>
      <point x="221" y="660" type="curve" smooth="yes"/>
      <point x="118" y="208" type="line"/>
    </contour>
    <contour>
      <point x="91" y="-11" type="curve" smooth="yes"/>
      <point x="123" y="-11"/>
      <point x="149" y="16"/>
      <point x="149" y="49" type="curve" smooth="yes"/>
      <point x="149" y="80"/>
      <point x="123" y="107"/>
      <point x="91" y="107" type="curve" smooth="yes"/>
      <point x="56" y="107"/>
      <point x="31" y="80"/>
      <point x="31" y="49" type="curve" smooth="yes"/>
      <point x="31" y="16"/>
      <point x="56" y="-11"/>
    </contour>
  </outline>
</glyph>
<glyph name="numbersign" format="2">
	<advance width="707"/>
	<unicode hex="0023"/>
	<guideline x="160" y="315" angle="73.8967"/>
	<outline>
		<contour>
			<point x="600" y="710" type="line"/>
			<point x="395" y="0" type="line"/>
			<point x="432" y="0" type="line"/>
			<point x="637" y="710" type="line"/>
		</contour>
		<contour>
			<point x="65" y="268" type="line"/>
			<point x="56" y="237" type="line"/>
			<point x="239" y="237" type="line"/>
			<point x="248" y="268" type="line"/>
		</contour>
		<contour>
			<point x="268" y="268" type="line"/>
			<point x="261" y="237" type="line"/>
			<point x="472" y="237" type="line"/>
			<point x="481" y="268" type="line"/>
		</contour>
		<contour>
			<point x="368" y="710" type="line"/>
			<point x="162" y="0" type="line"/>
			<point x="199" y="0" type="line"/>
			<point x="404" y="710" type="line"/>
		</contour>
		<contour>
			<point x="124" y="479" type="line"/>
			<point x="115" y="447" type="line"/>
			<point x="299" y="447" type="line"/>
			<point x="308" y="479" type="line"/>
		</contour>
		<contour>
			<point x="501" y="268" type="line"/>
			<point x="493" y="237" type="line"/>
			<point x="693" y="237" type="line"/>
			<point x="702" y="268" type="line"/>
		</contour>
		<contour>
			<point x="329" y="479" type="line"/>
			<point x="321" y="447" type="line"/>
			<point x="532" y="447" type="line"/>
			<point x="541" y="479" type="line"/>
		</contour>
		<contour>
			<point x="561" y="479" type="line"/>
			<point x="554" y="447" type="line"/>
			<point x="753" y="447" type="line"/>
			<point x="762" y="479" type="line"/>
		</contour>
	</outline>
</glyph>
<glyph name="dollar" format="2">
	<advance width="589"/>
	<unicode hex="0024"/>
	<outline>
		<contour>
			<point x="478" y="830" type="line"/>
			<point x="171" y="-115" type="line"/>
			<point x="196" y="-115" type="line"/>
			<point x="503" y="830" type="line"/>
		</contour>
		<component base="S"/>
	</outline>
</glyph>
<glyph name="percent" format="2">
	<advance width="819"/>
	<unicode hex="0025"/>
	<anchor x="493" y="356" name="_center"/>
	<outline>
		<contour>
			<point x="743" y="575" type="line"/>
			<point x="61" y="0" type="line"/>
			<point x="116" y="0" type="line"/>
			<point x="798" y="575" type="line"/>
		</contour>
		<contour>
			<point x="224" y="309" type="curve"/>
			<point x="326" y="309"/>
			<point x="424" y="401"/>
			<point x="424" y="496" type="curve"/>
			<point x="424" y="549"/>
			<point x="387" y="586"/>
			<point x="317" y="586" type="curve"/>
			<point x="215" y="586"/>
			<point x="118" y="493"/>
			<point x="118" y="402" type="curve"/>
			<point x="118" y="345"/>
			<point x="155" y="309"/>
		</contour>
		<contour>
			<point x="229" y="336" type="curve"/>
			<point x="192" y="336"/>
			<point x="175" y="357"/>
			<point x="175" y="393" type="curve"/>
			<point x="175" y="456"/>
			<point x="232" y="559"/>
			<point x="309" y="559" type="curve"/>
			<point x="348" y="559"/>
			<point x="366" y="540"/>
			<point x="366" y="502" type="curve"/>
			<point x="366" y="439"/>
			<point x="308" y="336"/>
		</contour>
		<contour>
			<point x="550" y="-14" type="curve"/>
			<point x="652" y="-14"/>
			<point x="750" y="78"/>
			<point x="750" y="173" type="curve"/>
			<point x="750" y="226"/>
			<point x="713" y="263"/>
			<point x="643" y="263" type="curve"/>
			<point x="541" y="263"/>
			<point x="444" y="170"/>
			<point x="444" y="79" type="curve"/>
			<point x="444" y="22"/>
			<point x="481" y="-14"/>
		</contour>
		<contour>
			<point x="555" y="13" type="curve"/>
			<point x="518" y="13"/>
			<point x="501" y="34"/>
			<point x="501" y="70" type="curve"/>
			<point x="501" y="133"/>
			<point x="558" y="236"/>
			<point x="635" y="236" type="curve"/>
			<point x="674" y="236"/>
			<point x="692" y="217"/>
			<point x="692" y="179" type="curve"/>
			<point x="692" y="116"/>
			<point x="634" y="13"/>
		</contour>
	</outline>
</glyph>
<glyph name="ampersand" format="1">
  <advance width="793"/>
  <unicode hex="0026"/>
  <outline>
    <contour>
      <point x="642" y="-14" type="curve" smooth="yes"/>
      <point x="715" y="-14"/>
      <point x="771" y="16"/>
      <point x="833" y="103" type="curve"/>
      <point x="815" y="117" type="line"/>
      <point x="777" y="67"/>
      <point x="751" y="44"/>
      <point x="710" y="44" type="curve" smooth="yes"/>
      <point x="592" y="44"/>
      <point x="510" y="170"/>
      <point x="439" y="300" type="curve" smooth="yes"/>
      <point x="391" y="385"/>
      <point x="348" y="473"/>
      <point x="348" y="530" type="curve" smooth="yes"/>
      <point x="348" y="620"/>
      <point x="399" y="692"/>
      <point x="479" y="692" type="curve" smooth="yes"/>
      <point x="516" y="692"/>
      <point x="543" y="669"/>
      <point x="543" y="639" type="curve" smooth="yes"/>
      <point x="543" y="567"/>
      <point x="454" y="500"/>
      <point x="357" y="454" type="curve"/>
      <point x="368" y="430" type="line"/>
      <point x="442" y="467"/>
      <point x="574" y="545"/>
      <point x="574" y="639" type="curve" smooth="yes"/>
      <point x="574" y="681"/>
      <point x="533" y="724"/>
      <point x="462" y="724" type="curve" smooth="yes"/>
      <point x="350" y="724"/>
      <point x="257" y="642"/>
      <point x="257" y="524" type="curve" smooth="yes"/>
      <point x="257" y="440"/>
      <point x="303" y="347"/>
      <point x="367" y="250" type="curve" smooth="yes"/>
      <point x="478" y="65"/>
      <point x="542" y="-14"/>
    </contour>
    <contour>
      <point x="227" y="-14" type="curve" smooth="yes"/>
      <point x="346" y="-14"/>
      <point x="418" y="47"/>
      <point x="540" y="250" type="curve" smooth="yes"/>
      <point x="588" y="330"/>
      <point x="633" y="384"/>
      <point x="677" y="384" type="curve" smooth="yes"/>
      <point x="703" y="384"/>
      <point x="699" y="364"/>
      <point x="699" y="328" type="curve" smooth="yes"/>
      <point x="699" y="298"/>
      <point x="715" y="278"/>
      <point x="740" y="278" type="curve" smooth="yes"/>
      <point x="777" y="278"/>
      <point x="795" y="310"/>
      <point x="795" y="340" type="curve" smooth="yes"/>
      <point x="795" y="366"/>
      <point x="781" y="415"/>
      <point x="703" y="415" type="curve" smooth="yes"/>
      <point x="623" y="415"/>
      <point x="572" y="356"/>
      <point x="520" y="270" type="curve" smooth="yes"/>
      <point x="412" y="91"/>
      <point x="350" y="18"/>
      <point x="252" y="18" type="curve" smooth="yes"/>
      <point x="169" y="18"/>
      <point x="123" y="82"/>
      <point x="123" y="170" type="curve" smooth="yes"/>
      <point x="123" y="278"/>
      <point x="183" y="352"/>
      <point x="303" y="410" type="curve"/>
      <point x="295" y="433" type="line"/>
      <point x="174" y="387"/>
      <point x="33" y="312"/>
      <point x="33" y="162" type="curve" smooth="yes"/>
      <point x="33" y="33"/>
      <point x="136" y="-14"/>
    </contour>
  </outline>
</glyph>
<glyph name="plus" format="2">
	<advance width="556"/>
	<unicode hex="002B"/>
	<outline>
		<contour>
			<point x="373" y="529" type="line"/>
			<point x="219" y="106" type="line"/>
			<point x="255" y="106" type="line"/>
			<point x="409" y="529" type="line"/>
		</contour>
		<component base="minus" xOffset="-1"/>
	</outline>
</glyph>
<glyph name="comma" format="2">
	<advance width="292"/>
	<unicode hex="002C"/>
	<outline>
		<contour>
			<point x="-68" y="-151" type="curve"/>
			<point x="-63" y="-179" type="line"/>
			<point x="-30" y="-173"/>
			<point x="15" y="-162"/>
			<point x="54" y="-138" type="curve"/>
			<point x="112" y="-103"/>
			<point x="150" y="-45"/>
			<point x="145" y="20" type="curve"/>
			<point x="142" y="70"/>
			<point x="104" y="107"/>
			<point x="63" y="107" type="curve"/>
			<point x="26" y="107"/>
			<point x="1" y="79"/>
			<point x="1" y="46" type="curve"/>
			<point x="1" y="12"/>
			<point x="25" y="-18"/>
			<point x="59" y="-18" type="curve"/>
			<point x="91" y="-18"/>
			<point x="107" y="5"/>
			<point x="105" y="32" type="curve"/>
			<point x="105" y="36"/>
			<point x="104" y="40"/>
			<point x="103" y="42" type="curve"/>
			<point x="106" y="46" type="line"/>
			<point x="114" y="38"/>
			<point x="116" y="25"/>
			<point x="116" y="13" type="curve"/>
			<point x="116" y="-2"/>
			<point x="113" y="-19"/>
			<point x="109" y="-31" type="curve"/>
			<point x="82" y="-107"/>
			<point x="3" y="-136"/>
		</contour>
	</outline>
</glyph>
<glyph name="hyphen" format="2">
	<advance width="388"/>
	<unicode hex="002D"/>
	<outline>
		<contour>
			<point x="65" y="232" type="line"/>
			<point x="53" y="196" type="line"/>
			<point x="320" y="196" type="line"/>
			<point x="332" y="232" type="line"/>
		</contour>
	</outline>
</glyph>
<glyph name="period" format="2">
	<advance width="245"/>
	<unicode hex="002E"/>
	<outline>
		<contour>
			<point x="61" y="-11" type="curve"/>
			<point x="93" y="-11"/>
			<point x="119" y="16"/>
			<point x="119" y="49" type="curve"/>
			<point x="119" y="80"/>
			<point x="93" y="107"/>
			<point x="61" y="107" type="curve"/>
			<point x="26" y="107"/>
			<point x="1" y="80"/>
			<point x="1" y="49" type="curve"/>
			<point x="1" y="16"/>
			<point x="26" y="-11"/>
		</contour>
	</outline>
</glyph>
<glyph name="slash" format="1">
  <advance width="257"/>
  <unicode hex="002F"/>
  <outline>
    <contour>
      <point x="-129" y="-135" type="line"/>
      <point x="-94" y="-135" type="line"/>
      <point x="480" y="834" type="line"/>
      <point x="445" y="834" type="line"/>
    </contour>
  </outline>
</glyph>
<glyph name="three" format="1">
  <advance width="426"/>
  <unicode hex="0033"/>
  <outline>
    <contour>
      <point x="-19" y="-294" type="curve" smooth="yes"/>
      <point x="139" y="-294"/>
      <point x="297" y="-146"/>
      <point x="297" y="8" type="curve" smooth="yes"/>
      <point x="297" y="71"/>
      <point x="258" y="120"/>
      <point x="187" y="120" type="curve" smooth="yes"/>
      <point x="162" y="120"/>
      <point x="153" y="117"/>
      <point x="148" y="116" type="curve"/>
      <point x="128" y="105" type="line"/>
      <point x="232" y="153" type="line" smooth="yes"/>
      <point x="339" y="203"/>
      <point x="412" y="277"/>
      <point x="412" y="356" type="curve" smooth="yes"/>
      <point x="412" y="418"/>
      <point x="368" y="469"/>
      <point x="271" y="469" type="curve" smooth="yes"/>
      <point x="159" y="469"/>
      <point x="76" y="387"/>
      <point x="76" y="293" type="curve" smooth="yes"/>
      <point x="76" y="261"/>
      <point x="94" y="229"/>
      <point x="125" y="213" type="curve"/>
      <point x="142" y="236" type="line"/>
      <point x="124" y="244"/>
      <point x="106" y="264"/>
      <point x="106" y="297" type="curve" smooth="yes"/>
      <point x="106" y="363"/>
      <point x="164" y="438"/>
      <point x="245" y="438" type="curve" smooth="yes"/>
      <point x="303" y="438"/>
      <point x="331" y="403"/>
      <point x="331" y="356" type="curve" smooth="yes"/>
      <point x="331" y="248"/>
      <point x="221" y="176"/>
      <point x="129" y="124" type="curve" smooth="yes"/>
      <point x="107" y="111"/>
      <point x="98" y="107"/>
      <point x="77" y="99" type="curve"/>
      <point x="77" y="73" type="line"/>
      <point x="97" y="82"/>
      <point x="124" y="92"/>
      <point x="149" y="92" type="curve" smooth="yes"/>
      <point x="190" y="92"/>
      <point x="220" y="71"/>
      <point x="220" y="8" type="curve" smooth="yes"/>
      <point x="220" y="-92"/>
      <point x="114" y="-267"/>
      <point x="-19" y="-267" type="curve" smooth="yes"/>
      <point x="-65" y="-267"/>
      <point x="-91" y="-243"/>
      <point x="-91" y="-226" type="curve" smooth="yes"/>
      <point x="-91" y="-199"/>
      <point x="-60" y="-195"/>
      <point x="-60" y="-162" type="curve" smooth="yes"/>
      <point x="-60" y="-127"/>
      <point x="-88" y="-117"/>
      <point x="-102" y="-117" type="curve" smooth="yes"/>
      <point x="-140" y="-117"/>
      <point x="-159" y="-146"/>
      <point x="-159" y="-180" type="curve" smooth="yes"/>
      <point x="-159" y="-262"/>
      <point x="-86" y="-294"/>
    </contour>
  </outline>
</glyph>
<glyph name="five" format="1">
  <advance width="453"/>
  <unicode hex="0035"/>
  <outline>
    <contour>
      <point x="105" y="-14" type="curve" smooth="yes"/>
      <point x="270" y="-14"/>
      <point x="416" y="173"/>
      <point x="416" y="321" type="curve" smooth="yes"/>
      <point x="416" y="412"/>
      <point x="367" y="454"/>
      <point x="297" y="454" type="curve" smooth="yes"/>
      <point x="248" y="454"/>
      <point x="197" y="430"/>
      <point x="162" y="395" type="curve"/>
      <point x="176" y="392" type="line"/>
      <point x="291" y="652" type="line"/>
      <point x="255" y="615" type="line"/>
      <point x="311" y="615" type="line" smooth="yes"/>
      <point x="415" y="615"/>
      <point x="494" y="624"/>
      <point x="520" y="696" type="curve" smooth="yes"/>
      <point x="524" y="706" type="line"/>
      <point x="514" y="706" type="line"/>
      <point x="482" y="691"/>
      <point x="430" y="688"/>
      <point x="375" y="688" type="curve" smooth="yes"/>
      <point x="365" y="688"/>
      <point x="354" y="688"/>
      <point x="344" y="688" type="curve" smooth="yes"/>
      <point x="305" y="689" type="line"/>
      <point x="317" y="716" type="line"/>
      <point x="291" y="716" type="line"/>
      <point x="133" y="354" type="line"/>
      <point x="152" y="354" type="line"/>
      <point x="181" y="389"/>
      <point x="224" y="421"/>
      <point x="269" y="421" type="curve" smooth="yes"/>
      <point x="305" y="421"/>
      <point x="335" y="398"/>
      <point x="335" y="336" type="curve" smooth="yes"/>
      <point x="335" y="204"/>
      <point x="232" y="12"/>
      <point x="108" y="12" type="curve" smooth="yes"/>
      <point x="69" y="12"/>
      <point x="48" y="32"/>
      <point x="48" y="54" type="curve" smooth="yes"/>
      <point x="48" y="85"/>
      <point x="79" y="83"/>
      <point x="79" y="120" type="curve" smooth="yes"/>
      <point x="79" y="135"/>
      <point x="66" y="158"/>
      <point x="34" y="158" type="curve" smooth="yes"/>
      <point x="5" y="158"/>
      <point x="-21" y="136"/>
      <point x="-21" y="97" type="curve" smooth="yes"/>
      <point x="-21" y="28"/>
      <point x="34" y="-14"/>
    </contour>
  </outline>
</glyph>
<glyph name="eight" format="2">
	<advance width="491"/>
	<unicode hex="0038"/>
	<outline>
		<contour>
			<point x="184" y="-14" type="curve"/>
			<point x="317" y="-14"/>
			<point x="444" y="82"/>
			<point x="444" y="198" type="curve"/>
			<point x="444" y="279"/>
			<point x="374" y="354"/>
			<point x="331" y="409" type="curve"/>
			<point x="290" y="467"/>
			<point x="264" y="505"/>
			<point x="264" y="554" type="curve"/>
			<point x="264" y="627"/>
			<point x="317" y="691"/>
			<point x="412" y="691" type="curve"/>
			<point x="471" y="691"/>
			<point x="512" y="659"/>
			<point x="512" y="607" type="curve"/>
			<point x="512" y="515"/>
			<point x="408" y="445"/>
			<point x="300" y="404" type="curve"/>
			<point x="321" y="381" type="line"/>
			<point x="438" y="430"/>
			<point x="544" y="509"/>
			<point x="544" y="614" type="curve"/>
			<point x="544" y="678"/>
			<point x="489" y="723"/>
			<point x="411" y="723" type="curve"/>
			<point x="282" y="723"/>
			<point x="184" y="647"/>
			<point x="184" y="547" type="curve"/>
			<point x="184" y="482"/>
			<point x="232" y="416"/>
			<point x="268" y="365" type="curve"/>
			<point x="320" y="299"/>
			<point x="363" y="257"/>
			<point x="363" y="190" type="curve"/>
			<point x="363" y="94"/>
			<point x="304" y="17"/>
			<point x="187" y="17" type="curve"/>
			<point x="105" y="17"/>
			<point x="59" y="61"/>
			<point x="59" y="134" type="curve"/>
			<point x="59" y="232"/>
			<point x="152" y="301"/>
			<point x="294" y="368" type="curve"/>
			<point x="275" y="389" type="line"/>
			<point x="125" y="316"/>
			<point x="27" y="240"/>
			<point x="27" y="126" type="curve"/>
			<point x="27" y="48"/>
			<point x="88" y="-14"/>
		</contour>
	</outline>
</glyph>
<glyph name="equal" format="1">
  <advance width="566"/>
  <unicode hex="003D"/>
  <outline>
    <contour>
      <point x="63" y="226" type="line"/>
      <point x="507" y="226" type="line"/>
      <point x="522" y="261" type="line"/>
      <point x="78" y="261" type="line"/>
    </contour>
    <contour>
      <point x="111" y="357" type="line"/>
      <point x="555" y="357" type="line"/>
      <point x="569" y="392" type="line"/>
      <point x="125" y="392" type="line"/>
    </contour>
  </outline>
</glyph>
<glyph name="greater" format="2">
	<advance width="502"/>
	<unicode hex="003E"/>
	<outline>
		<contour>
			<point x="77" y="193" type="line"/>
			<point x="71" y="152" type="line"/>
			<point x="464" y="308" type="line"/>
			<point x="472" y="329" type="line"/>
			<point x="169" y="492" type="line"/>
			<point x="161" y="455" type="line"/>
			<point x="429" y="311" type="line"/>
			<point x="430" y="333" type="line"/>
		</contour>
	</outline>
</glyph>
<glyph name="question" format="1">
  <advance width="460"/>
  <unicode hex="003F"/>
  <outline>
    <contour>
      <point x="276" y="350" type="curve" smooth="yes"/>
      <point x="402" y="350"/>
      <point x="524" y="474"/>
      <point x="524" y="597" type="curve" smooth="yes"/>
      <point x="524" y="675"/>
      <point x="459" y="720"/>
      <point x="377" y="720" type="curve" smooth="yes"/>
      <point x="296" y="720"/>
      <point x="210" y="681"/>
      <point x="210" y="620" type="curve" smooth="yes"/>
      <point x="210" y="595"/>
      <point x="228" y="581"/>
      <point x="253" y="581" type="curve" smooth="yes"/>
      <point x="281" y="581"/>
      <point x="305" y="597"/>
      <point x="303" y="638" type="curve" smooth="yes"/>
      <point x="302" y="674"/>
      <point x="325" y="694"/>
      <point x="377" y="694" type="curve" smooth="yes"/>
      <point x="423" y="694"/>
      <point x="452" y="670"/>
      <point x="452" y="620" type="curve" smooth="yes"/>
      <point x="452" y="526"/>
      <point x="372" y="377"/>
      <point x="275" y="377" type="curve" smooth="yes"/>
      <point x="228" y="377"/>
      <point x="203" y="404"/>
      <point x="202" y="448" type="curve" smooth="yes"/>
      <point x="202" y="453"/>
      <point x="202" y="459"/>
      <point x="202" y="464" type="curve"/>
      <point x="180" y="463" type="line"/>
      <point x="178" y="453"/>
      <point x="176" y="443"/>
      <point x="176" y="433" type="curve" smooth="yes"/>
      <point x="178" y="387"/>
      <point x="216" y="350"/>
    </contour>
    <contour>
      <point x="143" y="172" type="curve" smooth="yes"/>
      <point x="164" y="172"/>
      <point x="182" y="188"/>
      <point x="184" y="217" type="curve" smooth="yes"/>
      <point x="202" y="464" type="line"/>
      <point x="180" y="463" type="line"/>
      <point x="114" y="226" type="line" smooth="yes"/>
      <point x="112" y="219"/>
      <point x="111" y="213"/>
      <point x="111" y="207" type="curve" smooth="yes"/>
      <point x="111" y="187"/>
      <point x="121" y="172"/>
    </contour>
    <component base="period" xOffset="70"/>
  </outline>
</glyph>
<glyph name="at" format="2">
	<advance width="843"/>
	<unicode hex="0040"/>
	<outline>
		<contour>
			<point x="416" y="-139" type="curve"/>
			<point x="490" y="-139"/>
			<point x="567" y="-122"/>
			<point x="617" y="-97" type="curve"/>
			<point x="606" y="-72" type="line"/>
			<point x="557" y="-92"/>
			<point x="488" y="-107"/>
			<point x="424" y="-107" type="curve"/>
			<point x="226" y="-107"/>
			<point x="116" y="28"/>
			<point x="116" y="203" type="curve"/>
			<point x="116" y="442"/>
			<point x="298" y="584"/>
			<point x="486" y="584" type="curve"/>
			<point x="658" y="584"/>
			<point x="768" y="483"/>
			<point x="768" y="323" type="curve"/>
			<point x="768" y="184"/>
			<point x="670" y="88"/>
			<point x="588" y="88" type="curve"/>
			<point x="563" y="88"/>
			<point x="549" y="104"/>
			<point x="549" y="131" type="curve"/>
			<point x="549" y="143"/>
			<point x="551" y="157"/>
			<point x="557" y="172" type="curve"/>
			<point x="653" y="427" type="line"/>
			<point x="588" y="427" type="line"/>
			<point x="563" y="364" type="line"/>
			<point x="559" y="414"/>
			<point x="531" y="438"/>
			<point x="489" y="438" type="curve"/>
			<point x="385" y="438"/>
			<point x="239" y="323"/>
			<point x="239" y="187" type="curve"/>
			<point x="239" y="126"/>
			<point x="273" y="59"/>
			<point x="352" y="59" type="curve"/>
			<point x="403" y="59"/>
			<point x="444" y="92"/>
			<point x="476" y="137" type="curve"/>
			<point x="475" y="131"/>
			<point x="474" y="125"/>
			<point x="474" y="120" type="curve"/>
			<point x="474" y="84"/>
			<point x="499" y="59"/>
			<point x="562" y="59" type="curve"/>
			<point x="717" y="59"/>
			<point x="798" y="184"/>
			<point x="798" y="323" type="curve"/>
			<point x="798" y="505"/>
			<point x="668" y="614"/>
			<point x="487" y="614" type="curve"/>
			<point x="260" y="614"/>
			<point x="60" y="455"/>
			<point x="60" y="205" type="curve"/>
			<point x="60" y="-10"/>
			<point x="210" y="-139"/>
		</contour>
		<contour>
			<point x="363" y="84" type="curve"/>
			<point x="322" y="84"/>
			<point x="311" y="119"/>
			<point x="311" y="157" type="curve"/>
			<point x="311" y="286"/>
			<point x="401" y="413"/>
			<point x="489" y="413" type="curve"/>
			<point x="524" y="413"/>
			<point x="540" y="385"/>
			<point x="540" y="347" type="curve"/>
			<point x="540" y="319"/>
			<point x="532" y="287"/>
			<point x="518" y="254" type="curve"/>
			<point x="487" y="181"/>
			<point x="423" y="84"/>
		</contour>
	</outline>
</glyph>
<glyph name="A" format="2">
	<advance width="662"/>
	<unicode hex="0041"/>
	<guideline x="530" y="363" angle="90"/>
	<anchor x="500" y="0" name="ogonek"/>
	<anchor x="241" y="0" name="bottom"/>
	<anchor x="514" y="710" name="top"/>
	<outline>
		<contour>
			<point x="-62" y="22" type="line"/>
			<point x="-70" y="-3" type="line"/>
			<point x="53" y="0" type="line"/>
			<point x="171" y="-3" type="line"/>
			<point x="179" y="22" type="line"/>
			<point x="160" y="24" type="line" smooth="yes"/>
			<point x="117" y="28"/>
			<point x="95" y="39"/>
			<point x="95" y="60" type="curve"/>
			<point x="95" y="73"/>
			<point x="102" y="89"/>
			<point x="117" y="111" type="curve"/>
			<point x="496" y="659" type="line"/>
			<point x="448" y="621" type="line"/>
			<point x="448" y="116" type="line" smooth="yes"/>
			<point x="448" y="44"/>
			<point x="414" y="30"/>
			<point x="355" y="24" type="curve"/>
			<point x="334" y="22" type="line"/>
			<point x="326" y="-3" type="line"/>
			<point x="471" y="0" type="line"/>
			<point x="616" y="-3" type="line"/>
			<point x="624" y="22" type="line"/>
			<point x="605" y="24" type="line" smooth="yes"/>
			<point x="533" y="32"/>
			<point x="530" y="59"/>
			<point x="530" y="114" type="curve"/>
			<point x="530" y="710" type="line"/>
			<point x="508" y="724" type="line"/>
			<point x="84" y="112" type="line" smooth="yes"/>
			<point x="56" y="71"/>
			<point x="28" y="31"/>
			<point x="-41" y="24" type="curve"/>
		</contour>
		<contour>
			<point x="219" y="284" type="line"/>
			<point x="200" y="258" type="line"/>
			<point x="467" y="258" type="line"/>
			<point x="479" y="284" type="line"/>
		</contour>
	</outline>
</glyph>
<glyph name="B" format="1">
  <advance width="665"/>
  <unicode hex="0042"/>
  <outline>
    <contour>
      <point x="-23" y="-3" type="line"/>
      <point x="126" y="0" type="line"/>
      <point x="277" y="0" type="line" smooth="yes"/>
      <point x="402" y="0"/>
      <point x="501" y="31"/>
      <point x="560" y="90" type="curve" smooth="yes"/>
      <point x="596" y="126"/>
      <point x="618" y="170"/>
      <point x="618" y="223" type="curve" smooth="yes"/>
      <point x="618" y="319"/>
      <point x="545" y="372"/>
      <point x="426" y="385" type="curve"/>
      <point x="432" y="376" type="line"/>
      <point x="500" y="384"/>
      <point x="568" y="408"/>
      <point x="612" y="451" type="curve" smooth="yes"/>
      <point x="641" y="480"/>
      <point x="662" y="518"/>
      <point x="661" y="566" type="curve" smooth="yes"/>
      <point x="657" y="676"/>
      <point x="557" y="713"/>
      <point x="418" y="711" type="curve" smooth="yes"/>
      <point x="356" y="710" type="line"/>
      <point x="211" y="713" type="line"/>
      <point x="203" y="688" type="line"/>
      <point x="222" y="686" type="line" smooth="yes"/>
      <point x="276" y="681"/>
      <point x="296" y="673"/>
      <point x="296" y="649" type="curve" smooth="yes"/>
      <point x="296" y="640"/>
      <point x="293" y="630"/>
      <point x="289" y="616" type="curve" smooth="yes"/>
      <point x="126" y="124" type="line" smooth="yes"/>
      <point x="104" y="59"/>
      <point x="79" y="30"/>
      <point x="6" y="24" type="curve" smooth="yes"/>
      <point x="-15" y="22" type="line"/>
    </contour>
    <contour>
      <point x="269" y="26" type="curve" smooth="yes"/>
      <point x="219" y="26"/>
      <point x="192" y="37"/>
      <point x="192" y="72" type="curve" smooth="yes"/>
      <point x="192" y="81"/>
      <point x="195" y="97"/>
      <point x="198" y="106" type="curve" smooth="yes"/>
      <point x="389" y="685" type="line"/>
      <point x="398" y="685" type="line" smooth="yes"/>
      <point x="508" y="687"/>
      <point x="574" y="653"/>
      <point x="576" y="572" type="curve" smooth="yes"/>
      <point x="580" y="465"/>
      <point x="502" y="397"/>
      <point x="386" y="397" type="curve" smooth="yes"/>
      <point x="287" y="397" type="line"/>
      <point x="279" y="372" type="line"/>
      <point x="375" y="372" type="line" smooth="yes"/>
      <point x="475" y="372"/>
      <point x="534" y="337"/>
      <point x="534" y="235" type="curve" smooth="yes"/>
      <point x="534" y="112"/>
      <point x="421" y="26"/>
    </contour>
    <contour>
      <point x="253" y="0" type="move" name="bottom"/>
    </contour>
    <contour>
      <point x="487" y="710" type="move" name="top"/>
    </contour>
  </outline>
</glyph>
<glyph name="C" format="2">
	<advance width="700"/>
	<unicode hex="0043"/>
	<guideline x="688" y="240" angle="70"/>
	<anchor x="524" y="710" name="top"/>
	<anchor x="350" y="0" name="bottom"/>
	<outline>
		<contour>
			<point x="325" y="-11" type="curve"/>
			<point x="442" y="-11"/>
			<point x="508" y="44"/>
			<point x="528" y="44" type="curve"/>
			<point x="539" y="44"/>
			<point x="542" y="35"/>
			<point x="542" y="23" type="curve"/>
			<point x="542" y="16"/>
			<point x="541" y="8"/>
			<point x="540" y="0" type="curve"/>
			<point x="566" y="0" type="line"/>
			<point x="594" y="106" type="line"/>
			<point x="644" y="247" type="line"/>
			<point x="618" y="247" type="line"/>
			<point x="569" y="127"/>
			<point x="444" y="20"/>
			<point x="340" y="20" type="curve"/>
			<point x="233" y="20"/>
			<point x="174" y="110"/>
			<point x="174" y="249" type="curve"/>
			<point x="174" y="474"/>
			<point x="350" y="694"/>
			<point x="526" y="694" type="curve"/>
			<point x="613" y="694"/>
			<point x="673" y="640"/>
			<point x="673" y="535" type="curve"/>
			<point x="673" y="519"/>
			<point x="672" y="503"/>
			<point x="669" y="485" type="curve"/>
			<point x="695" y="485" type="line"/>
			<point x="730" y="594" type="line"/>
			<point x="768" y="697" type="line"/>
			<point x="742" y="697" type="line"/>
			<point x="732" y="683"/>
			<point x="716" y="663"/>
			<point x="705" y="663" type="curve"/>
			<point x="679" y="663"/>
			<point x="635" y="724"/>
			<point x="518" y="724" type="curve"/>
			<point x="274" y="724"/>
			<point x="85" y="468"/>
			<point x="85" y="228" type="curve"/>
			<point x="85" y="59"/>
			<point x="203" y="-11"/>
		</contour>
	</outline>
</glyph>
<glyph name="D" format="2">
	<advance width="789"/>
	<unicode hex="0044"/>
	<guideline x="2938" y="356" angle="270"/>
	<anchor x="232" y="355" name="center"/>
	<anchor x="302" y="0" name="bottom"/>
	<anchor x="460" y="710" name="top"/>
	<outline>
		<contour>
			<point x="-40" y="22" type="line"/>
			<point x="-49" y="-3" type="line"/>
			<point x="100" y="0" type="line"/>
			<point x="285" y="0" type="line" smooth="yes"/>
			<point x="454" y="0"/>
			<point x="610" y="72"/>
			<point x="704" y="190" type="curve"/>
			<point x="762" y="262"/>
			<point x="796" y="353"/>
			<point x="796" y="450" type="curve"/>
			<point x="796" y="623"/>
			<point x="654" y="721"/>
			<point x="441" y="713" type="curve"/>
			<point x="359" y="710" type="line"/>
			<point x="358" y="710" type="line"/>
			<point x="211" y="713" type="line"/>
			<point x="202" y="688" type="line"/>
			<point x="221" y="686" type="line" smooth="yes"/>
			<point x="274" y="681"/>
			<point x="293" y="673"/>
			<point x="293" y="651" type="curve"/>
			<point x="293" y="643"/>
			<point x="290" y="631"/>
			<point x="285" y="617" type="curve"/>
			<point x="93" y="88" type="line" smooth="yes"/>
			<point x="76" y="41"/>
			<point x="58" y="31"/>
			<point x="-19" y="24" type="curve"/>
		</contour>
		<contour>
			<point x="286" y="26" type="curve"/>
			<point x="252" y="26" type="line"/>
			<point x="223" y="26"/>
			<point x="177" y="25"/>
			<point x="177" y="77" type="curve"/>
			<point x="177" y="91"/>
			<point x="181" y="110"/>
			<point x="189" y="133" type="curve"/>
			<point x="389" y="683" type="line"/>
			<point x="424" y="684" type="line" smooth="yes"/>
			<point x="636" y="689"/>
			<point x="706" y="588"/>
			<point x="706" y="453" type="curve"/>
			<point x="706" y="237"/>
			<point x="531" y="26"/>
		</contour>
	</outline>
</glyph>
<glyph name="E" format="2">
	<advance width="695"/>
	<unicode hex="0045"/>
	<anchor x="533" y="0" name="ogonek"/>
	<anchor x="503" y="710" name="top"/>
	<anchor x="185" y="710" name="topleft"/>
	<anchor x="269" y="0" name="bottom"/>
	<outline>
		<contour>
			<point x="-15" y="22" type="line"/>
			<point x="-23" y="-3" type="line"/>
			<point x="126" y="0" type="line"/>
			<point x="602" y="0" type="line"/>
			<point x="624" y="74" type="line"/>
			<point x="669" y="210" type="line"/>
			<point x="643" y="210" type="line"/>
			<point x="595" y="90"/>
			<point x="548" y="26"/>
			<point x="433" y="25" type="curve"/>
			<point x="295" y="24" type="line" smooth="yes"/>
			<point x="235" y="23"/>
			<point x="204" y="42"/>
			<point x="204" y="89" type="curve"/>
			<point x="204" y="108"/>
			<point x="210" y="135"/>
			<point x="220" y="165" type="curve"/>
			<point x="391" y="685" type="line"/>
			<point x="542" y="685" type="line" smooth="yes"/>
			<point x="638" y="685"/>
			<point x="669" y="616"/>
			<point x="672" y="527" type="curve"/>
			<point x="698" y="527" type="line"/>
			<point x="695" y="650" type="line"/>
			<point x="695" y="710" type="line"/>
			<point x="358" y="710" type="line"/>
			<point x="211" y="713" type="line"/>
			<point x="203" y="688" type="line"/>
			<point x="222" y="686" type="line" smooth="yes"/>
			<point x="276" y="681"/>
			<point x="295" y="673"/>
			<point x="295" y="650" type="curve"/>
			<point x="295" y="642"/>
			<point x="292" y="631"/>
			<point x="288" y="617" type="curve"/>
			<point x="113" y="81" type="line" smooth="yes"/>
			<point x="100" y="40"/>
			<point x="78" y="30"/>
			<point x="6" y="24" type="curve"/>
		</contour>
		<contour>
			<point x="453" y="226" type="curve"/>
			<point x="479" y="226" type="line"/>
			<point x="522" y="371" type="line"/>
			<point x="569" y="508" type="line"/>
			<point x="543" y="508" type="line"/>
			<point x="503" y="399"/>
			<point x="477" y="388"/>
			<point x="434" y="388" type="curve"/>
			<point x="261" y="388" type="line"/>
			<point x="253" y="362" type="line"/>
			<point x="426" y="362" type="line" smooth="yes"/>
			<point x="453" y="362"/>
			<point x="470" y="348"/>
			<point x="470" y="312" type="curve"/>
			<point x="470" y="291"/>
			<point x="465" y="263"/>
		</contour>
	</outline>
</glyph>
<glyph name="F" format="1">
  <advance width="599"/>
  <unicode hex="0046"/>
  <outline>
    <contour>
      <point x="-20" y="-3" type="line"/>
      <point x="125" y="0" type="line"/>
      <point x="294" y="-3" type="line"/>
      <point x="303" y="22" type="line"/>
      <point x="284" y="24" type="line" smooth="yes"/>
      <point x="212" y="32"/>
      <point x="188" y="35"/>
      <point x="188" y="60" type="curve" smooth="yes"/>
      <point x="188" y="67"/>
      <point x="190" y="76"/>
      <point x="194" y="87" type="curve" smooth="yes"/>
      <point x="390" y="685" type="line"/>
      <point x="534" y="685" type="line" smooth="yes"/>
      <point x="630" y="685"/>
      <point x="662" y="615"/>
      <point x="664" y="526" type="curve"/>
      <point x="690" y="526" type="line"/>
      <point x="684" y="709" type="line"/>
      <point x="358" y="710" type="line"/>
      <point x="211" y="713" type="line"/>
      <point x="203" y="688" type="line"/>
      <point x="222" y="686" type="line" smooth="yes"/>
      <point x="276" y="681"/>
      <point x="295" y="673"/>
      <point x="295" y="650" type="curve" smooth="yes"/>
      <point x="295" y="645"/>
      <point x="294" y="638"/>
      <point x="292" y="631" type="curve" smooth="yes"/>
      <point x="118" y="100" type="line" smooth="yes"/>
      <point x="92" y="35"/>
      <point x="71" y="30"/>
      <point x="10" y="24" type="curve" smooth="yes"/>
      <point x="-11" y="22" type="line"/>
    </contour>
    <contour>
      <point x="282" y="377" type="move"/>
    </contour>
    <contour>
      <point x="434" y="196" type="curve"/>
      <point x="460" y="196" type="line"/>
      <point x="499" y="341" type="line"/>
      <point x="550" y="478" type="line"/>
      <point x="524" y="478" type="line"/>
      <point x="485" y="369"/>
      <point x="458" y="358"/>
      <point x="415" y="358" type="curve" smooth="yes"/>
      <point x="252" y="358" type="line"/>
      <point x="244" y="332" type="line"/>
      <point x="407" y="332" type="line" smooth="yes"/>
      <point x="434" y="332"/>
      <point x="451" y="318"/>
      <point x="451" y="282" type="curve" smooth="yes"/>
      <point x="451" y="261"/>
      <point x="446" y="233"/>
    </contour>
    <contour>
      <point x="238" y="0" type="move" name="bottom"/>
    </contour>
    <contour>
      <point x="472" y="710" type="move" name="top"/>
    </contour>
  </outline>
</glyph>
<glyph name="H" format="1">
  <advance width="839"/>
  <unicode hex="0048"/>
  <outline>
    <contour>
      <point x="-23" y="-3" type="line"/>
      <point x="126" y="0" type="line"/>
      <point x="275" y="-3" type="line"/>
      <point x="283" y="22" type="line"/>
      <point x="264" y="24" type="line" smooth="yes"/>
      <point x="209" y="29"/>
      <point x="191" y="36"/>
      <point x="191" y="60" type="curve" smooth="yes"/>
      <point x="191" y="69"/>
      <point x="193" y="81"/>
      <point x="198" y="96" type="curve" smooth="yes"/>
      <point x="354" y="573" type="line"/>
      <point x="381" y="655"/>
      <point x="407" y="679"/>
      <point x="480" y="686" type="curve" smooth="yes"/>
      <point x="501" y="688" type="line"/>
      <point x="509" y="713" type="line"/>
      <point x="360" y="710" type="line"/>
      <point x="211" y="713" type="line"/>
      <point x="203" y="688" type="line"/>
      <point x="222" y="686" type="line" smooth="yes"/>
      <point x="276" y="681"/>
      <point x="297" y="674"/>
      <point x="297" y="651" type="curve" smooth="yes"/>
      <point x="297" y="644"/>
      <point x="295" y="635"/>
      <point x="291" y="624" type="curve" smooth="yes"/>
      <point x="131" y="136" type="line" smooth="yes"/>
      <point x="105" y="56"/>
      <point x="79" y="31"/>
      <point x="6" y="24" type="curve" smooth="yes"/>
      <point x="-15" y="22" type="line"/>
    </contour>
    <contour>
      <point x="271" y="345" type="line"/>
      <point x="661" y="345" type="line"/>
      <point x="671" y="376" type="line"/>
      <point x="281" y="376" type="line"/>
    </contour>
    <contour>
      <point x="432" y="-3" type="line"/>
      <point x="581" y="0" type="line"/>
      <point x="730" y="-3" type="line"/>
      <point x="738" y="22" type="line"/>
      <point x="719" y="24" type="line" smooth="yes"/>
      <point x="665" y="29"/>
      <point x="644" y="36"/>
      <point x="644" y="61" type="curve" smooth="yes"/>
      <point x="644" y="71"/>
      <point x="647" y="82"/>
      <point x="652" y="97" type="curve" smooth="yes"/>
      <point x="808" y="573" type="line" smooth="yes"/>
      <point x="836" y="659"/>
      <point x="861" y="679"/>
      <point x="934" y="686" type="curve" smooth="yes"/>
      <point x="955" y="688" type="line"/>
      <point x="963" y="713" type="line"/>
      <point x="814" y="710" type="line"/>
      <point x="665" y="713" type="line"/>
      <point x="657" y="688" type="line"/>
      <point x="676" y="686" type="line" smooth="yes"/>
      <point x="730" y="681"/>
      <point x="750" y="673"/>
      <point x="750" y="650" type="curve" smooth="yes"/>
      <point x="750" y="643"/>
      <point x="748" y="634"/>
      <point x="745" y="624" type="curve" smooth="yes"/>
      <point x="580" y="121" type="line" smooth="yes"/>
      <point x="556" y="47"/>
      <point x="529" y="31"/>
      <point x="461" y="24" type="curve" smooth="yes"/>
      <point x="440" y="22" type="line"/>
    </contour>
    <contour>
      <point x="346" y="0" type="move" name="bottom"/>
    </contour>
    <contour>
      <point x="535" y="535" type="move" name="center"/>
    </contour>
    <contour>
      <point x="580" y="710" type="move" name="top"/>
    </contour>
    <contour>
      <point x="189" y="710" type="move" name="topleft"/>
    </contour>
  </outline>
</glyph>
<glyph name="I" format="2">
	<advance width="384"/>
	<unicode hex="0049"/>
	<anchor x="141" y="0" name="ogonek"/>
	<anchor x="358" y="710" name="top"/>
	<anchor x="181" y="710" name="topleft"/>
	<anchor x="124" y="0" name="bottom"/>
	<outline>
		<contour>
			<point x="-15" y="22" type="line"/>
			<point x="-23" y="-3" type="line"/>
			<point x="126" y="0" type="line"/>
			<point x="275" y="-3" type="line"/>
			<point x="283" y="22" type="line"/>
			<point x="264" y="24" type="line" smooth="yes"/>
			<point x="209" y="29"/>
			<point x="191" y="36"/>
			<point x="191" y="60" type="curve"/>
			<point x="191" y="69"/>
			<point x="194" y="81"/>
			<point x="198" y="96" type="curve"/>
			<point x="354" y="573" type="line" smooth="yes"/>
			<point x="383" y="661"/>
			<point x="407" y="679"/>
			<point x="480" y="686" type="curve"/>
			<point x="501" y="688" type="line"/>
			<point x="509" y="713" type="line"/>
			<point x="360" y="710" type="line"/>
			<point x="211" y="713" type="line"/>
			<point x="203" y="688" type="line"/>
			<point x="222" y="686" type="line" smooth="yes"/>
			<point x="277" y="681"/>
			<point x="295" y="674"/>
			<point x="295" y="650" type="curve"/>
			<point x="295" y="643"/>
			<point x="294" y="634"/>
			<point x="291" y="624" type="curve"/>
			<point x="131" y="136" type="line" smooth="yes"/>
			<point x="103" y="51"/>
			<point x="79" y="31"/>
			<point x="6" y="24" type="curve"/>
		</contour>
	</outline>
</glyph>
<glyph name="J" format="2">
	<advance width="430"/>
	<unicode hex="004A"/>
	<anchor x="366" y="710" name="top"/>
	<anchor x="133" y="0" name="bottom"/>
	<outline>
		<contour>
			<point x="87" y="-14" type="curve"/>
			<point x="217" y="-14"/>
			<point x="236" y="60"/>
			<point x="264" y="147" type="curve"/>
			<point x="403" y="574" type="line" smooth="yes"/>
			<point x="432" y="664"/>
			<point x="460" y="679"/>
			<point x="529" y="686" type="curve"/>
			<point x="550" y="688" type="line"/>
			<point x="558" y="713" type="line"/>
			<point x="409" y="710" type="line"/>
			<point x="260" y="713" type="line"/>
			<point x="252" y="688" type="line"/>
			<point x="271" y="686" type="line" smooth="yes"/>
			<point x="326" y="681"/>
			<point x="344" y="674"/>
			<point x="344" y="650" type="curve"/>
			<point x="344" y="641"/>
			<point x="341" y="629"/>
			<point x="337" y="614" type="curve"/>
			<point x="207" y="217" type="line" smooth="yes"/>
			<point x="166" y="94"/>
			<point x="145" y="9"/>
			<point x="90" y="9" type="curve"/>
			<point x="53" y="9"/>
			<point x="50" y="33"/>
			<point x="42" y="63" type="curve"/>
			<point x="35" y="93"/>
			<point x="24" y="120"/>
			<point x="-11" y="120" type="curve"/>
			<point x="-38" y="120"/>
			<point x="-56" y="101"/>
			<point x="-56" y="75" type="curve"/>
			<point x="-56" y="15"/>
			<point x="13" y="-14"/>
		</contour>
	</outline>
</glyph>
<glyph name="L" format="2">
	<advance width="646"/>
	<unicode hex="004C"/>
	<anchor x="243" y="355" name="center"/>
	<anchor x="360" y="710" name="top"/>
	<anchor x="608" y="482" name="topright"/>
	<anchor x="248" y="0" name="bottom"/>
	<outline>
		<contour>
			<point x="-15" y="22" type="line"/>
			<point x="-23" y="-3" type="line"/>
			<point x="117" y="0" type="line"/>
			<point x="552" y="-3" type="line"/>
			<point x="630" y="210" type="line"/>
			<point x="604" y="210" type="line"/>
			<point x="557" y="88"/>
			<point x="488" y="22"/>
			<point x="373" y="23" type="curve"/>
			<point x="298" y="23" type="line" smooth="yes"/>
			<point x="225" y="23"/>
			<point x="199" y="38"/>
			<point x="199" y="77" type="curve"/>
			<point x="199" y="97"/>
			<point x="207" y="125"/>
			<point x="219" y="161" type="curve"/>
			<point x="354" y="574" type="line" smooth="yes"/>
			<point x="382" y="660"/>
			<point x="407" y="679"/>
			<point x="480" y="686" type="curve"/>
			<point x="501" y="688" type="line"/>
			<point x="509" y="713" type="line"/>
			<point x="360" y="710" type="line"/>
			<point x="211" y="713" type="line"/>
			<point x="203" y="688" type="line"/>
			<point x="222" y="686" type="line" smooth="yes"/>
			<point x="276" y="681"/>
			<point x="297" y="675"/>
			<point x="297" y="651" type="curve"/>
			<point x="297" y="644"/>
			<point x="295" y="635"/>
			<point x="291" y="624" type="curve"/>
			<point x="112" y="80" type="line" smooth="yes"/>
			<point x="98" y="39"/>
			<point x="78" y="30"/>
			<point x="6" y="24" type="curve"/>
		</contour>
	</outline>
</glyph>
<glyph name="O" format="1">
  <advance width="778"/>
  <unicode hex="004F"/>
  <outline>
    <contour>
      <point x="342" y="-14" type="curve" smooth="yes"/>
      <point x="592" y="-14"/>
      <point x="790" y="237"/>
      <point x="790" y="469" type="curve" smooth="yes"/>
      <point x="790" y="631"/>
      <point x="682" y="724"/>
      <point x="540" y="724" type="curve" smooth="yes"/>
      <point x="283" y="724"/>
      <point x="86" y="471"/>
      <point x="86" y="241" type="curve" smooth="yes"/>
      <point x="86" y="73"/>
      <point x="201" y="-14"/>
    </contour>
    <contour>
      <point x="345" y="16" type="curve" smooth="yes"/>
      <point x="239" y="16"/>
      <point x="177" y="93"/>
      <point x="177" y="225" type="curve" smooth="yes"/>
      <point x="177" y="457"/>
      <point x="353" y="695"/>
      <point x="536" y="695" type="curve" smooth="yes"/>
      <point x="640" y="695"/>
      <point x="700" y="616"/>
      <point x="700" y="481" type="curve" smooth="yes"/>
      <point x="700" y="251"/>
      <point x="527" y="16"/>
    </contour>
    <contour>
      <point x="355" y="0" type="move" name="bottom"/>
    </contour>
    <contour>
      <point x="432" y="355" type="move" name="center"/>
    </contour>
    <contour>
      <point x="450" y="10" type="move" name="ogonek"/>
    </contour>
    <contour>
      <point x="559" y="710" type="move" name="top"/>
    </contour>
    <contour>
      <point x="183" y="710" type="move" name="topleft"/>
    </contour>
    <contour>
      <point x="914" y="710" type="move" name="topright"/>
    </contour>
  </outline>
</glyph>
<glyph name="P" format="1">
  <advance width="637"/>
  <unicode hex="0050"/>
  <outline>
    <contour>
      <point x="-25" y="-3" type="line"/>
      <point x="124" y="0" type="line"/>
      <point x="281" y="-3" type="line"/>
      <point x="290" y="21" type="line"/>
      <point x="271" y="23" type="line" smooth="yes"/>
      <point x="209" y="30"/>
      <point x="189" y="36"/>
      <point x="189" y="60" type="curve" smooth="yes"/>
      <point x="189" y="69"/>
      <point x="191" y="82"/>
      <point x="196" y="96" type="curve" smooth="yes"/>
      <point x="389" y="683" type="line"/>
      <point x="472" y="683" type="line" smooth="yes"/>
      <point x="572" y="683"/>
      <point x="642" y="632"/>
      <point x="642" y="539" type="curve" smooth="yes"/>
      <point x="642" y="447"/>
      <point x="579" y="333"/>
      <point x="374" y="333" type="curve" smooth="yes"/>
      <point x="362" y="333"/>
      <point x="335" y="334"/>
      <point x="268" y="337" type="curve"/>
      <point x="259" y="310" type="line"/>
      <point x="328" y="304"/>
      <point x="358" y="302"/>
      <point x="388" y="302" type="curve" smooth="yes"/>
      <point x="610" y="302"/>
      <point x="728" y="399"/>
      <point x="728" y="534" type="curve" smooth="yes"/>
      <point x="728" y="642"/>
      <point x="643" y="713"/>
      <point x="466" y="711" type="curve" smooth="yes"/>
      <point x="369" y="710" type="line"/>
      <point x="358" y="710" type="line"/>
      <point x="211" y="713" type="line"/>
      <point x="202" y="688" type="line"/>
      <point x="221" y="686" type="line" smooth="yes"/>
      <point x="276" y="680"/>
      <point x="295" y="673"/>
      <point x="295" y="650" type="curve" smooth="yes"/>
      <point x="295" y="644"/>
      <point x="294" y="638"/>
      <point x="292" y="630" type="curve"/>
      <point x="125" y="125" type="line" smooth="yes"/>
      <point x="101" y="53"/>
      <point x="73" y="31"/>
      <point x="6" y="24" type="curve" smooth="yes"/>
      <point x="-16" y="22" type="line"/>
    </contour>
    <contour>
      <point x="271" y="0" type="move" name="bottom"/>
    </contour>
    <contour>
      <point x="446" y="710" type="move" name="top"/>
    </contour>
  </outline>
</glyph>
<glyph name="R" format="2">
	<advance width="743"/>
	<unicode hex="0052"/>
	<anchor x="452" y="710" name="top"/>
	<anchor x="394" y="0" name="bottom"/>
	<outline>
		<contour>
			<point x="-12" y="22" type="line"/>
			<point x="-20" y="-3" type="line"/>
			<point x="125" y="0" type="line"/>
			<point x="262" y="-3" type="line"/>
			<point x="270" y="22" type="line"/>
			<point x="251" y="24" type="line" smooth="yes"/>
			<point x="203" y="29"/>
			<point x="187" y="33"/>
			<point x="187" y="54" type="curve"/>
			<point x="187" y="62"/>
			<point x="189" y="73"/>
			<point x="194" y="87" type="curve"/>
			<point x="389" y="683" type="line"/>
			<point x="446" y="683" type="line" smooth="yes"/>
			<point x="569" y="683"/>
			<point x="603" y="619"/>
			<point x="603" y="558" type="curve"/>
			<point x="603" y="454"/>
			<point x="530" y="381"/>
			<point x="408" y="382" type="curve"/>
			<point x="278" y="383" type="line"/>
			<point x="271" y="360" type="line"/>
			<point x="431" y="360" type="line" smooth="yes"/>
			<point x="575" y="360"/>
			<point x="689" y="412"/>
			<point x="689" y="550" type="curve"/>
			<point x="689" y="650"/>
			<point x="612" y="713"/>
			<point x="446" y="711" type="curve"/>
			<point x="369" y="710" type="line"/>
			<point x="358" y="710" type="line"/>
			<point x="211" y="713" type="line"/>
			<point x="203" y="688" type="line"/>
			<point x="222" y="686" type="line" smooth="yes"/>
			<point x="276" y="681"/>
			<point x="295" y="671"/>
			<point x="295" y="650" type="curve"/>
			<point x="295" y="645"/>
			<point x="294" y="639"/>
			<point x="292" y="632" type="curve"/>
			<point x="124" y="120" type="line" smooth="yes"/>
			<point x="96" y="36"/>
			<point x="77" y="32"/>
			<point x="9" y="24" type="curve"/>
		</contour>
		<contour>
			<point x="596" y="-14" type="curve"/>
			<point x="634" y="-14"/>
			<point x="673" y="-1"/>
			<point x="704" y="36" type="curve"/>
			<point x="685" y="53" type="line"/>
			<point x="672" y="38"/>
			<point x="654" y="22"/>
			<point x="626" y="22" type="curve"/>
			<point x="582" y="22"/>
			<point x="570" y="55"/>
			<point x="568" y="127" type="curve"/>
			<point x="563" y="205" type="line" smooth="yes"/>
			<point x="554" y="307"/>
			<point x="485" y="362"/>
			<point x="367" y="362" type="curve"/>
			<point x="354" y="362"/>
			<point x="340" y="361"/>
			<point x="326" y="360" type="curve"/>
			<point x="264" y="360" type="line"/>
			<point x="393" y="360"/>
			<point x="467" y="299"/>
			<point x="471" y="205" type="curve"/>
			<point x="472" y="154" type="line" smooth="yes"/>
			<point x="476" y="48"/>
			<point x="527" y="-14"/>
		</contour>
	</outline>
</glyph>
<glyph name="S" format="2">
	<advance width="589"/>
	<unicode hex="0053"/>
	<anchor x="408" y="710" name="top"/>
	<anchor x="295" y="0" name="bottom"/>
	<outline>
		<contour>
			<point x="293" y="-11" type="curve"/>
			<point x="421" y="-11"/>
			<point x="509" y="77"/>
			<point x="509" y="187" type="curve"/>
			<point x="509" y="249"/>
			<point x="471" y="307"/>
			<point x="402" y="373" type="curve"/>
			<point x="357" y="417" type="line" smooth="yes"/>
			<point x="308" y="463"/>
			<point x="265" y="499"/>
			<point x="265" y="567" type="curve"/>
			<point x="265" y="643"/>
			<point x="326" y="692"/>
			<point x="395" y="692" type="curve"/>
			<point x="507" y="692"/>
			<point x="542" y="598"/>
			<point x="544" y="501" type="curve"/>
			<point x="544" y="471" type="line"/>
			<point x="570" y="470" type="line"/>
			<point x="587" y="581" type="line"/>
			<point x="614" y="693" type="line"/>
			<point x="587" y="694" type="line"/>
			<point x="579" y="664"/>
			<point x="570" y="653"/>
			<point x="560" y="653" type="curve"/>
			<point x="536" y="653"/>
			<point x="490" y="720"/>
			<point x="384" y="720" type="curve"/>
			<point x="264" y="720"/>
			<point x="181" y="650"/>
			<point x="181" y="549" type="curve"/>
			<point x="181" y="466"/>
			<point x="247" y="415"/>
			<point x="294" y="369" type="curve"/>
			<point x="340" y="325" type="line" smooth="yes"/>
			<point x="398" y="270"/>
			<point x="426" y="228"/>
			<point x="426" y="154" type="curve"/>
			<point x="426" y="78"/>
			<point x="369" y="17"/>
			<point x="281" y="17" type="curve"/>
			<point x="183" y="17"/>
			<point x="125" y="84"/>
			<point x="121" y="200" type="curve"/>
			<point x="121" y="209"/>
			<point x="121" y="219"/>
			<point x="121" y="229" type="curve"/>
			<point x="124" y="269" type="line"/>
			<point x="97" y="271" type="line"/>
			<point x="66" y="149" type="line"/>
			<point x="22" y="19" type="line"/>
			<point x="48" y="4" type="line"/>
			<point x="59" y="28"/>
			<point x="72" y="56"/>
			<point x="92" y="56" type="curve"/>
			<point x="126" y="56"/>
			<point x="169" y="-11"/>
		</contour>
	</outline>
</glyph>
<glyph name="U" format="2">
	<advance width="758"/>
	<unicode hex="0055"/>
	<anchor x="473" y="0" name="ogonek"/>
	<anchor x="575" y="710" name="top"/>
	<anchor x="888" y="710" name="topright"/>
	<anchor x="311" y="0" name="bottom"/>
	<outline>
		<contour>
			<point x="366" y="-14" type="curve"/>
			<point x="538" y="-14"/>
			<point x="602" y="91"/>
			<point x="672" y="308" type="curve"/>
			<point x="769" y="612" type="line" smooth="yes"/>
			<point x="789" y="675"/>
			<point x="814" y="680"/>
			<point x="878" y="686" type="curve"/>
			<point x="899" y="688" type="line"/>
			<point x="907" y="713" type="line"/>
			<point x="784" y="710" type="line"/>
			<point x="666" y="713" type="line"/>
			<point x="658" y="688" type="line"/>
			<point x="677" y="686" type="line" smooth="yes"/>
			<point x="726" y="681"/>
			<point x="747" y="677"/>
			<point x="747" y="652" type="curve"/>
			<point x="747" y="645"/>
			<point x="745" y="636"/>
			<point x="742" y="625" type="curve"/>
			<point x="629" y="274" type="line" smooth="yes"/>
			<point x="567" y="81"/>
			<point x="489" y="18"/>
			<point x="377" y="18" type="curve"/>
			<point x="270" y="18"/>
			<point x="221" y="78"/>
			<point x="221" y="168" type="curve"/>
			<point x="221" y="200"/>
			<point x="228" y="236"/>
			<point x="240" y="275" type="curve"/>
			<point x="335" y="574" type="line" smooth="yes"/>
			<point x="363" y="663"/>
			<point x="387" y="679"/>
			<point x="460" y="686" type="curve"/>
			<point x="481" y="688" type="line"/>
			<point x="489" y="713" type="line"/>
			<point x="340" y="710" type="line"/>
			<point x="191" y="713" type="line"/>
			<point x="183" y="688" type="line"/>
			<point x="202" y="686" type="line" smooth="yes"/>
			<point x="257" y="681"/>
			<point x="275" y="674"/>
			<point x="275" y="650" type="curve"/>
			<point x="275" y="641"/>
			<point x="272" y="629"/>
			<point x="268" y="614" type="curve"/>
			<point x="159" y="275" type="line" smooth="yes"/>
			<point x="145" y="231"/>
			<point x="137" y="191"/>
			<point x="137" y="156" type="curve"/>
			<point x="137" y="51"/>
			<point x="202" y="-14"/>
		</contour>
	</outline>
</glyph>
<glyph name="V" format="2">
	<advance width="686"/>
	<unicode hex="0056"/>
	<anchor x="539" y="710" name="top"/>
	<anchor x="311" y="0" name="bottom"/>
	<outline>
		<contour>
			<point x="237" y="593" type="curve"/>
			<point x="287" y="-8" type="line"/>
			<point x="313" y="-8" type="line"/>
			<point x="721" y="598" type="line" smooth="yes"/>
			<point x="756" y="651"/>
			<point x="768" y="679"/>
			<point x="839" y="686" type="curve"/>
			<point x="860" y="688" type="line"/>
			<point x="868" y="713" type="line"/>
			<point x="746" y="710" type="line"/>
			<point x="627" y="713" type="line"/>
			<point x="619" y="688" type="line"/>
			<point x="638" y="686" type="line" smooth="yes"/>
			<point x="685" y="681"/>
			<point x="709" y="670"/>
			<point x="709" y="648" type="curve"/>
			<point x="709" y="639"/>
			<point x="704" y="627"/>
			<point x="695" y="613" type="curve"/>
			<point x="328" y="67" type="line"/>
			<point x="356" y="74" type="line"/>
			<point x="314" y="611" type="line" smooth="yes"/>
			<point x="310" y="669"/>
			<point x="354" y="680"/>
			<point x="409" y="686" type="curve"/>
			<point x="430" y="688" type="line"/>
			<point x="438" y="713" type="line"/>
			<point x="292" y="710" type="line"/>
			<point x="149" y="713" type="line"/>
			<point x="141" y="688" type="line"/>
			<point x="160" y="686" type="line" smooth="yes"/>
			<point x="236" y="678"/>
			<point x="231" y="651"/>
		</contour>
	</outline>
</glyph>
<glyph name="W" format="1">
  <advance width="1019"/>
  <unicode hex="0057"/>
  <outline>
    <contour>
      <point x="664" y="-8" type="line"/>
      <point x="690" y="-8" type="line"/>
      <point x="1030" y="598" type="line" smooth="yes"/>
      <point x="1061" y="653"/>
      <point x="1077" y="679"/>
      <point x="1148" y="686" type="curve" smooth="yes"/>
      <point x="1169" y="688" type="line"/>
      <point x="1177" y="713" type="line"/>
      <point x="1055" y="710" type="line"/>
      <point x="918" y="713" type="line"/>
      <point x="910" y="688" type="line"/>
      <point x="947" y="686" type="line" smooth="yes"/>
      <point x="994" y="683"/>
      <point x="1016" y="673"/>
      <point x="1016" y="650" type="curve" smooth="yes"/>
      <point x="1016" y="640"/>
      <point x="1012" y="628"/>
      <point x="1004" y="613" type="curve" smooth="yes"/>
      <point x="697" y="67" type="line"/>
      <point x="731" y="78" type="line"/>
      <point x="665" y="587" type="line" smooth="yes"/>
      <point x="664" y="595"/>
      <point x="663" y="602"/>
      <point x="663" y="609" type="curve" smooth="yes"/>
      <point x="663" y="656"/>
      <point x="696" y="679"/>
      <point x="745" y="683" type="curve" smooth="yes"/>
      <point x="785" y="687" type="line"/>
      <point x="786" y="713" type="line"/>
      <point x="759" y="711" type="line" smooth="yes"/>
      <point x="707" y="707"/>
      <point x="664" y="701"/>
      <point x="630" y="655" type="curve"/>
      <point x="643" y="599" type="line"/>
      <point x="597" y="522" type="line"/>
    </contour>
    <contour>
      <point x="292" y="-8" type="line"/>
      <point x="318" y="-8" type="line"/>
      <point x="627" y="536" type="line" smooth="yes"/>
      <point x="643" y="565"/>
      <point x="665" y="605"/>
      <point x="665" y="642" type="curve" smooth="yes"/>
      <point x="665" y="677"/>
      <point x="644" y="702"/>
      <point x="574" y="710" type="curve" smooth="yes"/>
      <point x="547" y="713" type="line"/>
      <point x="543" y="687" type="line"/>
      <point x="581" y="681" type="line" smooth="yes"/>
      <point x="619" y="676"/>
      <point x="632" y="658"/>
      <point x="632" y="635" type="curve" smooth="yes"/>
      <point x="632" y="613"/>
      <point x="619" y="586"/>
      <point x="606" y="562" type="curve" smooth="yes"/>
      <point x="325" y="68" type="line"/>
      <point x="361" y="77" type="line"/>
      <point x="314" y="613" type="line" smooth="yes"/>
      <point x="309" y="668"/>
      <point x="352" y="679"/>
      <point x="395" y="686" type="curve" smooth="yes"/>
      <point x="407" y="688" type="line"/>
      <point x="415" y="713" type="line"/>
      <point x="288" y="710" type="line"/>
      <point x="149" y="713" type="line"/>
      <point x="141" y="688" type="line"/>
      <point x="160" y="686" type="line" smooth="yes"/>
      <point x="236" y="678"/>
      <point x="231" y="651"/>
      <point x="237" y="593" type="curve" smooth="yes"/>
    </contour>
    <contour>
      <point x="521" y="0" type="move" name="bottom"/>
    </contour>
    <contour>
      <point x="647" y="710" type="move" name="top"/>
    </contour>
  </outline>
</glyph>
<glyph name="X" format="2">
	<advance width="744"/>
	<unicode hex="0058"/>
	<anchor x="533" y="710" name="top"/>
	<anchor x="299" y="0" name="bottom"/>
	<outline>
		<contour>
			<point x="424" y="23" type="line"/>
			<point x="415" y="-2" type="line"/>
			<point x="567" y="0" type="line"/>
			<point x="693" y="-2" type="line"/>
			<point x="702" y="23" type="line"/>
			<point x="683" y="25" type="line" smooth="yes"/>
			<point x="630" y="30"/>
			<point x="608" y="61"/>
			<point x="571" y="146" type="curve"/>
			<point x="380" y="581" type="line" smooth="yes"/>
			<point x="372" y="601"/>
			<point x="370" y="617"/>
			<point x="370" y="631" type="curve"/>
			<point x="370" y="665"/>
			<point x="394" y="682"/>
			<point x="435" y="686" type="curve"/>
			<point x="456" y="688" type="line"/>
			<point x="465" y="713" type="line"/>
			<point x="316" y="710" type="line"/>
			<point x="187" y="713" type="line"/>
			<point x="178" y="688" type="line"/>
			<point x="197" y="686" type="line" smooth="yes"/>
			<point x="248" y="681"/>
			<point x="270" y="648"/>
			<point x="294" y="593" type="curve"/>
			<point x="507" y="104" type="line" smooth="yes"/>
			<point x="511" y="94"/>
			<point x="513" y="85"/>
			<point x="513" y="76" type="curve"/>
			<point x="513" y="48"/>
			<point x="489" y="30"/>
			<point x="445" y="25" type="curve"/>
		</contour>
		<contour>
			<point x="-38" y="23" type="line"/>
			<point x="-47" y="-2" type="line"/>
			<point x="86" y="1" type="line"/>
			<point x="207" y="-2" type="line"/>
			<point x="216" y="23" type="line"/>
			<point x="197" y="25" type="line" smooth="yes"/>
			<point x="153" y="29"/>
			<point x="126" y="41"/>
			<point x="125" y="61" type="curve"/>
			<point x="125" y="72"/>
			<point x="132" y="87"/>
			<point x="152" y="104" type="curve"/>
			<point x="433" y="364" type="line"/>
			<point x="412" y="386" type="line"/>
			<point x="107" y="102" type="line" smooth="yes"/>
			<point x="58" y="58"/>
			<point x="19" y="31"/>
			<point x="-17" y="26" type="curve"/>
		</contour>
		<contour>
			<point x="427" y="382" type="line"/>
			<point x="448" y="360" type="line"/>
			<point x="718" y="609" type="line" smooth="yes"/>
			<point x="767" y="653"/>
			<point x="807" y="680"/>
			<point x="842" y="685" type="curve"/>
			<point x="863" y="688" type="line"/>
			<point x="872" y="713" type="line"/>
			<point x="746" y="710" type="line"/>
			<point x="618" y="713" type="line"/>
			<point x="609" y="688" type="line"/>
			<point x="628" y="686" type="line" smooth="yes"/>
			<point x="677" y="681"/>
			<point x="704" y="672"/>
			<point x="705" y="654" type="curve"/>
			<point x="705" y="642"/>
			<point x="695" y="628"/>
			<point x="675" y="609" type="curve"/>
		</contour>
	</outline>
</glyph>
<glyph name="Y" format="2">
	<advance width="663"/>
	<unicode hex="0059"/>
	<anchor x="521" y="710" name="top"/>
	<anchor x="287" y="0" name="bottom"/>
	<anchor x="221" y="710" name="topleft"/>
	<outline>
		<contour>
			<point x="393" y="299" type="line"/>
			<point x="414" y="280" type="line"/>
			<point x="670" y="601" type="line" smooth="yes"/>
			<point x="713" y="654"/>
			<point x="754" y="680"/>
			<point x="790" y="685" type="curve"/>
			<point x="811" y="688" type="line"/>
			<point x="820" y="713" type="line"/>
			<point x="694" y="710" type="line"/>
			<point x="566" y="713" type="line"/>
			<point x="557" y="688" type="line"/>
			<point x="576" y="686" type="line" smooth="yes"/>
			<point x="626" y="681"/>
			<point x="654" y="672"/>
			<point x="654" y="648" type="curve"/>
			<point x="654" y="635"/>
			<point x="646" y="618"/>
			<point x="628" y="595" type="curve"/>
		</contour>
		<contour>
			<point x="159" y="22" type="line"/>
			<point x="150" y="-3" type="line"/>
			<point x="295" y="0" type="line"/>
			<point x="468" y="-3" type="line"/>
			<point x="477" y="22" type="line"/>
			<point x="458" y="24" type="line" smooth="yes"/>
			<point x="399" y="30"/>
			<point x="361" y="35"/>
			<point x="361" y="70" type="curve"/>
			<point x="361" y="76"/>
			<point x="362" y="82"/>
			<point x="364" y="89" type="curve"/>
			<point x="421" y="292" type="line"/>
			<point x="341" y="292" type="line"/>
			<point x="288" y="102" type="line" smooth="yes"/>
			<point x="265" y="33"/>
			<point x="241" y="31"/>
			<point x="180" y="24" type="curve"/>
		</contour>
		<contour>
			<point x="257" y="593" type="curve"/>
			<point x="340" y="259" type="line"/>
			<point x="416" y="279" type="line"/>
			<point x="338" y="581" type="line" smooth="yes"/>
			<point x="334" y="598"/>
			<point x="331" y="613"/>
			<point x="331" y="626" type="curve"/>
			<point x="331" y="664"/>
			<point x="352" y="682"/>
			<point x="397" y="686" type="curve"/>
			<point x="418" y="688" type="line"/>
			<point x="427" y="713" type="line"/>
			<point x="281" y="710" type="line"/>
			<point x="150" y="713" type="line"/>
			<point x="141" y="688" type="line"/>
			<point x="160" y="686" type="line" smooth="yes"/>
			<point x="236" y="678"/>
			<point x="243" y="650"/>
		</contour>
	</outline>
</glyph>
<glyph name="Z" format="2">
	<advance width="675"/>
	<unicode hex="005A"/>
	<anchor x="478" y="710" name="top"/>
	<anchor x="244" y="0" name="bottom"/>
	<outline>
		<contour>
			<point x="-16" y="9" type="line"/>
			<point x="-9" y="0" type="line"/>
			<point x="586" y="1" type="line"/>
			<point x="607" y="107" type="line"/>
			<point x="644" y="260" type="line"/>
			<point x="618" y="260" type="line"/>
			<point x="556" y="99"/>
			<point x="513" y="29"/>
			<point x="327" y="29" type="curve"/>
			<point x="78" y="29" type="line"/>
			<point x="85" y="9" type="line"/>
			<point x="762" y="703" type="line"/>
			<point x="759" y="710" type="line"/>
			<point x="236" y="710" type="line"/>
			<point x="159" y="506" type="line"/>
			<point x="185" y="506" type="line"/>
			<point x="237" y="613"/>
			<point x="262" y="685"/>
			<point x="415" y="685" type="curve"/>
			<point x="710" y="685" type="line"/>
			<point x="661" y="703" type="line"/>
		</contour>
	</outline>
</glyph>
<glyph name="bracketleft" format="2">
	<advance width="279"/>
	<unicode hex="005B"/>
	<guideline x="-1753" y="-192" angle="0"/>
	<outline>
		<contour>
			<point x="255" y="784" type="line"/>
			<point x="-73" y="-119" type="line"/>
			<point x="111" y="-119" type="line"/>
			<point x="121" y="-90" type="line"/>
			<point x="48" y="-83"/>
			<point x="11" y="-78"/>
			<point x="-4" y="-54" type="curve"/>
			<point x="276" y="718" type="line"/>
			<point x="310" y="744"/>
			<point x="351" y="750"/>
			<point x="428" y="754" type="curve"/>
			<point x="439" y="784" type="line"/>
		</contour>
	</outline>
</glyph>
<glyph name="asciicircum" format="2">
	<advance width="510"/>
	<unicode hex="005E"/>
	<outline>
		<contour>
			<point x="418" y="710" type="line"/>
			<point x="104" y="348" type="line"/>
			<point x="152" y="348" type="line"/>
			<point x="436" y="678" type="line"/>
			<point x="426" y="685" type="line"/>
			<point x="478" y="348" type="line"/>
			<point x="514" y="348" type="line"/>
			<point x="458" y="710" type="line"/>
		</contour>
	</outline>
</glyph>
<glyph name="grave" format="2">
	<advance width="276"/>
	<unicode hex="0060"/>
	<outline>
		<contour>
			<point x="251" y="617" type="curve"/>
			<point x="287" y="520" type="line"/>
			<point x="311" y="520" type="line"/>
			<point x="308" y="656" type="line" smooth="yes"/>
			<point x="307" y="702"/>
			<point x="294" y="720"/>
			<point x="275" y="720" type="curve"/>
			<point x="249" y="720"/>
			<point x="237" y="701"/>
			<point x="237" y="678" type="curve"/>
			<point x="237" y="659"/>
			<point x="242" y="642"/>
		</contour>
	</outline>
</glyph>
<glyph name="a" format="2">
	<advance width="533"/>
	<unicode hex="0061"/>
	<guideline x="357" y="215" angle="69.8938"/>
	<anchor x="440" y="0" name="ogonek"/>
	<anchor x="191" y="0" name="bottom"/>
	<anchor x="327" y="440" name="top"/>
	<outline>
		<contour>
			<point x="162" y="-14" type="curve"/>
			<point x="233" y="-14"/>
			<point x="296" y="37"/>
			<point x="343" y="120" type="curve"/>
			<point x="416" y="318" type="line"/>
			<point x="420" y="395"/>
			<point x="390" y="454"/>
			<point x="319" y="454" type="curve"/>
			<point x="189" y="454"/>
			<point x="27" y="296"/>
			<point x="27" y="127" type="curve"/>
			<point x="27" y="52"/>
			<point x="68" y="-14"/>
		</contour>
		<contour>
			<point x="172" y="12" type="curve"/>
			<point x="129" y="12"/>
			<point x="102" y="44"/>
			<point x="102" y="107" type="curve"/>
			<point x="102" y="242"/>
			<point x="219" y="428"/>
			<point x="325" y="428" type="curve"/>
			<point x="372" y="428"/>
			<point x="394" y="390"/>
			<point x="394" y="336" type="curve"/>
			<point x="394" y="306"/>
			<point x="387" y="270"/>
			<point x="374" y="234" type="curve"/>
			<point x="327" y="103"/>
			<point x="253" y="12"/>
		</contour>
		<contour>
			<point x="370" y="-14" type="curve"/>
			<point x="427" y="-14"/>
			<point x="467" y="33"/>
			<point x="492" y="75" type="curve"/>
			<point x="474" y="87" type="line"/>
			<point x="457" y="57"/>
			<point x="426" y="19"/>
			<point x="397" y="19" type="curve"/>
			<point x="386" y="19"/>
			<point x="381" y="26"/>
			<point x="381" y="39" type="curve"/>
			<point x="381" y="50"/>
			<point x="385" y="65"/>
			<point x="391" y="85" type="curve"/>
			<point x="516" y="440" type="line"/>
			<point x="450" y="440" type="line"/>
			<point x="329" y="113" type="line" smooth="yes"/>
			<point x="320" y="87"/>
			<point x="314" y="62"/>
			<point x="314" y="41" type="curve"/>
			<point x="314" y="8"/>
			<point x="329" y="-14"/>
		</contour>
	</outline>
</glyph>
<glyph name="b" format="2">
	<advance width="493"/>
	<unicode hex="0062"/>
	<anchor x="317" y="440" name="top"/>
	<anchor x="157" y="0" name="bottom"/>
	<outline>
		<contour>
			<point x="179" y="-14" type="curve"/>
			<point x="320" y="-14"/>
			<point x="460" y="128"/>
			<point x="460" y="300" type="curve"/>
			<point x="460" y="397"/>
			<point x="409" y="454"/>
			<point x="333" y="454" type="curve"/>
			<point x="297" y="454"/>
			<point x="261" y="438"/>
			<point x="231" y="414" type="curve"/>
			<point x="209" y="398"/>
			<point x="193" y="379"/>
			<point x="177" y="354" type="curve"/>
			<point x="179" y="343" type="line"/>
			<point x="296" y="713" type="line"/>
			<point x="134" y="710" type="line"/>
			<point x="127" y="686" type="line"/>
			<point x="164" y="686"/>
			<point x="202" y="689"/>
			<point x="202" y="653" type="curve"/>
			<point x="202" y="644"/>
			<point x="200" y="633"/>
			<point x="195" y="619" type="curve"/>
			<point x="71" y="233" type="line" smooth="yes"/>
			<point x="55" y="184"/>
			<point x="46" y="142"/>
			<point x="46" y="108" type="curve"/>
			<point x="46" y="26"/>
			<point x="94" y="-14"/>
		</contour>
		<contour>
			<point x="179" y="8" type="curve"/>
			<point x="140" y="8"/>
			<point x="113" y="38"/>
			<point x="113" y="91" type="curve"/>
			<point x="113" y="125"/>
			<point x="119" y="169"/>
			<point x="137" y="221" type="curve"/>
			<point x="156" y="274" type="line" smooth="yes"/>
			<point x="185" y="353"/>
			<point x="258" y="426"/>
			<point x="312" y="426" type="curve"/>
			<point x="355" y="426"/>
			<point x="384" y="394"/>
			<point x="384" y="317" type="curve"/>
			<point x="384" y="183"/>
			<point x="283" y="8"/>
		</contour>
	</outline>
</glyph>
<glyph name="c" format="2">
	<advance width="438"/>
	<unicode hex="0063"/>
	<anchor x="304" y="440" name="top"/>
	<anchor x="204" y="0" name="bottom"/>
	<outline>
		<contour>
			<point x="200" y="-14" type="curve"/>
			<point x="284" y="-14"/>
			<point x="339" y="33"/>
			<point x="368" y="90" type="curve"/>
			<point x="350" y="103" type="line"/>
			<point x="339" y="84"/>
			<point x="327" y="68"/>
			<point x="311" y="53" type="curve"/>
			<point x="284" y="26"/>
			<point x="249" y="11"/>
			<point x="217" y="11" type="curve"/>
			<point x="144" y="11"/>
			<point x="114" y="73"/>
			<point x="114" y="148" type="curve"/>
			<point x="114" y="275"/>
			<point x="217" y="432"/>
			<point x="326" y="432" type="curve"/>
			<point x="363" y="432"/>
			<point x="358" y="409"/>
			<point x="358" y="367" type="curve"/>
			<point x="358" y="343"/>
			<point x="374" y="327"/>
			<point x="399" y="327" type="curve"/>
			<point x="429" y="327"/>
			<point x="444" y="354"/>
			<point x="444" y="379" type="curve"/>
			<point x="444" y="405"/>
			<point x="431" y="454"/>
			<point x="332" y="454" type="curve"/>
			<point x="188" y="454"/>
			<point x="36" y="318"/>
			<point x="36" y="155" type="curve"/>
			<point x="36" y="56"/>
			<point x="92" y="-14"/>
		</contour>
	</outline>
</glyph>
<glyph name="e" format="2">
	<advance width="418"/>
	<unicode hex="0065"/>
	<anchor x="281" y="0" name="ogonek"/>
	<anchor x="187" y="0" name="bottom"/>
	<anchor x="299" y="440" name="top"/>
	<outline>
		<contour>
			<point x="188" y="-14" type="curve"/>
			<point x="262" y="-14"/>
			<point x="310" y="33"/>
			<point x="341" y="76" type="curve"/>
			<point x="324" y="90" type="line"/>
			<point x="298" y="54"/>
			<point x="253" y="12"/>
			<point x="201" y="12" type="curve"/>
			<point x="136" y="12"/>
			<point x="112" y="76"/>
			<point x="112" y="134" type="curve"/>
			<point x="112" y="275"/>
			<point x="218" y="432"/>
			<point x="307" y="432" type="curve"/>
			<point x="339" y="432"/>
			<point x="351" y="411"/>
			<point x="351" y="381" type="curve"/>
			<point x="350" y="347"/>
			<point x="329" y="271"/>
			<point x="187" y="251" type="curve"/>
			<point x="122" y="242" type="line"/>
			<point x="119" y="221" type="line"/>
			<point x="208" y="230" type="line" smooth="yes"/>
			<point x="331" y="243"/>
			<point x="408" y="287"/>
			<point x="410" y="366" type="curve"/>
			<point x="410" y="418"/>
			<point x="371" y="452"/>
			<point x="308" y="452" type="curve"/>
			<point x="181" y="452"/>
			<point x="37" y="318"/>
			<point x="37" y="154" type="curve"/>
			<point x="37" y="66"/>
			<point x="82" y="-14"/>
		</contour>
	</outline>
</glyph>
<glyph name="f" format="2">
	<advance width="342"/>
	<unicode hex="0066"/>
	<guideline x="72" y="54" angle="72"/>
	<outline>
		<contour>
			<point x="-99" y="-290" type="curve"/>
			<point x="-12" y="-290"/>
			<point x="41" y="-260"/>
			<point x="85" y="-127" type="curve"/>
			<point x="327" y="611" type="line" smooth="yes"/>
			<point x="351" y="684"/>
			<point x="392" y="702"/>
			<point x="418" y="702" type="curve"/>
			<point x="444" y="702"/>
			<point x="453" y="689"/>
			<point x="453" y="651" type="curve"/>
			<point x="453" y="622"/>
			<point x="463" y="601"/>
			<point x="494" y="601" type="curve"/>
			<point x="527" y="601"/>
			<point x="540" y="627"/>
			<point x="540" y="654" type="curve"/>
			<point x="540" y="689"/>
			<point x="509" y="724"/>
			<point x="436" y="724" type="curve"/>
			<point x="350" y="724"/>
			<point x="277" y="683"/>
			<point x="234" y="552" type="curve"/>
			<point x="13" y="-127" type="line" smooth="yes"/>
			<point x="-15" y="-213"/>
			<point x="-46" y="-268"/>
			<point x="-81" y="-268" type="curve"/>
			<point x="-125" y="-268"/>
			<point x="-102" y="-170"/>
			<point x="-161" y="-170" type="curve"/>
			<point x="-189" y="-170"/>
			<point x="-210" y="-190"/>
			<point x="-210" y="-217" type="curve"/>
			<point x="-210" y="-253"/>
			<point x="-181" y="-290"/>
		</contour>
		<contour>
			<point x="111" y="440" type="line"/>
			<point x="103" y="416" type="line"/>
			<point x="370" y="416" type="line"/>
			<point x="378" y="440" type="line"/>
		</contour>
	</outline>
</glyph>
<glyph name="k" format="1">
  <advance width="486"/>
  <unicode hex="006B"/>
  <outline>
    <contour>
      <point x="332" y="-14" type="curve" smooth="yes"/>
      <point x="370" y="-14"/>
      <point x="418" y="9"/>
      <point x="453" y="72" type="curve"/>
      <point x="436" y="84" type="line"/>
      <point x="409" y="39"/>
      <point x="379" y="19"/>
      <point x="362" y="19" type="curve" smooth="yes"/>
      <point x="335" y="19"/>
      <point x="335" y="37"/>
      <point x="333" y="136" type="curve" smooth="yes"/>
      <point x="331" y="249"/>
      <point x="298" y="284"/>
      <point x="163" y="284" type="curve"/>
      <point x="161" y="269" type="line"/>
      <point x="245" y="269"/>
      <point x="265" y="236"/>
      <point x="265" y="132" type="curve" smooth="yes"/>
      <point x="265" y="22"/>
      <point x="275" y="-14"/>
    </contour>
    <contour>
      <point x="143" y="270" type="line"/>
      <point x="233" y="270"/>
      <point x="255" y="295"/>
      <point x="298" y="340" type="curve" smooth="yes"/>
      <point x="339" y="383" type="line" smooth="yes"/>
      <point x="357" y="403"/>
      <point x="369" y="414"/>
      <point x="383" y="414" type="curve" smooth="yes"/>
      <point x="387" y="414"/>
      <point x="391" y="412"/>
      <point x="393" y="409" type="curve" smooth="yes"/>
      <point x="397" y="404"/>
      <point x="398" y="396"/>
      <point x="398" y="373" type="curve" smooth="yes"/>
      <point x="398" y="348"/>
      <point x="417" y="337"/>
      <point x="435" y="337" type="curve" smooth="yes"/>
      <point x="461" y="337"/>
      <point x="478" y="362"/>
      <point x="478" y="392" type="curve" smooth="yes"/>
      <point x="478" y="411"/>
      <point x="471" y="454"/>
      <point x="418" y="454" type="curve" smooth="yes"/>
      <point x="384" y="454"/>
      <point x="360" y="433"/>
      <point x="323" y="394" type="curve" smooth="yes"/>
      <point x="286" y="355" type="line" smooth="yes"/>
      <point x="243" y="310"/>
      <point x="214" y="284"/>
      <point x="143" y="284" type="curve"/>
    </contour>
    <contour>
      <point x="77" y="0" type="line"/>
      <point x="308" y="713" type="line"/>
      <point x="147" y="710" type="line"/>
      <point x="140" y="686" type="line"/>
      <point x="178" y="686"/>
      <point x="213" y="690"/>
      <point x="213" y="652" type="curve" smooth="yes"/>
      <point x="213" y="643"/>
      <point x="211" y="631"/>
      <point x="206" y="616" type="curve" smooth="yes"/>
      <point x="5" y="0" type="line"/>
    </contour>
    <contour>
      <point x="174" y="0" type="move" name="bottom"/>
    </contour>
    <contour>
      <point x="334" y="440" type="move" name="top"/>
    </contour>
  </outline>
</glyph>
<glyph name="o" format="2">
	<advance width="514"/>
	<unicode hex="006F"/>
	<anchor x="257" y="220" name="center"/>
	<anchor x="320" y="0" name="ogonek"/>
	<anchor x="334" y="440" name="top"/>
	<anchor x="531" y="440" name="topright"/>
	<anchor x="177" y="0" name="bottom"/>
	<outline>
		<contour>
			<point x="196" y="-14" type="curve"/>
			<point x="348" y="-14"/>
			<point x="479" y="133"/>
			<point x="479" y="294" type="curve"/>
			<point x="479" y="379"/>
			<point x="426" y="454"/>
			<point x="318" y="454" type="curve"/>
			<point x="168" y="454"/>
			<point x="36" y="308"/>
			<point x="36" y="149" type="curve"/>
			<point x="36" y="62"/>
			<point x="89" y="-14"/>
		</contour>
		<contour>
			<point x="195" y="8" type="curve"/>
			<point x="138" y="8"/>
			<point x="107" y="47"/>
			<point x="107" y="121" type="curve"/>
			<point x="107" y="233"/>
			<point x="198" y="432"/>
			<point x="320" y="432" type="curve"/>
			<point x="377" y="432"/>
			<point x="408" y="394"/>
			<point x="408" y="322" type="curve"/>
			<point x="408" y="209"/>
			<point x="317" y="8"/>
		</contour>
	</outline>
</glyph>
<glyph name="p" format="2">
	<advance width="527"/>
	<unicode hex="0070"/>
	<guideline x="150" y="374" angle="72"/>
	<anchor x="337" y="440" name="top"/>
	<anchor x="177" y="0" name="bottom"/>
	<outline>
		<contour>
			<point x="-118" y="-256" type="line"/>
			<point x="-126" y="-280" type="line"/>
			<point x="80" y="-280" type="line"/>
			<point x="87" y="-256" type="line"/>
			<point x="53" y="-256" type="line" smooth="yes"/>
			<point x="21" y="-256"/>
			<point x="21" y="-243"/>
			<point x="34" y="-201" type="curve"/>
			<point x="136" y="120" type="line"/>
			<point x="120" y="118" type="line"/>
			<point x="119" y="33"/>
			<point x="163" y="-14"/>
			<point x="224" y="-14" type="curve"/>
			<point x="351" y="-14"/>
			<point x="494" y="130"/>
			<point x="494" y="300" type="curve"/>
			<point x="494" y="391"/>
			<point x="442" y="454"/>
			<point x="361" y="454" type="curve"/>
			<point x="331" y="454"/>
			<point x="294" y="442"/>
			<point x="256" y="413" type="curve"/>
			<point x="239" y="400"/>
			<point x="222" y="383"/>
			<point x="205" y="361" type="curve"/>
			<point x="224" y="443" type="line"/>
			<point x="90" y="440" type="line"/>
			<point x="82" y="416" type="line"/>
			<point x="120" y="416"/>
			<point x="151" y="420"/>
			<point x="151" y="386" type="curve"/>
			<point x="151" y="376"/>
			<point x="148" y="363"/>
			<point x="142" y="345" type="curve"/>
			<point x="-37" y="-200" type="line" smooth="yes"/>
			<point x="-53" y="-249"/>
			<point x="-65" y="-256"/>
			<point x="-94" y="-256" type="curve"/>
		</contour>
		<contour>
			<point x="223" y="12" type="curve"/>
			<point x="173" y="12"/>
			<point x="142" y="48"/>
			<point x="142" y="112" type="curve"/>
			<point x="142" y="142"/>
			<point x="149" y="179"/>
			<point x="164" y="221" type="curve"/>
			<point x="183" y="274" type="line" smooth="yes"/>
			<point x="214" y="357"/>
			<point x="287" y="427"/>
			<point x="345" y="427" type="curve"/>
			<point x="389" y="427"/>
			<point x="419" y="395"/>
			<point x="419" y="320" type="curve"/>
			<point x="419" y="182"/>
			<point x="320" y="12"/>
		</contour>
	</outline>
</glyph>
<glyph name="q" format="1">
  <advance width="508"/>
  <unicode hex="0071"/>
  <outline>
    <contour>
      <point x="117" y="-280" type="line"/>
      <point x="343" y="-280" type="line"/>
      <point x="350" y="-256" type="line"/>
      <point x="316" y="-256" type="line" smooth="yes"/>
      <point x="286" y="-256"/>
      <point x="285" y="-237"/>
      <point x="297" y="-201" type="curve" smooth="yes"/>
      <point x="507" y="440" type="line"/>
      <point x="437" y="440" type="line"/>
      <point x="404" y="329" type="line"/>
      <point x="417" y="334" type="line"/>
      <point x="415" y="403"/>
      <point x="385" y="454"/>
      <point x="319" y="454" type="curve" smooth="yes"/>
      <point x="189" y="454"/>
      <point x="27" y="296"/>
      <point x="27" y="127" type="curve" smooth="yes"/>
      <point x="27" y="52"/>
      <point x="68" y="-14"/>
      <point x="162" y="-14" type="curve" smooth="yes"/>
      <point x="225" y="-14"/>
      <point x="281" y="26"/>
      <point x="325" y="93" type="curve"/>
      <point x="328" y="109" type="line"/>
      <point x="226" y="-200" type="line" smooth="yes"/>
      <point x="212" y="-242"/>
      <point x="186" y="-256"/>
      <point x="155" y="-256" type="curve" smooth="yes"/>
      <point x="125" y="-256" type="line"/>
    </contour>
    <contour>
      <point x="172" y="12" type="curve" smooth="yes"/>
      <point x="129" y="12"/>
      <point x="102" y="44"/>
      <point x="102" y="107" type="curve" smooth="yes"/>
      <point x="102" y="242"/>
      <point x="219" y="428"/>
      <point x="325" y="428" type="curve" smooth="yes"/>
      <point x="372" y="428"/>
      <point x="394" y="390"/>
      <point x="394" y="336" type="curve" smooth="yes"/>
      <point x="394" y="306"/>
      <point x="387" y="270"/>
      <point x="374" y="234" type="curve" smooth="yes"/>
      <point x="327" y="103"/>
      <point x="253" y="12"/>
    </contour>
    <contour>
      <point x="185" y="0" type="move" name="bottom"/>
    </contour>
    <contour>
      <point x="335" y="440" type="move" name="top"/>
    </contour>
  </outline>
</glyph>
<glyph name="r" format="1">
  <advance width="390"/>
  <unicode hex="0072"/>
  <outline>
    <contour>
      <point x="9" y="0" type="line"/>
      <point x="81" y="0" type="line"/>
      <point x="147" y="182" type="line" smooth="yes"/>
      <point x="172" y="250"/>
      <point x="198" y="301"/>
      <point x="221" y="338" type="curve" smooth="yes"/>
      <point x="255" y="392"/>
      <point x="283" y="415"/>
      <point x="309" y="415" type="curve" smooth="yes"/>
      <point x="327" y="415"/>
      <point x="335" y="405"/>
      <point x="339" y="385" type="curve" smooth="yes"/>
      <point x="345" y="356"/>
      <point x="357" y="342"/>
      <point x="383" y="342" type="curve" smooth="yes"/>
      <point x="413" y="342"/>
      <point x="425" y="367"/>
      <point x="425" y="387" type="curve" smooth="yes"/>
      <point x="425" y="433"/>
      <point x="383" y="454"/>
      <point x="349" y="454" type="curve" smooth="yes"/>
      <point x="274" y="454"/>
      <point x="219" y="380"/>
      <point x="176" y="296" type="curve"/>
      <point x="220" y="443" type="line"/>
      <point x="83" y="440" type="line"/>
      <point x="75" y="416" type="line"/>
      <point x="138" y="416"/>
      <point x="157" y="410"/>
      <point x="133" y="344" type="curve" smooth="yes"/>
    </contour>
    <contour>
      <point x="39" y="0" type="move" name="bottom"/>
    </contour>
    <contour>
      <point x="263" y="440" type="move" name="top"/>
    </contour>
  </outline>
</glyph>
<glyph name="s" format="2">
	<advance width="363"/>
	<unicode hex="0073"/>
	<anchor x="239" y="440" name="top"/>
	<anchor x="139" y="0" name="bottom"/>
	<outline>
		<contour>
			<point x="136" y="-14" type="curve"/>
			<point x="228" y="-14"/>
			<point x="292" y="56"/>
			<point x="292" y="124" type="curve"/>
			<point x="292" y="181"/>
			<point x="260" y="213"/>
			<point x="235" y="238" type="curve"/>
			<point x="197" y="278" type="line" smooth="yes"/>
			<point x="173" y="304"/>
			<point x="163" y="330"/>
			<point x="163" y="357" type="curve"/>
			<point x="163" y="396"/>
			<point x="192" y="432"/>
			<point x="241" y="432" type="curve"/>
			<point x="288" y="432"/>
			<point x="281" y="393"/>
			<point x="281" y="371" type="curve"/>
			<point x="281" y="345"/>
			<point x="300" y="334"/>
			<point x="316" y="334" type="curve"/>
			<point x="343" y="334"/>
			<point x="360" y="355"/>
			<point x="360" y="380" type="curve"/>
			<point x="360" y="407"/>
			<point x="339" y="454"/>
			<point x="242" y="454" type="curve"/>
			<point x="150" y="454"/>
			<point x="106" y="388"/>
			<point x="106" y="327" type="curve"/>
			<point x="106" y="289"/>
			<point x="120" y="249"/>
			<point x="150" y="217" type="curve"/>
			<point x="187" y="178" type="line" smooth="yes"/>
			<point x="216" y="144"/>
			<point x="225" y="127"/>
			<point x="225" y="96" type="curve"/>
			<point x="225" y="56"/>
			<point x="192" y="8"/>
			<point x="131" y="8" type="curve"/>
			<point x="94" y="8"/>
			<point x="67" y="28"/>
			<point x="67" y="55" type="curve"/>
			<point x="67" y="78"/>
			<point x="81" y="90"/>
			<point x="81" y="112" type="curve"/>
			<point x="81" y="132"/>
			<point x="67" y="147"/>
			<point x="46" y="147" type="curve"/>
			<point x="15" y="147"/>
			<point x="-2" y="124"/>
			<point x="-2" y="93" type="curve"/>
			<point x="-2" y="50"/>
			<point x="32" y="-14"/>
		</contour>
	</outline>
</glyph>
<glyph name="t" format="2">
	<advance width="308"/>
	<unicode hex="0074"/>
	<anchor x="180" y="256" name="center"/>
	<anchor x="224" y="440" name="top"/>
	<anchor x="263" y="440" name="topright"/>
	<anchor x="114" y="0" name="bottom"/>
	<outline>
		<contour>
			<point x="102" y="-14" type="curve"/>
			<point x="167" y="-14"/>
			<point x="210" y="31"/>
			<point x="235" y="72" type="curve"/>
			<point x="217" y="84" type="line"/>
			<point x="200" y="55"/>
			<point x="169" y="19"/>
			<point x="139" y="19" type="curve"/>
			<point x="124" y="19"/>
			<point x="115" y="28"/>
			<point x="115" y="46" type="curve"/>
			<point x="115" y="55"/>
			<point x="118" y="67"/>
			<point x="123" y="82" type="curve"/>
			<point x="279" y="526" type="line"/>
			<point x="212" y="526" type="line"/>
			<point x="62" y="110" type="line" smooth="yes"/>
			<point x="53" y="85"/>
			<point x="47" y="61"/>
			<point x="47" y="42" type="curve"/>
			<point x="47" y="9"/>
			<point x="63" y="-14"/>
		</contour>
		<contour>
			<point x="115" y="440" type="line"/>
			<point x="107" y="416" type="line"/>
			<point x="333" y="416" type="line"/>
			<point x="341" y="440" type="line"/>
		</contour>
	</outline>
</glyph>
<glyph name="u" format="2">
	<advance width="533"/>
	<unicode hex="0075"/>
	<guideline x="308" y="539" angle="70"/>
	<guideline x="232" y="540" angle="70"/>
	<guideline x="558" y="522" angle="70"/>
	<guideline x="488" y="522" angle="70"/>
	<anchor x="429" y="0" name="ogonek"/>
	<anchor x="321" y="440" name="top"/>
	<anchor x="499" y="440" name="topright"/>
	<anchor x="187" y="0" name="bottom"/>
	<outline>
		<contour>
			<point x="139" y="-14" type="curve"/>
			<point x="218" y="-14"/>
			<point x="284" y="45"/>
			<point x="327" y="107" type="curve"/>
			<point x="322" y="113" type="line"/>
			<point x="313" y="87"/>
			<point x="307" y="61"/>
			<point x="307" y="41" type="curve"/>
			<point x="307" y="8"/>
			<point x="322" y="-14"/>
			<point x="363" y="-14" type="curve"/>
			<point x="420" y="-14"/>
			<point x="460" y="33"/>
			<point x="485" y="75" type="curve"/>
			<point x="467" y="87" type="line"/>
			<point x="450" y="57"/>
			<point x="419" y="19"/>
			<point x="390" y="19" type="curve"/>
			<point x="379" y="19"/>
			<point x="374" y="26"/>
			<point x="374" y="39" type="curve"/>
			<point x="374" y="50"/>
			<point x="378" y="65"/>
			<point x="384" y="85" type="curve"/>
			<point x="509" y="440" type="line"/>
			<point x="443" y="440" type="line"/>
			<point x="348" y="186" type="line" smooth="yes"/>
			<point x="318" y="107"/>
			<point x="225" y="11"/>
			<point x="158" y="11" type="curve"/>
			<point x="115" y="11"/>
			<point x="108" y="51"/>
			<point x="129" y="108" type="curve"/>
			<point x="249" y="443" type="line"/>
			<point x="85" y="440" type="line"/>
			<point x="78" y="416" type="line"/>
			<point x="115" y="416"/>
			<point x="153" y="419"/>
			<point x="153" y="383" type="curve"/>
			<point x="153" y="373"/>
			<point x="151" y="361"/>
			<point x="145" y="346" type="curve"/>
			<point x="66" y="137" type="line" smooth="yes"/>
			<point x="27" y="35"/>
			<point x="54" y="-14"/>
		</contour>
	</outline>
</glyph>
<glyph name="v" format="2">
	<advance width="483"/>
	<unicode hex="0076"/>
	<guideline x="170" y="286" angle="249.5863"/>
	<anchor x="306" y="440" name="top"/>
	<anchor x="146" y="0" name="bottom"/>
	<outline>
		<contour>
			<point x="175" y="-11" type="curve"/>
			<point x="192" y="-11" type="line"/>
			<point x="370" y="192" type="line" smooth="yes"/>
			<point x="431" y="261"/>
			<point x="481" y="318"/>
			<point x="481" y="379" type="curve"/>
			<point x="481" y="426"/>
			<point x="456" y="454"/>
			<point x="425" y="454" type="curve"/>
			<point x="398" y="454"/>
			<point x="379" y="431"/>
			<point x="379" y="413" type="curve"/>
			<point x="379" y="389"/>
			<point x="408" y="367"/>
			<point x="408" y="322" type="curve"/>
			<point x="408" y="288"/>
			<point x="383" y="241"/>
			<point x="340" y="193" type="curve"/>
			<point x="205" y="36" type="line"/>
			<point x="226" y="37" type="line"/>
			<point x="200" y="121" type="line" smooth="yes"/>
			<point x="177" y="199"/>
			<point x="161" y="254"/>
			<point x="161" y="309" type="curve"/>
			<point x="161" y="390"/>
			<point x="218" y="415"/>
			<point x="252" y="431" type="curve"/>
			<point x="247" y="448" type="line"/>
			<point x="95" y="440" type="line"/>
			<point x="86" y="416" type="line"/>
			<point x="210" y="423" type="line"/>
			<point x="198" y="427" type="line"/>
			<point x="130" y="387"/>
			<point x="78" y="344"/>
			<point x="78" y="274" type="curve"/>
			<point x="78" y="231"/>
			<point x="95" y="192"/>
			<point x="115" y="148" type="curve"/>
			<point x="136" y="102"/>
			<point x="162" y="51"/>
		</contour>
	</outline>
</glyph>
<glyph name="x" format="2">
	<advance width="553"/>
	<unicode hex="0078"/>
	<guideline x="417" y="286" angle="249.5863"/>
	<anchor x="357" y="440" name="top"/>
	<anchor x="197" y="0" name="bottom"/>
	<outline>
		<contour>
			<point x="77" y="-11" type="curve"/>
			<point x="142" y="-11"/>
			<point x="207" y="36"/>
			<point x="255" y="107" type="curve"/>
			<point x="292" y="163"/>
			<point x="322" y="235"/>
			<point x="322" y="310" type="curve"/>
			<point x="322" y="396"/>
			<point x="290" y="454"/>
			<point x="217" y="454" type="curve"/>
			<point x="148" y="454"/>
			<point x="97" y="405"/>
			<point x="70" y="346" type="curve"/>
			<point x="86" y="334" type="line"/>
			<point x="108" y="384"/>
			<point x="154" y="424"/>
			<point x="199" y="424" type="curve"/>
			<point x="247" y="424"/>
			<point x="252" y="370"/>
			<point x="252" y="317" type="curve"/>
			<point x="252" y="165"/>
			<point x="162" y="11"/>
			<point x="91" y="11" type="curve"/>
			<point x="55" y="11"/>
			<point x="62" y="44"/>
			<point x="62" y="70" type="curve"/>
			<point x="62" y="98"/>
			<point x="50" y="116"/>
			<point x="23" y="116" type="curve"/>
			<point x="-7" y="116"/>
			<point x="-24" y="91"/>
			<point x="-24" y="65" type="curve"/>
			<point x="-24" y="38"/>
			<point x="-8" y="-11"/>
		</contour>
		<contour>
			<point x="342" y="-11" type="curve"/>
			<point x="406" y="-11"/>
			<point x="456" y="37"/>
			<point x="484" y="94" type="curve"/>
			<point x="467" y="106" type="line"/>
			<point x="446" y="58"/>
			<point x="398" y="19"/>
			<point x="355" y="19" type="curve"/>
			<point x="313" y="19"/>
			<point x="299" y="66"/>
			<point x="299" y="127" type="curve"/>
			<point x="299" y="135"/>
			<point x="300" y="143"/>
			<point x="300" y="152" type="curve"/>
			<point x="308" y="276"/>
			<point x="395" y="432"/>
			<point x="463" y="432" type="curve"/>
			<point x="499" y="432"/>
			<point x="492" y="402"/>
			<point x="492" y="367" type="curve"/>
			<point x="492" y="349"/>
			<point x="502" y="327"/>
			<point x="533" y="327" type="curve"/>
			<point x="559" y="327"/>
			<point x="578" y="349"/>
			<point x="578" y="381" type="curve"/>
			<point x="578" y="405"/>
			<point x="561" y="454"/>
			<point x="477" y="454" type="curve"/>
			<point x="418" y="454"/>
			<point x="357" y="412"/>
			<point x="308" y="347" type="curve"/>
			<point x="289" y="322"/>
			<point x="231" y="127"/>
			<point x="234" y="101" type="curve"/>
			<point x="244" y="40"/>
			<point x="275" y="-11"/>
		</contour>
	</outline>
</glyph>
<glyph name="y" format="2">
	<advance width="481"/>
	<unicode hex="0079"/>
	<anchor x="300" y="440" name="top"/>
	<anchor x="215" y="0" name="bottom"/>
	<outline>
		<contour>
			<point x="-55" y="-290" type="curve"/>
			<point x="28" y="-290"/>
			<point x="84" y="-259"/>
			<point x="203" y="-110" type="curve"/>
			<point x="345" y="66" type="line" smooth="yes"/>
			<point x="440" y="185"/>
			<point x="462" y="277"/>
			<point x="462" y="354" type="curve"/>
			<point x="462" y="426"/>
			<point x="432" y="454"/>
			<point x="406" y="454" type="curve"/>
			<point x="378" y="454"/>
			<point x="359" y="426"/>
			<point x="359" y="409" type="curve"/>
			<point x="359" y="388"/>
			<point x="372" y="377"/>
			<point x="387" y="362" type="curve"/>
			<point x="408" y="341"/>
			<point x="415" y="319"/>
			<point x="415" y="290" type="curve"/>
			<point x="415" y="257"/>
			<point x="413" y="186"/>
			<point x="317" y="66" type="curve"/>
			<point x="251" y="-17" type="line"/>
			<point x="276" y="-3" type="line"/>
			<point x="229" y="112" type="line" smooth="yes"/>
			<point x="204" y="173"/>
			<point x="166" y="253"/>
			<point x="166" y="316" type="curve"/>
			<point x="166" y="364"/>
			<point x="185" y="398"/>
			<point x="253" y="431" type="curve"/>
			<point x="248" y="448" type="line"/>
			<point x="95" y="440" type="line"/>
			<point x="87" y="416" type="line"/>
			<point x="218" y="423" type="line"/>
			<point x="209" y="433" type="line"/>
			<point x="144" y="394"/>
			<point x="84" y="356"/>
			<point x="84" y="278" type="curve"/>
			<point x="84" y="222"/>
			<point x="123" y="160"/>
			<point x="160" y="101" type="curve"/>
			<point x="190" y="54"/>
			<point x="215" y="9"/>
			<point x="215" y="-31" type="curve"/>
			<point x="215" y="-61"/>
			<point x="197" y="-89"/>
			<point x="175" y="-112" type="curve"/>
			<point x="93" y="-199" type="line" smooth="yes"/>
			<point x="72" y="-222"/>
			<point x="49" y="-234"/>
			<point x="29" y="-234" type="curve"/>
			<point x="-17" y="-234"/>
			<point x="-35" y="-189"/>
			<point x="-73" y="-189" type="curve"/>
			<point x="-102" y="-189"/>
			<point x="-126" y="-208"/>
			<point x="-126" y="-238" type="curve"/>
			<point x="-126" y="-268"/>
			<point x="-98" y="-290"/>
		</contour>
	</outline>
</glyph>
<glyph name="bar" format="2">
	<advance width="213"/>
	<unicode hex="007C"/>
	<outline>
		<contour>
			<point x="293" y="834" type="line"/>
			<point x="-21" y="-135" type="line"/>
			<point x="14" y="-135" type="line"/>
			<point x="328" y="834" type="line"/>
		</contour>
	</outline>
</glyph>
<glyph name="exclamdown" format="1">
  <advance width="264"/>
  <unicode hex="00A1"/>
  <note>
    exclamdown
  </note>
  <outline>
    <contour>
      <point x="76" y="-4" type="curve"/>
      <point x="106" y="-4"/>
      <point x="132" y="10"/>
      <point x="143" y="55" type="curve" smooth="yes"/>
      <point x="253" y="505" type="line"/>
      <point x="226" y="515" type="line"/>
      <point x="42" y="75" type="line" smooth="yes"/>
      <point x="37" y="62"/>
      <point x="34" y="50"/>
      <point x="34" y="41" type="curve" smooth="yes"/>
      <point x="34" y="11"/>
      <point x="56" y="-3"/>
    </contour>
    <contour>
      <point x="284" y="606" type="curve" smooth="yes"/>
      <point x="319" y="606"/>
      <point x="343" y="634"/>
      <point x="343" y="665" type="curve" smooth="yes"/>
      <point x="343" y="697"/>
      <point x="318" y="723"/>
      <point x="284" y="724" type="curve" smooth="yes"/>
      <point x="252" y="724"/>
      <point x="226" y="698"/>
      <point x="225" y="665" type="curve" smooth="yes"/>
      <point x="225" y="633"/>
      <point x="251" y="606"/>
    </contour>
  </outline>
</glyph>
<glyph name="currency" format="2">
	<advance width="559"/>
	<unicode hex="00A4"/>
	<outline>
		<contour>
			<point x="333" y="197" type="curve"/>
			<point x="428" y="197"/>
			<point x="502" y="271"/>
			<point x="502" y="366" type="curve"/>
			<point x="502" y="461"/>
			<point x="428" y="535"/>
			<point x="333" y="535" type="curve"/>
			<point x="237" y="535"/>
			<point x="163" y="461"/>
			<point x="163" y="366" type="curve"/>
			<point x="163" y="271"/>
			<point x="237" y="197"/>
		</contour>
		<contour>
			<point x="150" y="209" type="line"/>
			<point x="176" y="183" type="line"/>
			<point x="253" y="260" type="line"/>
			<point x="227" y="286" type="line"/>
		</contour>
		<contour>
			<point x="333" y="237" type="curve"/>
			<point x="260" y="237"/>
			<point x="203" y="293"/>
			<point x="203" y="366" type="curve"/>
			<point x="203" y="439"/>
			<point x="260" y="495"/>
			<point x="333" y="495" type="curve"/>
			<point x="406" y="495"/>
			<point x="462" y="439"/>
			<point x="462" y="366" type="curve"/>
			<point x="462" y="293"/>
			<point x="406" y="237"/>
		</contour>
		<contour>
			<point x="414" y="259" type="line"/>
			<point x="490" y="183" type="line"/>
			<point x="515" y="209" type="line"/>
			<point x="439" y="285" type="line"/>
		</contour>
		<contour>
			<point x="150" y="523" type="line"/>
			<point x="225" y="448" type="line"/>
			<point x="251" y="473" type="line"/>
			<point x="175" y="549" type="line"/>
		</contour>
		<contour>
			<point x="414" y="473" type="line"/>
			<point x="439" y="447" type="line"/>
			<point x="515" y="523" type="line"/>
			<point x="490" y="548" type="line"/>
		</contour>
	</outline>
</glyph>
<glyph name="brokenbar" format="2">
	<advance width="213"/>
	<unicode hex="00A6"/>
	<outline>
		<contour>
			<point x="293" y="834" type="line"/>
			<point x="152" y="400" type="line"/>
			<point x="187" y="400" type="line"/>
			<point x="328" y="834" type="line"/>
		</contour>
		<contour>
			<point x="120" y="299" type="line"/>
			<point x="-21" y="-135" type="line"/>
			<point x="14" y="-135" type="line"/>
			<point x="155" y="299" type="line"/>
		</contour>
	</outline>
</glyph>
<glyph name="dieresis" format="2">
	<advance width="400"/>
	<unicode hex="00A8"/>
	<outline>
		<contour>
			<point x="245" y="557" type="curve"/>
			<point x="271" y="557"/>
			<point x="293" y="580"/>
			<point x="293" y="607" type="curve"/>
			<point x="293" y="632"/>
			<point x="271" y="655"/>
			<point x="245" y="655" type="curve"/>
			<point x="216" y="655"/>
			<point x="195" y="632"/>
			<point x="195" y="607" type="curve"/>
			<point x="195" y="580"/>
			<point x="216" y="557"/>
		</contour>
		<contour>
			<point x="439" y="557" type="curve"/>
			<point x="465" y="557"/>
			<point x="487" y="580"/>
			<point x="487" y="607" type="curve"/>
			<point x="487" y="632"/>
			<point x="465" y="655"/>
			<point x="439" y="655" type="curve"/>
			<point x="410" y="655"/>
			<point x="389" y="632"/>
			<point x="389" y="607" type="curve"/>
			<point x="389" y="580"/>
			<point x="410" y="557"/>
		</contour>
	</outline>
</glyph>
<glyph name="copyright" format="2">
	<advance width="886"/>
	<unicode hex="00A9"/>
	<guideline x="494" y="703" angle="90"/>
	<outline>
		<contour>
			<point x="494" y="-11" type="curve"/>
			<point x="716" y="-11"/>
			<point x="860" y="153"/>
			<point x="860" y="357" type="curve"/>
			<point x="860" y="560"/>
			<point x="706" y="724"/>
			<point x="494" y="724" type="curve"/>
			<point x="279" y="724"/>
			<point x="125" y="560"/>
			<point x="125" y="357" type="curve"/>
			<point x="125" y="153"/>
			<point x="279" y="-11"/>
		</contour>
		<contour>
			<point x="502" y="167" type="curve"/>
			<point x="558" y="167"/>
			<point x="627" y="193"/>
			<point x="652" y="272" type="curve"/>
			<point x="628" y="281" type="line"/>
			<point x="611" y="228"/>
			<point x="565" y="196"/>
			<point x="517" y="196" type="curve"/>
			<point x="437" y="196"/>
			<point x="387" y="257"/>
			<point x="387" y="358" type="curve"/>
			<point x="387" y="448"/>
			<point x="432" y="521"/>
			<point x="514" y="521" type="curve"/>
			<point x="565" y="521"/>
			<point x="612" y="488"/>
			<point x="623" y="421" type="curve"/>
			<point x="642" y="421" type="line"/>
			<point x="640" y="482" type="line"/>
			<point x="642" y="543" type="line"/>
			<point x="626" y="543" type="line"/>
			<point x="624" y="528"/>
			<point x="620" y="523"/>
			<point x="612" y="523" type="curve"/>
			<point x="599" y="523"/>
			<point x="565" y="550"/>
			<point x="502" y="550" type="curve"/>
			<point x="389" y="550"/>
			<point x="306" y="468"/>
			<point x="306" y="358" type="curve"/>
			<point x="306" y="246"/>
			<point x="380" y="167"/>
		</contour>
		<contour>
			<point x="494" y="28" type="curve"/>
			<point x="303" y="28"/>
			<point x="167" y="179"/>
			<point x="167" y="357" type="curve"/>
			<point x="167" y="534"/>
			<point x="303" y="685"/>
			<point x="494" y="685" type="curve"/>
			<point x="682" y="685"/>
			<point x="818" y="534"/>
			<point x="818" y="357" type="curve"/>
			<point x="818" y="179"/>
			<point x="692" y="28"/>
		</contour>
	</outline>
</glyph>
<glyph name="logicalnot" format="1">
  <advance width="574"/>
  <unicode hex="00AC"/>
  <outline>
    <contour>
      <point x="486" y="247" type="line"/>
      <point x="525" y="247" type="line"/>
      <point x="595" y="441" type="line"/>
      <point x="556" y="441" type="line"/>
    </contour>
    <contour>
      <point x="127" y="402" type="line"/>
      <point x="581" y="402" type="line"/>
      <point x="595" y="441" type="line"/>
      <point x="141" y="441" type="line"/>
    </contour>
  </outline>
</glyph>
<glyph name="registered" format="2">
	<advance width="885"/>
	<unicode hex="00AE"/>
	<anchor x="494" y="539" name="top"/>
	<anchor x="494" y="179" name="bottom"/>
	<outline>
		<contour>
			<point x="494" y="-11" type="curve"/>
			<point x="706" y="-11"/>
			<point x="860" y="153"/>
			<point x="860" y="357" type="curve"/>
			<point x="860" y="560"/>
			<point x="706" y="724"/>
			<point x="494" y="724" type="curve"/>
			<point x="279" y="724"/>
			<point x="125" y="560"/>
			<point x="125" y="357" type="curve"/>
			<point x="125" y="153"/>
			<point x="279" y="-11"/>
		</contour>
		<contour>
			<point x="494" y="28" type="curve"/>
			<point x="303" y="28"/>
			<point x="167" y="179"/>
			<point x="167" y="357" type="curve"/>
			<point x="167" y="534"/>
			<point x="303" y="685"/>
			<point x="494" y="685" type="curve"/>
			<point x="682" y="685"/>
			<point x="818" y="534"/>
			<point x="818" y="357" type="curve"/>
			<point x="818" y="179"/>
			<point x="682" y="28"/>
		</contour>
		<contour>
			<point x="636" y="173" type="curve"/>
			<point x="657" y="173"/>
			<point x="679" y="180"/>
			<point x="691" y="185" type="curve"/>
			<point x="688" y="204" type="line"/>
			<point x="671" y="202" type="line" smooth="yes"/>
			<point x="653" y="200"/>
			<point x="639" y="219"/>
			<point x="629" y="268" type="curve"/>
			<point x="621" y="321"/>
			<point x="580" y="351"/>
			<point x="522" y="355" type="curve"/>
			<point x="581" y="363"/>
			<point x="633" y="388"/>
			<point x="633" y="451" type="curve"/>
			<point x="633" y="519"/>
			<point x="561" y="539"/>
			<point x="480" y="539" type="curve"/>
			<point x="402" y="539" type="line"/>
			<point x="320" y="541" type="line"/>
			<point x="319" y="523" type="line"/>
			<point x="330" y="521" type="line"/>
			<point x="369" y="517"/>
			<point x="379" y="517"/>
			<point x="379" y="472" type="curve"/>
			<point x="378" y="247" type="line" smooth="yes"/>
			<point x="378" y="202"/>
			<point x="369" y="201"/>
			<point x="330" y="197" type="curve"/>
			<point x="319" y="196" type="line"/>
			<point x="319" y="177" type="line"/>
			<point x="410" y="179" type="line"/>
			<point x="503" y="177" type="line"/>
			<point x="503" y="196" type="line"/>
			<point x="492" y="197" type="line" smooth="yes"/>
			<point x="450" y="201"/>
			<point x="440" y="202"/>
			<point x="440" y="247" type="curve"/>
			<point x="440" y="351" type="line"/>
			<point x="450" y="351" type="line" smooth="yes"/>
			<point x="547" y="349"/>
			<point x="562" y="292"/>
			<point x="571" y="239" type="curve"/>
			<point x="576" y="202"/>
			<point x="595" y="173"/>
		</contour>
		<contour>
			<point x="473" y="372" type="curve"/>
			<point x="440" y="372" type="line"/>
			<point x="440" y="519" type="line"/>
			<point x="481" y="519" type="line" smooth="yes"/>
			<point x="540" y="519"/>
			<point x="560" y="493"/>
			<point x="560" y="448" type="curve"/>
			<point x="560" y="397"/>
			<point x="538" y="372"/>
		</contour>
	</outline>
</glyph>
<glyph name="macron" format="2">
	<advance width="322"/>
	<unicode hex="00AF"/>
	<outline>
		<contour>
			<point x="193" y="621" type="line"/>
			<point x="179" y="581" type="line"/>
			<point x="406" y="581" type="line"/>
			<point x="420" y="621" type="line"/>
		</contour>
	</outline>
</glyph>
<glyph name="acute" format="2">
	<advance width="218"/>
	<unicode hex="00B4"/>
	<outline>
		<contour>
			<point x="212" y="664" type="curve"/>
			<point x="170" y="520" type="line"/>
			<point x="192" y="520" type="line"/>
			<point x="260" y="615" type="line" smooth="yes"/>
			<point x="285" y="651"/>
			<point x="289" y="668"/>
			<point x="289" y="684" type="curve"/>
			<point x="289" y="703"/>
			<point x="279" y="719"/>
			<point x="259" y="719" type="curve"/>
			<point x="232" y="719"/>
			<point x="221" y="696"/>
		</contour>
	</outline>
</glyph>
<glyph name="paragraph" format="2">
	<advance width="574"/>
	<unicode hex="00B6"/>
	<outline>
		<contour>
			<point x="316" y="329" type="curve"/>
			<point x="147" y="-186" type="line"/>
			<point x="189" y="-186" type="line"/>
			<point x="472" y="676" type="line"/>
			<point x="562" y="676" type="line"/>
			<point x="279" y="-186" type="line"/>
			<point x="320" y="-186" type="line"/>
			<point x="583" y="607" type="line" smooth="yes"/>
			<point x="606" y="677"/>
			<point x="653" y="683"/>
			<point x="716" y="688" type="curve"/>
			<point x="724" y="713" type="line"/>
			<point x="510" y="710" type="line"/>
			<point x="419" y="712" type="line" smooth="yes"/>
			<point x="266" y="715"/>
			<point x="132" y="597"/>
			<point x="132" y="455" type="curve"/>
			<point x="132" y="372"/>
			<point x="199" y="329"/>
		</contour>
	</outline>
</glyph>
<glyph name="multiply" format="1">
  <advance width="505"/>
  <unicode hex="00D7"/>
  <outline>
    <contour>
      <point x="41" y="109" type="line"/>
      <point x="551" y="483" type="line"/>
      <point x="531" y="513" type="line"/>
      <point x="21" y="139" type="line"/>
    </contour>
    <contour>
      <point x="395" y="110" type="line"/>
      <point x="423" y="133" type="line"/>
      <point x="305" y="320" type="line"/>
      <point x="276" y="297" type="line"/>
    </contour>
    <contour>
      <point x="271" y="305" type="line"/>
      <point x="300" y="327" type="line"/>
      <point x="182" y="512" type="line"/>
      <point x="154" y="489" type="line"/>
    </contour>
  </outline>
</glyph>
<glyph name="germandbls" format="2">
	<advance width="593"/>
	<unicode hex="00DF"/>
	<outline>
		<contour>
			<point x="342" y="-14" type="curve"/>
			<point x="464" y="-14"/>
			<point x="550" y="62"/>
			<point x="550" y="157" type="curve"/>
			<point x="550" y="233"/>
			<point x="506" y="277"/>
			<point x="473" y="317" type="curve"/>
			<point x="451" y="343"/>
			<point x="431" y="363"/>
			<point x="431" y="399" type="curve"/>
			<point x="431" y="449"/>
			<point x="473" y="477"/>
			<point x="508" y="502" type="curve"/>
			<point x="556" y="543"/>
			<point x="618" y="572"/>
			<point x="618" y="638" type="curve"/>
			<point x="618" y="687"/>
			<point x="569" y="724"/>
			<point x="493" y="724" type="curve"/>
			<point x="379" y="724"/>
			<point x="285" y="675"/>
			<point x="220" y="498" type="curve"/>
			<point x="82" y="121" type="line" smooth="yes"/>
			<point x="49" y="31"/>
			<point x="35" y="30"/>
			<point x="-26" y="22" type="curve"/>
			<point x="-42" y="20" type="line"/>
			<point x="-51" y="-3" type="line"/>
			<point x="73" y="0" type="line"/>
			<point x="119" y="0" type="line"/>
			<point x="126" y="33"/>
			<point x="133" y="65"/>
			<point x="153" y="121" type="curve"/>
			<point x="308" y="550" type="line"/>
			<point x="338" y="633"/>
			<point x="391" y="701"/>
			<point x="470" y="701" type="curve"/>
			<point x="511" y="701"/>
			<point x="540" y="681"/>
			<point x="540" y="620" type="curve"/>
			<point x="540" y="567"/>
			<point x="496" y="525"/>
			<point x="475" y="509" type="curve"/>
			<point x="425" y="471"/>
			<point x="360" y="435"/>
			<point x="360" y="373" type="curve"/>
			<point x="360" y="324"/>
			<point x="399" y="293"/>
			<point x="430" y="258" type="curve"/>
			<point x="459" y="225"/>
			<point x="478" y="192"/>
			<point x="478" y="143" type="curve"/>
			<point x="478" y="65"/>
			<point x="425" y="8"/>
			<point x="341" y="8" type="curve"/>
			<point x="299" y="8"/>
			<point x="274" y="29"/>
			<point x="274" y="54" type="curve"/>
			<point x="274" y="78"/>
			<point x="289" y="88"/>
			<point x="289" y="114" type="curve"/>
			<point x="289" y="133"/>
			<point x="275" y="147"/>
			<point x="254" y="147" type="curve"/>
			<point x="219" y="147"/>
			<point x="205" y="118"/>
			<point x="205" y="84" type="curve"/>
			<point x="205" y="35"/>
			<point x="254" y="-14"/>
		</contour>
		<contour>
			<point x="111" y="440" type="line"/>
			<point x="103" y="416" type="line"/>
			<point x="209" y="416" type="line"/>
			<point x="217" y="440" type="line"/>
		</contour>
	</outline>
</glyph>
<glyph name="eth" format="1">
  <advance width="518"/>
  <unicode hex="00F0"/>
  <outline>
    <contour>
      <point x="196" y="-14" type="curve" smooth="yes"/>
      <point x="393" y="-14"/>
      <point x="504" y="202"/>
      <point x="504" y="384" type="curve" smooth="yes"/>
      <point x="504" y="522"/>
      <point x="420" y="659"/>
      <point x="322" y="724" type="curve"/>
      <point x="300" y="724" type="line"/>
      <point x="404" y="606"/>
      <point x="438" y="530"/>
      <point x="438" y="387" type="curve"/>
      <point x="449" y="394" type="line"/>
      <point x="423" y="430"/>
      <point x="378" y="454"/>
      <point x="318" y="454" type="curve" smooth="yes"/>
      <point x="168" y="454"/>
      <point x="36" y="308"/>
      <point x="36" y="149" type="curve" smooth="yes"/>
      <point x="36" y="62"/>
      <point x="89" y="-14"/>
    </contour>
    <contour>
      <point x="195" y="8" type="curve" smooth="yes"/>
      <point x="138" y="8"/>
      <point x="107" y="47"/>
      <point x="107" y="121" type="curve" smooth="yes"/>
      <point x="107" y="233"/>
      <point x="198" y="432"/>
      <point x="320" y="432" type="curve" smooth="yes"/>
      <point x="377" y="432"/>
      <point x="408" y="394"/>
      <point x="408" y="322" type="curve" smooth="yes"/>
      <point x="408" y="209"/>
      <point x="317" y="8"/>
    </contour>
    <contour>
      <point x="270" y="570" type="line"/>
      <point x="543" y="619" type="line"/>
      <point x="543" y="643" type="line"/>
      <point x="270" y="595" type="line"/>
    </contour>
    <contour>
      <point x="177" y="0" type="move" name="bottom"/>
    </contour>
    <contour>
      <point x="257" y="220" type="move" name="center"/>
    </contour>
    <contour>
      <point x="320" y="0" type="move" name="ogonek"/>
    </contour>
    <contour>
      <point x="321" y="440" type="move" name="top"/>
    </contour>
    <contour>
      <point x="531" y="440" type="move" name="topright"/>
    </contour>
  </outline>
</glyph>
<glyph name="idotless" format="1">
  <advance width="279"/>
  <unicode hex="0131"/>
  <outline>
    <contour>
      <point x="100" y="-14" type="curve" smooth="yes"/>
      <point x="157" y="-14"/>
      <point x="197" y="33"/>
      <point x="222" y="75" type="curve"/>
      <point x="204" y="87" type="line"/>
      <point x="187" y="57"/>
      <point x="156" y="19"/>
      <point x="127" y="19" type="curve" smooth="yes"/>
      <point x="116" y="19"/>
      <point x="111" y="26"/>
      <point x="111" y="39" type="curve" smooth="yes"/>
      <point x="111" y="50"/>
      <point x="115" y="65"/>
      <point x="121" y="85" type="curve" smooth="yes"/>
      <point x="247" y="443" type="line"/>
      <point x="85" y="440" type="line"/>
      <point x="78" y="416" type="line"/>
      <point x="116" y="416"/>
      <point x="154" y="418"/>
      <point x="154" y="382" type="curve" smooth="yes"/>
      <point x="154" y="373"/>
      <point x="151" y="361"/>
      <point x="146" y="347" type="curve" smooth="yes"/>
      <point x="59" y="113" type="line" smooth="yes"/>
      <point x="50" y="87"/>
      <point x="44" y="62"/>
      <point x="44" y="41" type="curve" smooth="yes"/>
      <point x="44" y="8"/>
      <point x="59" y="-14"/>
    </contour>
    <contour>
      <point x="65" y="0" type="move" name="bottom"/>
    </contour>
    <contour>
      <point x="176" y="0" type="move" name="ogonek"/>
    </contour>
    <contour>
      <point x="203" y="440" type="move" name="top"/>
    </contour>
  </outline>
</glyph>
<glyph name="Eng" format="2">
	<advance width="793"/>
	<unicode hex="014A"/>
	<anchor x="556" y="710" name="top"/>
	<anchor x="402" y="0" name="bottom"/>
	<outline>
		<contour>
			<point x="411" y="-294" type="curve"/>
			<point x="484" y="-294"/>
			<point x="513" y="-247"/>
			<point x="554" y="-136" type="curve"/>
			<point x="604" y="0" type="line"/>
			<point x="794" y="607" type="line" smooth="yes"/>
			<point x="814" y="673"/>
			<point x="839" y="680"/>
			<point x="901" y="686" type="curve"/>
			<point x="922" y="688" type="line"/>
			<point x="931" y="713" type="line"/>
			<point x="808" y="710" type="line"/>
			<point x="691" y="713" type="line"/>
			<point x="682" y="688" type="line"/>
			<point x="701" y="686" type="line" smooth="yes"/>
			<point x="752" y="681"/>
			<point x="771" y="676"/>
			<point x="772" y="653" type="curve"/>
			<point x="772" y="645"/>
			<point x="771" y="636"/>
			<point x="767" y="624" type="curve"/>
			<point x="574" y="0" type="line"/>
			<point x="526" y="-131" type="line" smooth="yes"/>
			<point x="487" y="-237"/>
			<point x="456" y="-262"/>
			<point x="429" y="-262" type="curve"/>
			<point x="385" y="-262"/>
			<point x="408" y="-174"/>
			<point x="349" y="-174" type="curve"/>
			<point x="321" y="-174"/>
			<point x="300" y="-194"/>
			<point x="300" y="-221" type="curve"/>
			<point x="300" y="-257"/>
			<point x="329" y="-294"/>
		</contour>
		<contour>
			<point x="-4" y="22" type="line"/>
			<point x="-13" y="-3" type="line"/>
			<point x="110" y="0" type="line"/>
			<point x="227" y="-3" type="line"/>
			<point x="236" y="22" type="line"/>
			<point x="217" y="24" type="line" smooth="yes"/>
			<point x="166" y="29"/>
			<point x="147" y="34"/>
			<point x="146" y="57" type="curve"/>
			<point x="146" y="64"/>
			<point x="147" y="71"/>
			<point x="150" y="81" type="curve"/>
			<point x="346" y="710" type="line"/>
			<point x="314" y="710" type="line"/>
			<point x="124" y="103" type="line" smooth="yes"/>
			<point x="104" y="40"/>
			<point x="79" y="30"/>
			<point x="17" y="24" type="curve"/>
		</contour>
		<contour>
			<point x="297" y="615" type="curve"/>
			<point x="574" y="0" type="line"/>
			<point x="624" y="94" type="line"/>
			<point x="346" y="710" type="line"/>
			<point x="318" y="655" type="line"/>
			<point x="328" y="710" type="line"/>
			<point x="211" y="713" type="line"/>
			<point x="202" y="688" type="line"/>
			<point x="233" y="685" type="line" smooth="yes"/>
			<point x="264" y="682"/>
			<point x="278" y="660"/>
		</contour>
	</outline>
</glyph>
<glyph name="eng" format="2">
	<advance width="507"/>
	<unicode hex="014B"/>
	<anchor x="323" y="440" name="top"/>
	<anchor x="183" y="0" name="bottom"/>
	<outline>
		<contour>
			<point x="120" y="-290" type="curve"/>
			<point x="207" y="-290"/>
			<point x="259" y="-247"/>
			<point x="301" y="-132" type="curve"/>
			<point x="472" y="331" type="line" smooth="yes"/>
			<point x="479" y="351"/>
			<point x="483" y="370"/>
			<point x="483" y="388" type="curve"/>
			<point x="483" y="426"/>
			<point x="462" y="454"/>
			<point x="396" y="454" type="curve"/>
			<point x="272" y="454"/>
			<point x="181" y="323"/>
			<point x="156" y="255" type="curve"/>
			<point x="179" y="257" type="line"/>
			<point x="206" y="329"/>
			<point x="301" y="429"/>
			<point x="377" y="429" type="curve"/>
			<point x="398" y="429"/>
			<point x="415" y="417"/>
			<point x="415" y="391" type="curve"/>
			<point x="415" y="381"/>
			<point x="413" y="370"/>
			<point x="408" y="356" type="curve"/>
			<point x="233" y="-127" type="line" smooth="yes"/>
			<point x="203" y="-210"/>
			<point x="173" y="-268"/>
			<point x="138" y="-268" type="curve"/>
			<point x="94" y="-268"/>
			<point x="117" y="-170"/>
			<point x="58" y="-170" type="curve"/>
			<point x="30" y="-170"/>
			<point x="9" y="-190"/>
			<point x="9" y="-217" type="curve"/>
			<point x="9" y="-253"/>
			<point x="38" y="-290"/>
		</contour>
		<component base="_part.fut" xOffset="-9"/>
	</outline>
</glyph>
<glyph name="OE" format="1">
  <advance width="1045"/>
  <unicode hex="0152"/>
  <outline>
    <contour>
      <point x="321" y="-14" type="curve" smooth="yes"/>
      <point x="389" y="-14"/>
      <point x="454" y="5"/>
      <point x="512" y="36" type="curve"/>
      <point x="477" y="99" type="line"/>
      <point x="456" y="43"/>
      <point x="387" y="16"/>
      <point x="325" y="16" type="curve" smooth="yes"/>
      <point x="223" y="16"/>
      <point x="164" y="87"/>
      <point x="164" y="210" type="curve" smooth="yes"/>
      <point x="164" y="445"/>
      <point x="353" y="691"/>
      <point x="549" y="691" type="curve" smooth="yes"/>
      <point x="607" y="691"/>
      <point x="668" y="672"/>
      <point x="668" y="633" type="curve" smooth="yes"/>
      <point x="668" y="628"/>
      <point x="667" y="623"/>
      <point x="665" y="617" type="curve"/>
      <point x="732" y="649" type="line"/>
      <point x="688" y="700"/>
      <point x="622" y="720"/>
      <point x="545" y="720" type="curve" smooth="yes"/>
      <point x="282" y="720"/>
      <point x="79" y="459"/>
      <point x="79" y="215" type="curve" smooth="yes"/>
      <point x="79" y="60"/>
      <point x="187" y="-14"/>
    </contour>
    <contour>
      <point x="419" y="0" type="line"/>
      <point x="952" y="0" type="line"/>
      <point x="976" y="74" type="line"/>
      <point x="1026" y="210" type="line"/>
      <point x="1000" y="210" type="line"/>
      <point x="948" y="90"/>
      <point x="899" y="26"/>
      <point x="783" y="25" type="curve" smooth="yes"/>
      <point x="645" y="24" type="line" smooth="yes"/>
      <point x="588" y="23"/>
      <point x="561" y="40"/>
      <point x="561" y="81" type="curve" smooth="yes"/>
      <point x="561" y="104"/>
      <point x="569" y="134"/>
      <point x="584" y="173" type="curve"/>
    </contour>
    <contour>
      <point x="650" y="377" type="move"/>
    </contour>
    <contour>
      <point x="815" y="226" type="curve"/>
      <point x="841" y="226" type="line"/>
      <point x="890" y="371" type="line"/>
      <point x="941" y="508" type="line"/>
      <point x="915" y="508" type="line"/>
      <point x="872" y="399"/>
      <point x="845" y="388"/>
      <point x="802" y="388" type="curve" smooth="yes"/>
      <point x="629" y="388" type="line"/>
      <point x="620" y="362" type="line"/>
      <point x="793" y="362" type="line" smooth="yes"/>
      <point x="819" y="361"/>
      <point x="836" y="348"/>
      <point x="836" y="315" type="curve" smooth="yes"/>
      <point x="836" y="294"/>
      <point x="829" y="265"/>
    </contour>
    <contour>
      <point x="1045" y="527" type="curve"/>
      <point x="1071" y="527" type="line"/>
      <point x="1072" y="650" type="line"/>
      <point x="1074" y="710" type="line"/>
      <point x="620" y="710" type="line"/>
      <point x="650" y="685" type="line"/>
      <point x="921" y="686" type="line" smooth="yes"/>
      <point x="1017" y="686"/>
      <point x="1045" y="616"/>
    </contour>
    <component base="_part.fut.cap" xOffset="369"/>
  </outline>
</glyph>
<glyph name="jdotless" format="2">
	<advance width="270"/>
	<unicode hex="0237"/>
	<anchor x="218" y="440" name="top"/>
	<anchor x="72" y="0" name="bottom"/>
	<outline>
		<contour>
			<point x="-111" y="-290" type="curve"/>
			<point x="-24" y="-290"/>
			<point x="29" y="-249"/>
			<point x="67" y="-132" type="curve"/>
			<point x="254" y="443" type="line"/>
			<point x="92" y="440" type="line"/>
			<point x="85" y="416" type="line"/>
			<point x="122" y="416"/>
			<point x="161" y="417"/>
			<point x="161" y="384" type="curve"/>
			<point x="161" y="378"/>
			<point x="159" y="370"/>
			<point x="156" y="360" type="curve"/>
			<point x="-2" y="-127" type="line" smooth="yes"/>
			<point x="-30" y="-214"/>
			<point x="-57" y="-268"/>
			<point x="-93" y="-268" type="curve"/>
			<point x="-137" y="-268"/>
			<point x="-114" y="-170"/>
			<point x="-173" y="-170" type="curve"/>
			<point x="-201" y="-170"/>
			<point x="-222" y="-190"/>
			<point x="-222" y="-217" type="curve"/>
			<point x="-222" y="-253"/>
			<point x="-193" y="-290"/>
		</contour>
	</outline>
</glyph>
<glyph name="circumflex" format="1">
  <advance width="287"/>
  <unicode hex="02C6"/>
  <outline>
    <contour>
      <point x="155" y="521" type="line"/>
      <point x="189" y="521" type="line"/>
      <point x="341" y="658" type="line"/>
      <point x="304" y="661" type="line"/>
      <point x="323" y="521" type="line"/>
      <point x="352" y="521" type="line"/>
      <point x="356" y="710" type="line"/>
      <point x="317" y="710" type="line"/>
    </contour>
  </outline>
</glyph>
<glyph name="caron" format="2">
	<advance width="310"/>
	<unicode hex="02C7"/>
	<outline>
		<contour>
			<point x="244" y="710" type="line"/>
			<point x="256" y="521" type="line"/>
			<point x="286" y="521" type="line"/>
			<point x="441" y="710" type="line"/>
			<point x="407" y="710" type="line"/>
			<point x="258" y="570" type="line"/>
			<point x="304" y="570" type="line"/>
			<point x="273" y="710" type="line"/>
		</contour>
	</outline>
</glyph>
<glyph name="ring" format="2">
	<advance width="281"/>
	<unicode hex="02DA"/>
	<outline>
		<contour>
			<point x="266" y="528" type="curve"/>
			<point x="306" y="528"/>
			<point x="349" y="554"/>
			<point x="349" y="613" type="curve"/>
			<point x="349" y="650"/>
			<point x="324" y="698"/>
			<point x="265" y="698" type="curve"/>
			<point x="210" y="698"/>
			<point x="180" y="655"/>
			<point x="180" y="613" type="curve"/>
			<point x="180" y="566"/>
			<point x="214" y="528"/>
		</contour>
		<contour>
			<point x="266" y="554" type="curve"/>
			<point x="235" y="554"/>
			<point x="209" y="576"/>
			<point x="209" y="613" type="curve"/>
			<point x="209" y="655"/>
			<point x="240" y="672"/>
			<point x="265" y="672" type="curve"/>
			<point x="294" y="672"/>
			<point x="320" y="651"/>
			<point x="320" y="613" type="curve"/>
			<point x="320" y="574"/>
			<point x="294" y="554"/>
		</contour>
	</outline>
</glyph>
<glyph name="caroncomb" format="2">
	<advance width="0"/>
	<unicode hex="030C"/>
	<anchor x="4" y="652" name="top"/>
	<anchor x="-62" y="440" name="_top"/>
	<outline>
		<contour>
			<point x="-74" y="710" type="line"/>
			<point x="-68" y="522" type="line"/>
			<point x="-38" y="522" type="line"/>
			<point x="123" y="710" type="line"/>
			<point x="89" y="710" type="line"/>
			<point x="-56" y="577" type="line"/>
			<point x="-20" y="564" type="line"/>
			<point x="-45" y="710" type="line"/>
		</contour>
	</outline>
</glyph>
<glyph name="commaturnedabovecomb" format="2">
	<advance width="0"/>
	<unicode hex="0312"/>
	<anchor x="23" y="652" name="top"/>
	<anchor x="-49" y="440" name="_top"/>
	<outline>
		<contour>
			<point x="116" y="681" type="curve"/>
			<point x="114" y="702" type="line"/>
			<point x="63" y="696"/>
			<point x="19" y="677"/>
			<point x="-8" y="620" type="curve"/>
			<point x="-16" y="604"/>
			<point x="-20" y="589"/>
			<point x="-20" y="574" type="curve"/>
			<point x="-20" y="540"/>
			<point x="-2" y="513"/>
			<point x="32" y="513" type="curve"/>
			<point x="60" y="513"/>
			<point x="81" y="534"/>
			<point x="81" y="563" type="curve"/>
			<point x="81" y="586"/>
			<point x="64" y="604"/>
			<point x="39" y="604" type="curve"/>
			<point x="24" y="604"/>
			<point x="14" y="597"/>
			<point x="9" y="585" type="curve"/>
			<point x="7" y="580"/>
			<point x="6" y="577"/>
			<point x="3" y="577" type="curve"/>
			<point x="2" y="577"/>
			<point x="-1" y="577"/>
			<point x="-1" y="584" type="curve"/>
			<point x="-1" y="591"/>
			<point x="2" y="604"/>
			<point x="8" y="614" type="curve"/>
			<point x="31" y="658"/>
			<point x="73" y="678"/>
		</contour>
	</outline>
</glyph>
<glyph name="commaaccentcomb" format="2">
	<advance width="0"/>
	<unicode hex="0326"/>
	<anchor x="-203" y="0" name="_bottom"/>
	<anchor x="-230" y="-280" name="bottom"/>
	<outline>
		<contour>
			<point x="-311" y="-258" type="curve"/>
			<point x="-309" y="-279" type="line"/>
			<point x="-258" y="-273"/>
			<point x="-214" y="-254"/>
			<point x="-187" y="-197" type="curve"/>
			<point x="-179" y="-181"/>
			<point x="-175" y="-166"/>
			<point x="-175" y="-151" type="curve"/>
			<point x="-175" y="-117"/>
			<point x="-193" y="-90"/>
			<point x="-227" y="-90" type="curve"/>
			<point x="-255" y="-90"/>
			<point x="-276" y="-111"/>
			<point x="-276" y="-140" type="curve"/>
			<point x="-276" y="-163"/>
			<point x="-259" y="-181"/>
			<point x="-234" y="-181" type="curve"/>
			<point x="-219" y="-181"/>
			<point x="-209" y="-174"/>
			<point x="-204" y="-162" type="curve"/>
			<point x="-202" y="-157"/>
			<point x="-201" y="-154"/>
			<point x="-198" y="-154" type="curve"/>
			<point x="-197" y="-154"/>
			<point x="-194" y="-154"/>
			<point x="-194" y="-161" type="curve"/>
			<point x="-194" y="-168"/>
			<point x="-197" y="-181"/>
			<point x="-203" y="-191" type="curve"/>
			<point x="-226" y="-235"/>
			<point x="-268" y="-255"/>
		</contour>
	</outline>
</glyph>
<glyph name="ogonekcomb" format="2">
	<advance width="0"/>
	<unicode hex="0328"/>
	<anchor x="-167" y="0" name="_ogonek"/>
	<outline>
		<contour>
			<point x="-307" y="-294" type="curve"/>
			<point x="-252" y="-294"/>
			<point x="-214" y="-271"/>
			<point x="-192" y="-240" type="curve"/>
			<point x="-204" y="-226" type="line"/>
			<point x="-228" y="-248"/>
			<point x="-249" y="-256"/>
			<point x="-272" y="-256" type="curve"/>
			<point x="-315" y="-256"/>
			<point x="-342" y="-226"/>
			<point x="-342" y="-180" type="curve"/>
			<point x="-342" y="-107"/>
			<point x="-268" y="-36"/>
			<point x="-180" y="7" type="curve"/>
			<point x="-156" y="40" type="line"/>
			<point x="-261" y="-6"/>
			<point x="-407" y="-108"/>
			<point x="-407" y="-200" type="curve"/>
			<point x="-407" y="-252"/>
			<point x="-371" y="-294"/>
		</contour>
	</outline>
</glyph>
<glyph name="strokeshortcomb" format="2">
	<advance width="0"/>
	<unicode hex="0335"/>
	<anchor x="-46" y="567" name="_center"/>
	<outline>
		<contour>
			<point x="-169" y="581" type="line"/>
			<point x="-179" y="557" type="line"/>
			<point x="76" y="557" type="line"/>
			<point x="86" y="581" type="line"/>
		</contour>
	</outline>
</glyph>
<glyph name="strokelongcomb" format="2">
	<advance width="0"/>
	<unicode hex="0336"/>
	<anchor x="-306" y="537" name="_center"/>
	<outline>
		<contour>
			<point x="-677" y="551" type="line"/>
			<point x="-687" y="522" type="line"/>
			<point x="65" y="522" type="line"/>
			<point x="75" y="551" type="line"/>
		</contour>
	</outline>
</glyph>
<glyph name="slashshortcomb" format="2">
	<advance width="0"/>
	<unicode hex="0337"/>
	<anchor x="-196" y="220" name="_center"/>
	<outline>
		<contour>
			<point x="44" y="453" type="line"/>
			<point x="-491" y="-12" type="line"/>
			<point x="-434" y="-12" type="line"/>
			<point x="100" y="453" type="line"/>
		</contour>
	</outline>
</glyph>
<glyph name="slashlongcomb" format="2">
	<advance width="0"/>
	<unicode hex="0338"/>
	<guideline x="-52" y="710" angle="180"/>
	<anchor x="-199" y="356" name="_center"/>
	<outline>
		<contour>
			<point x="98" y="726" type="line"/>
			<point x="-546" y="-14" type="line"/>
			<point x="-490" y="-14" type="line"/>
			<point x="154" y="726" type="line"/>
		</contour>
	</outline>
</glyph>
<glyph name="endash" format="2">
	<advance width="494"/>
	<unicode hex="2013"/>
	<outline>
		<contour>
			<point x="24" y="232" type="line"/>
			<point x="11" y="196" type="line"/>
			<point x="465" y="196" type="line"/>
			<point x="478" y="232" type="line"/>
		</contour>
	</outline>
</glyph>
<glyph name="emdash" format="2">
	<advance width="736"/>
	<unicode hex="2014"/>
	<outline>
		<contour>
			<point x="30" y="232" type="line"/>
			<point x="14" y="196" type="line"/>
			<point x="709" y="196" type="line"/>
			<point x="725" y="232" type="line"/>
		</contour>
	</outline>
</glyph>
<glyph name="daggerdbl" format="2">
	<advance width="488"/>
	<unicode hex="2021"/>
	<outline>
		<contour>
			<point x="60" y="-294" type="curve"/>
			<point x="106" y="-294"/>
			<point x="128" y="-241"/>
			<point x="132" y="-166" type="curve"/>
			<point x="132" y="-144"/>
			<point x="132" y="-120"/>
			<point x="143" y="-90" type="curve"/>
			<point x="145" y="-82" type="line" smooth="yes"/>
			<point x="160" y="-46"/>
			<point x="183" y="-15"/>
			<point x="193" y="13" type="curve"/>
			<point x="204" y="42"/>
			<point x="218" y="112"/>
			<point x="236" y="162" type="curve"/>
			<point x="213" y="162" type="line"/>
			<point x="193" y="107"/>
			<point x="154" y="40"/>
			<point x="144" y="14" type="curve"/>
			<point x="134" y="-15"/>
			<point x="135" y="-45"/>
			<point x="123" y="-82" type="curve"/>
			<point x="120" y="-90" type="line" smooth="yes"/>
			<point x="109" y="-118"/>
			<point x="93" y="-140"/>
			<point x="77" y="-160" type="curve"/>
			<point x="54" y="-191"/>
			<point x="25" y="-228"/>
			<point x="25" y="-261" type="curve"/>
			<point x="25" y="-282"/>
			<point x="41" y="-294"/>
		</contour>
		<contour>
			<point x="-17" y="-126" type="curve"/>
			<point x="18" y="-126"/>
			<point x="64" y="-95"/>
			<point x="127" y="-96" type="curve"/>
			<point x="127" y="-77" type="line"/>
			<point x="64" y="-78"/>
			<point x="18" y="-49"/>
			<point x="-17" y="-49" type="curve"/>
			<point x="-48" y="-49"/>
			<point x="-68" y="-63"/>
			<point x="-68" y="-87" type="curve"/>
			<point x="-68" y="-117"/>
			<point x="-47" y="-126"/>
		</contour>
		<contour>
			<point x="282" y="-126" type="curve"/>
			<point x="312" y="-126"/>
			<point x="333" y="-117"/>
			<point x="333" y="-87" type="curve"/>
			<point x="333" y="-63"/>
			<point x="313" y="-49"/>
			<point x="282" y="-49" type="curve"/>
			<point x="247" y="-49"/>
			<point x="201" y="-78"/>
			<point x="138" y="-77" type="curve"/>
			<point x="138" y="-96" type="line"/>
			<point x="201" y="-95"/>
			<point x="247" y="-126"/>
		</contour>
		<contour>
			<point x="197" y="465" type="curve"/>
			<point x="232" y="465"/>
			<point x="278" y="494"/>
			<point x="341" y="493" type="curve"/>
			<point x="341" y="512" type="line"/>
			<point x="278" y="511"/>
			<point x="232" y="542"/>
			<point x="197" y="542" type="curve"/>
			<point x="167" y="542"/>
			<point x="146" y="533"/>
			<point x="146" y="503" type="curve"/>
			<point x="146" y="479"/>
			<point x="166" y="465"/>
		</contour>
		<contour>
			<point x="247" y="254" type="curve"/>
			<point x="270" y="254" type="line"/>
			<point x="289" y="309"/>
			<point x="325" y="375"/>
			<point x="335" y="403" type="curve"/>
			<point x="345" y="431"/>
			<point x="344" y="462"/>
			<point x="357" y="498" type="curve"/>
			<point x="359" y="506" type="line" smooth="yes"/>
			<point x="371" y="536"/>
			<point x="388" y="559"/>
			<point x="404" y="582" type="curve"/>
			<point x="428" y="613"/>
			<point x="451" y="645"/>
			<point x="451" y="674" type="curve"/>
			<point x="451" y="696"/>
			<point x="437" y="710"/>
			<point x="414" y="710" type="curve"/>
			<point x="366" y="710"/>
			<point x="345" y="652"/>
			<point x="345" y="598" type="curve"/>
			<point x="345" y="587"/>
			<point x="346" y="577"/>
			<point x="346" y="566" type="curve"/>
			<point x="346" y="548"/>
			<point x="344" y="529"/>
			<point x="337" y="506" type="curve"/>
			<point x="334" y="498" type="line" smooth="yes"/>
			<point x="319" y="461"/>
			<point x="296" y="431"/>
			<point x="286" y="402" type="curve"/>
			<point x="276" y="376"/>
			<point x="267" y="309"/>
		</contour>
		<contour>
			<point x="496" y="465" type="curve"/>
			<point x="527" y="465"/>
			<point x="547" y="479"/>
			<point x="547" y="503" type="curve"/>
			<point x="547" y="533"/>
			<point x="526" y="542"/>
			<point x="496" y="542" type="curve"/>
			<point x="461" y="542"/>
			<point x="415" y="511"/>
			<point x="352" y="512" type="curve"/>
			<point x="352" y="493" type="line"/>
			<point x="415" y="494"/>
			<point x="461" y="465"/>
		</contour>
	</outline>
</glyph>
<glyph name="fraction" format="2">
	<advance width="283"/>
	<unicode hex="2044"/>
	<outline>
		<contour>
			<point x="557" y="710" type="line"/>
			<point x="-200" y="0" type="line"/>
			<point x="-162" y="0" type="line"/>
			<point x="596" y="710" type="line"/>
		</contour>
	</outline>
</glyph>
<glyph name="euro" format="2">
	<advance width="686"/>
	<unicode hex="20AC"/>
	<anchor x="526" y="710" name="top"/>
	<anchor x="338" y="0" name="bottom"/>
	<outline>
		<contour>
			<point x="306" y="-11" type="curve"/>
			<point x="428" y="-11"/>
			<point x="500" y="48"/>
			<point x="555" y="110" type="curve"/>
			<point x="602" y="164"/>
			<point x="630" y="222"/>
			<point x="640" y="247" type="curve"/>
			<point x="614" y="247" type="line"/>
			<point x="595" y="205"/>
			<point x="569" y="164"/>
			<point x="538" y="130" type="curve"/>
			<point x="481" y="65"/>
			<point x="410" y="20"/>
			<point x="326" y="20" type="curve"/>
			<point x="217" y="20"/>
			<point x="170" y="104"/>
			<point x="170" y="234" type="curve"/>
			<point x="170" y="462"/>
			<point x="358" y="690"/>
			<point x="538" y="690" type="curve"/>
			<point x="623" y="690"/>
			<point x="680" y="640"/>
			<point x="680" y="543" type="curve"/>
			<point x="680" y="525"/>
			<point x="678" y="506"/>
			<point x="674" y="485" type="curve"/>
			<point x="700" y="485" type="line"/>
			<point x="738" y="594" type="line"/>
			<point x="780" y="697" type="line"/>
			<point x="754" y="697" type="line"/>
			<point x="743" y="683"/>
			<point x="727" y="663"/>
			<point x="716" y="663" type="curve"/>
			<point x="690" y="663"/>
			<point x="648" y="720"/>
			<point x="531" y="720" type="curve"/>
			<point x="287" y="720"/>
			<point x="80" y="466"/>
			<point x="80" y="221" type="curve"/>
			<point x="80" y="59"/>
			<point x="182" y="-11"/>
		</contour>
		<contour>
			<point x="-11" y="291" type="line"/>
			<point x="-22" y="259" type="line"/>
			<point x="83" y="259" type="line"/>
			<point x="90" y="291" type="line"/>
		</contour>
		<contour>
			<point x="32" y="409" type="line"/>
			<point x="21" y="377" type="line"/>
			<point x="120" y="377" type="line"/>
			<point x="133" y="409" type="line"/>
		</contour>
		<contour>
			<point x="144" y="291" type="line"/>
			<point x="137" y="259" type="line"/>
			<point x="441" y="259" type="line"/>
			<point x="466" y="291" type="line"/>
		</contour>
		<contour>
			<point x="186" y="409" type="line"/>
			<point x="173" y="377" type="line"/>
			<point x="524" y="377" type="line"/>
			<point x="549" y="409" type="line"/>
		</contour>
	</outline>
</glyph>
<glyph name="trademark" format="2">
	<advance width="1000"/>
	<unicode hex="2122"/>
	<outline>
		<contour>
			<point x="524" y="365" type="line"/>
			<point x="517" y="346" type="line"/>
			<point x="583" y="348" type="line"/>
			<point x="650" y="346" type="line"/>
			<point x="657" y="365" type="line"/>
			<point x="646" y="366" type="line" smooth="yes"/>
			<point x="623" y="368"/>
			<point x="613" y="370"/>
			<point x="613" y="384" type="curve"/>
			<point x="613" y="390"/>
			<point x="615" y="403"/>
			<point x="619" y="416" type="curve"/>
			<point x="714" y="707" type="line"/>
			<point x="693" y="706" type="line"/>
			<point x="733" y="348" type="line"/>
			<point x="744" y="348" type="line"/>
			<point x="1037" y="707" type="line"/>
			<point x="1014" y="706" type="line"/>
			<point x="919" y="416" type="line" smooth="yes"/>
			<point x="904" y="371"/>
			<point x="896" y="370"/>
			<point x="857" y="366" type="curve"/>
			<point x="846" y="365" type="line"/>
			<point x="839" y="346" type="line"/>
			<point x="921" y="348" type="line"/>
			<point x="1016" y="346" type="line"/>
			<point x="1023" y="365" type="line"/>
			<point x="1012" y="366" type="line" smooth="yes"/>
			<point x="986" y="368"/>
			<point x="974" y="370"/>
			<point x="974" y="385" type="curve"/>
			<point x="974" y="391"/>
			<point x="976" y="404"/>
			<point x="980" y="416" type="curve"/>
			<point x="1054" y="642" type="line" smooth="yes"/>
			<point x="1068" y="685"/>
			<point x="1080" y="688"/>
			<point x="1119" y="691" type="curve"/>
			<point x="1130" y="692" type="line"/>
			<point x="1134" y="712" type="line"/>
			<point x="1043" y="710" type="line"/>
			<point x="1010" y="710" type="line"/>
			<point x="762" y="405" type="line"/>
			<point x="791" y="427" type="line"/>
			<point x="756" y="710" type="line"/>
			<point x="714" y="710" type="line"/>
			<point x="635" y="712" type="line"/>
			<point x="631" y="693" type="line"/>
			<point x="642" y="692" type="line" smooth="yes"/>
			<point x="664" y="690"/>
			<point x="675" y="688"/>
			<point x="675" y="675" type="curve"/>
			<point x="675" y="667"/>
			<point x="670" y="651"/>
			<point x="667" y="642" type="curve"/>
			<point x="593" y="416" type="line" smooth="yes"/>
			<point x="578" y="371"/>
			<point x="570" y="369"/>
			<point x="535" y="366" type="curve"/>
		</contour>
		<contour>
			<point x="206" y="365" type="line"/>
			<point x="199" y="346" type="line"/>
			<point x="300" y="348" type="line"/>
			<point x="397" y="346" type="line"/>
			<point x="404" y="365" type="line"/>
			<point x="392" y="366" type="line" smooth="yes"/>
			<point x="361" y="369"/>
			<point x="345" y="371"/>
			<point x="345" y="387" type="curve"/>
			<point x="345" y="393"/>
			<point x="348" y="405"/>
			<point x="352" y="416" type="curve"/>
			<point x="441" y="689" type="line"/>
			<point x="378" y="689" type="line"/>
			<point x="289" y="416" type="line" smooth="yes"/>
			<point x="274" y="371"/>
			<point x="265" y="370"/>
			<point x="218" y="366" type="curve"/>
		</contour>
		<contour>
			<point x="573" y="605" type="curve"/>
			<point x="587" y="608" type="line"/>
			<point x="593" y="671" type="line"/>
			<point x="600" y="712" type="line"/>
			<point x="442" y="710" type="line"/>
			<point x="390" y="710" type="line"/>
			<point x="233" y="712" type="line"/>
			<point x="214" y="671" type="line"/>
			<point x="181" y="608" type="line"/>
			<point x="191" y="606" type="line"/>
			<point x="242" y="665"/>
			<point x="262" y="687"/>
			<point x="307" y="687" type="curve"/>
			<point x="513" y="687" type="line" smooth="yes"/>
			<point x="560" y="687"/>
			<point x="565" y="658"/>
		</contour>
	</outline>
</glyph>
<glyph name="minus" format="1">
  <advance width="556"/>
  <unicode hex="2212"/>
  <outline>
    <contour>
      <point x="90" y="300" type="line"/>
      <point x="526" y="300" type="line"/>
      <point x="539" y="336" type="line"/>
      <point x="103" y="336" type="line"/>
    </contour>
  </outline>
</glyph>
<glyph name="notequal" format="2">
	<advance width="600"/>
	<unicode hex="2260"/>
	<outline>
		<contour>
			<point x="480" y="483" type="line"/>
			<point x="83" y="120" type="line"/>
			<point x="128" y="120" type="line"/>
			<point x="524" y="483" type="line"/>
		</contour>
		<component base="equal"/>
	</outline>
</glyph>
<glyph name="fi" format="2">
	<advance width="585"/>
	<unicode hex="FB01"/>
	<guideline x="596" y="539" angle="70"/>
	<anchor x="306" y="0" name="caret_1"/>
	<outline>
		<contour>
			<point x="-99" y="-290" type="curve"/>
			<point x="-12" y="-290"/>
			<point x="41" y="-258"/>
			<point x="85" y="-127" type="curve"/>
			<point x="321" y="581" type="line" smooth="yes"/>
			<point x="348" y="664"/>
			<point x="400" y="702"/>
			<point x="449" y="702" type="curve"/>
			<point x="487" y="702"/>
			<point x="506" y="686"/>
			<point x="506" y="633" type="curve"/>
			<point x="506" y="603"/>
			<point x="523" y="582"/>
			<point x="553" y="582" type="curve"/>
			<point x="590" y="582"/>
			<point x="612" y="610"/>
			<point x="612" y="638" type="curve"/>
			<point x="612" y="665"/>
			<point x="593" y="724"/>
			<point x="457" y="724" type="curve"/>
			<point x="349" y="724"/>
			<point x="282" y="684"/>
			<point x="235" y="541" type="curve"/>
			<point x="13" y="-127" type="line" smooth="yes"/>
			<point x="-16" y="-213"/>
			<point x="-46" y="-268"/>
			<point x="-81" y="-268" type="curve"/>
			<point x="-125" y="-268"/>
			<point x="-102" y="-170"/>
			<point x="-161" y="-170" type="curve"/>
			<point x="-189" y="-170"/>
			<point x="-210" y="-190"/>
			<point x="-210" y="-216" type="curve"/>
			<point x="-210" y="-255"/>
			<point x="-181" y="-290"/>
		</contour>
		<contour>
			<point x="119" y="440" type="line"/>
			<point x="112" y="416" type="line"/>
			<point x="396" y="416" type="line"/>
			<point x="406" y="440" type="line"/>
		</contour>
		<component base="idotless" xOffset="306"/>
	</outline>
</glyph>
<glyph name="fl" format="2">
	<advance width="610"/>
	<unicode hex="FB02"/>
	<outline>
		<contour>
			<point x="-100" y="-290" type="curve"/>
			<point x="-13" y="-290"/>
			<point x="41" y="-262"/>
			<point x="84" y="-131" type="curve"/>
			<point x="292" y="504" type="line" smooth="yes"/>
			<point x="322" y="598"/>
			<point x="365" y="699"/>
			<point x="465" y="699" type="curve"/>
			<point x="523" y="699"/>
			<point x="573" y="666"/>
			<point x="599" y="581" type="curve"/>
			<point x="644" y="657" type="line"/>
			<point x="615" y="700"/>
			<point x="550" y="724"/>
			<point x="471" y="724" type="curve"/>
			<point x="325" y="724"/>
			<point x="273" y="658"/>
			<point x="228" y="520" type="curve"/>
			<point x="12" y="-131" type="line" smooth="yes"/>
			<point x="-16" y="-214"/>
			<point x="-47" y="-268"/>
			<point x="-82" y="-268" type="curve"/>
			<point x="-126" y="-268"/>
			<point x="-103" y="-174"/>
			<point x="-162" y="-174" type="curve"/>
			<point x="-190" y="-174"/>
			<point x="-211" y="-194"/>
			<point x="-211" y="-221" type="curve"/>
			<point x="-211" y="-255"/>
			<point x="-182" y="-290"/>
		</contour>
		<contour>
			<point x="113" y="440" type="line"/>
			<point x="106" y="416" type="line"/>
			<point x="373" y="416" type="line"/>
			<point x="380" y="440" type="line"/>
		</contour>
		<contour>
			<point x="461" y="19" type="curve"/>
			<point x="452" y="19"/>
			<point x="445" y="24"/>
			<point x="445" y="38" type="curve"/>
			<point x="445" y="46"/>
			<point x="448" y="56"/>
			<point x="452" y="69" type="curve"/>
			<point x="644" y="657" type="line"/>
			<point x="575" y="664" type="line"/>
			<point x="389" y="94" type="line" smooth="yes"/>
			<point x="382" y="74"/>
			<point x="378" y="57"/>
			<point x="378" y="43" type="curve"/>
			<point x="378" y="5"/>
			<point x="402" y="-14"/>
			<point x="432" y="-14" type="curve"/>
			<point x="486" y="-14"/>
			<point x="524" y="21"/>
			<point x="557" y="75" type="curve"/>
			<point x="539" y="87" type="line"/>
			<point x="522" y="55"/>
			<point x="491" y="19"/>
		</contour>
	</outline>
</glyph>
<glyph name=".notdef" format="2">
	<advance width="870"/>
	<outline>
		<contour>
			<point x="240" y="710" type="line"/>
			<point x="9" y="0" type="line"/>
			<point x="719" y="0" type="line"/>
			<point x="950" y="710" type="line"/>
		</contour>
		<contour>
			<point x="682" y="30" type="line"/>
			<point x="72" y="30" type="line"/>
			<point x="475" y="336" type="line"/>
		</contour>
		<contour>
			<point x="459" y="360" type="line"/>
			<point x="59" y="58" type="line"/>
			<point x="254" y="663" type="line"/>
		</contour>
		<contour>
			<point x="902" y="658" type="line"/>
			<point x="705" y="49" type="line"/>
			<point x="500" y="354" type="line"/>
		</contour>
		<contour>
			<point x="881" y="680" type="line"/>
			<point x="483" y="379" type="line"/>
			<point x="280" y="680" type="line"/>
		</contour>
	</outline>
</glyph>
<glyph name="_part.ascendante" format="2">
	<advance width="308"/>
	<guideline x="172" y="351" angle="69.9645"/>
	<outline>
		<contour>
			<point x="303" y="702" type="line"/>
			<point x="44" y="0" type="line"/>
			<point x="116" y="0" type="line"/>
			<point x="369" y="702" type="line"/>
		</contour>
		<component base="_part.attaque.asc"/>
	</outline>
</glyph>
<glyph name="_part.attaque.asc" format="2">
	<advance width="227"/>
	<guideline x="172" y="351" angle="69.4118"/>
	<outline>
		<contour>
			<point x="266" y="601" type="curve"/>
			<point x="336" y="612" type="line"/>
			<point x="373" y="713" type="line"/>
			<point x="211" y="710" type="line"/>
			<point x="204" y="686" type="line"/>
			<point x="242" y="686"/>
			<point x="278" y="690"/>
			<point x="278" y="652" type="curve"/>
			<point x="278" y="640"/>
			<point x="274" y="623"/>
		</contour>
	</outline>
</glyph>
<glyph name="_part.attaque" format="2">
	<advance width="227"/>
	<guideline x="247" y="600" angle="70"/>
	<outline>
		<contour>
			<point x="150" y="335" type="curve"/>
			<point x="222" y="341" type="line"/>
			<point x="246" y="448" type="line"/>
			<point x="191" y="443"/>
			<point x="157" y="440"/>
			<point x="102" y="440" type="curve"/>
			<point x="102" y="416" type="line"/>
			<point x="134" y="416"/>
			<point x="162" y="419"/>
			<point x="162" y="386" type="curve"/>
			<point x="162" y="374"/>
			<point x="158" y="358"/>
		</contour>
	</outline>
</glyph>
<glyph name="_part.demiserif" format="2">
	<advance width="162"/>
	<outline>
		<contour>
			<point x="256" y="617" type="curve"/>
			<point x="287" y="596" type="line"/>
			<point x="329" y="710" type="line"/>
			<point x="182" y="713" type="line"/>
			<point x="173" y="688" type="line"/>
			<point x="192" y="686" type="line" smooth="yes"/>
			<point x="245" y="681"/>
			<point x="264" y="673"/>
			<point x="264" y="651" type="curve"/>
			<point x="264" y="643"/>
			<point x="261" y="631"/>
		</contour>
	</outline>
</glyph>
<glyph name="_part.fut.cap" format="2">
	<advance width="379"/>
	<outline>
		<contour>
			<point x="330" y="710" type="line"/>
			<point x="72" y="0" type="line"/>
			<point x="152" y="0" type="line"/>
			<point x="410" y="710" type="line"/>
		</contour>
	</outline>
</glyph>
<glyph name="_part.jambage.2" format="2">
	<advance width="554"/>
	<guideline x="403" y="286" angle="249.5863"/>
	<guideline x="468" y="270" angle="69.8686"/>
	<outline>
		<contour>
			<point x="380" y="-14" type="curve"/>
			<point x="437" y="-14"/>
			<point x="477" y="33"/>
			<point x="502" y="75" type="curve"/>
			<point x="484" y="87" type="line"/>
			<point x="467" y="57"/>
			<point x="436" y="19"/>
			<point x="407" y="19" type="curve"/>
			<point x="396" y="19"/>
			<point x="391" y="26"/>
			<point x="391" y="39" type="curve"/>
			<point x="391" y="50"/>
			<point x="395" y="65"/>
			<point x="401" y="85" type="curve"/>
			<point x="526" y="440" type="line"/>
			<point x="460" y="440" type="line"/>
			<point x="339" y="113" type="line" smooth="yes"/>
			<point x="330" y="87"/>
			<point x="324" y="62"/>
			<point x="324" y="41" type="curve"/>
			<point x="324" y="8"/>
			<point x="339" y="-14"/>
		</contour>
	</outline>
</glyph>
<glyph name="_part.jambage" format="1">
  <advance width="600"/>
  <outline>
    <contour>
      <point x="389" y="-14" type="curve" smooth="yes"/>
      <point x="446" y="-14"/>
      <point x="486" y="31"/>
      <point x="511" y="72" type="curve"/>
      <point x="493" y="84" type="line"/>
      <point x="476" y="55"/>
      <point x="445" y="19"/>
      <point x="416" y="19" type="curve" smooth="yes"/>
      <point x="405" y="19"/>
      <point x="400" y="26"/>
      <point x="400" y="39" type="curve" smooth="yes"/>
      <point x="400" y="49"/>
      <point x="403" y="63"/>
      <point x="409" y="80" type="curve" smooth="yes"/>
      <point x="499" y="331" type="line" smooth="yes"/>
      <point x="506" y="351"/>
      <point x="510" y="370"/>
      <point x="510" y="388" type="curve" smooth="yes"/>
      <point x="510" y="426"/>
      <point x="489" y="454"/>
      <point x="423" y="454" type="curve" smooth="yes"/>
      <point x="299" y="454"/>
      <point x="208" y="323"/>
      <point x="183" y="255" type="curve"/>
      <point x="206" y="257" type="line"/>
      <point x="233" y="329"/>
      <point x="328" y="429"/>
      <point x="404" y="429" type="curve" smooth="yes"/>
      <point x="425" y="429"/>
      <point x="442" y="417"/>
      <point x="442" y="391" type="curve" smooth="yes"/>
      <point x="442" y="381"/>
      <point x="440" y="370"/>
      <point x="435" y="356" type="curve" smooth="yes"/>
      <point x="348" y="110" type="line" smooth="yes"/>
      <point x="339" y="84"/>
      <point x="333" y="60"/>
      <point x="333" y="40" type="curve" smooth="yes"/>
      <point x="333" y="8"/>
      <point x="348" y="-14"/>
    </contour>
  </outline>
</glyph>
<glyph name="_part.quoteright" format="2">
	<advance width="324"/>
	<outline>
		<contour>
			<point x="51" y="104" type="curve"/>
			<point x="56" y="74" type="line"/>
			<point x="146" y="95"/>
			<point x="234" y="125"/>
			<point x="267" y="229" type="curve"/>
			<point x="275" y="254"/>
			<point x="277" y="277"/>
			<point x="277" y="290" type="curve"/>
			<point x="277" y="364"/>
			<point x="239" y="412"/>
			<point x="180" y="412" type="curve"/>
			<point x="129" y="412"/>
			<point x="94" y="374"/>
			<point x="94" y="324" type="curve"/>
			<point x="94" y="280"/>
			<point x="122" y="248"/>
			<point x="164" y="248" type="curve"/>
			<point x="206" y="248"/>
			<point x="235" y="273"/>
			<point x="235" y="314" type="curve"/>
			<point x="235" y="324"/>
			<point x="238" y="326"/>
			<point x="241" y="326" type="curve"/>
			<point x="246" y="326"/>
			<point x="246" y="318"/>
			<point x="246" y="306" type="curve"/>
			<point x="246" y="288"/>
			<point x="244" y="259"/>
			<point x="235" y="235" type="curve"/>
			<point x="206" y="155"/>
			<point x="127" y="118"/>
		</contour>
	</outline>
</glyph>
<glyph name="_part.serif" format="2">
	<advance width="309"/>
	<guideline x="76" y="39" angle="0"/>
	<outline>
		<contour>
			<point x="-65" y="22" type="line"/>
			<point x="-74" y="-3" type="line"/>
			<point x="75" y="0" type="line"/>
			<point x="224" y="-3" type="line"/>
			<point x="233" y="22" type="line"/>
			<point x="214" y="24" type="line" smooth="yes"/>
			<point x="160" y="29"/>
			<point x="142" y="35"/>
			<point x="142" y="58" type="curve"/>
			<point x="142" y="68"/>
			<point x="145" y="80"/>
			<point x="150" y="96" type="curve"/>
			<point x="85" y="137" type="line"/>
			<point x="48" y="49"/>
			<point x="29" y="31"/>
			<point x="-44" y="24" type="curve"/>
		</contour>
	</outline>
</glyph>
<glyph name="_part.serif2" format="2">
	<advance width="309"/>
	<outline>
		<contour>
			<point x="-28" y="24" type="line"/>
			<point x="-37" y="-1" type="line"/>
			<point x="86" y="2" type="line"/>
			<point x="204" y="-1" type="line"/>
			<point x="213" y="24" type="line"/>
			<point x="194" y="26" type="line" smooth="yes"/>
			<point x="146" y="31"/>
			<point x="125" y="35"/>
			<point x="125" y="58" type="curve"/>
			<point x="125" y="66"/>
			<point x="128" y="77"/>
			<point x="133" y="92" type="curve"/>
			<point x="111" y="118" type="line"/>
			<point x="81" y="38"/>
			<point x="63" y="33"/>
			<point x="-7" y="26" type="curve"/>
		</contour>
	</outline>
</glyph>
<glyph name="_part.sortie" format="2">
	<advance width="600"/>
	<outline>
		<contour>
			<point x="400" y="-10" type="curve"/>
			<point x="455" y="-10"/>
			<point x="493" y="20"/>
			<point x="526" y="56" type="curve"/>
			<point x="510" y="73" type="line"/>
			<point x="491" y="54"/>
			<point x="454" y="23"/>
			<point x="428" y="23" type="curve"/>
			<point x="412" y="23"/>
			<point x="405" y="34"/>
			<point x="405" y="50" type="curve"/>
			<point x="405" y="59"/>
			<point x="408" y="71"/>
			<point x="413" y="83" type="curve"/>
			<point x="366" y="158" type="line"/>
			<point x="343" y="98"/>
			<point x="336" y="60"/>
			<point x="336" y="45" type="curve"/>
			<point x="336" y="14"/>
			<point x="353" y="-10"/>
		</contour>
	</outline>
</glyph>
<glyph name="_partG" format="2">
	<advance width="576"/>
	<outline>
		<contour>
			<point x="22" y="254" type="curve"/>
			<point x="97" y="254" type="line"/>
			<point x="175" y="468"/>
			<point x="329" y="668"/>
			<point x="480" y="745" type="curve"/>
			<point x="475" y="769" type="line"/>
			<point x="309" y="688"/>
			<point x="121" y="526"/>
		</contour>
		<contour>
			<point x="475" y="769" type="line"/>
			<point x="480" y="745" type="line"/>
			<point x="481" y="746" type="line"/>
		</contour>
	</outline>
</glyph>
<glyph name="a.sups" format="1">
  <advance width="443"/>
  <outline>
    <contour>
      <point x="211" y="290" type="curve" smooth="yes"/>
      <point x="285" y="290"/>
      <point x="327" y="328"/>
      <point x="363" y="381" type="curve"/>
      <point x="429" y="554" type="line"/>
      <point x="429" y="611"/>
      <point x="412" y="653"/>
      <point x="343" y="653" type="curve" smooth="yes"/>
      <point x="234" y="653"/>
      <point x="98" y="531"/>
      <point x="98" y="400" type="curve" smooth="yes"/>
      <point x="98" y="342"/>
      <point x="132" y="290"/>
    </contour>
    <contour>
      <point x="219" y="312" type="curve" smooth="yes"/>
      <point x="187" y="312"/>
      <point x="168" y="336"/>
      <point x="168" y="384" type="curve" smooth="yes"/>
      <point x="168" y="489"/>
      <point x="262" y="633"/>
      <point x="348" y="633" type="curve" smooth="yes"/>
      <point x="385" y="633"/>
      <point x="403" y="604"/>
      <point x="403" y="563" type="curve" smooth="yes"/>
      <point x="403" y="540"/>
      <point x="398" y="512"/>
      <point x="388" y="484" type="curve" smooth="yes"/>
      <point x="351" y="381"/>
      <point x="288" y="312"/>
    </contour>
    <contour>
      <point x="393" y="290" type="curve" smooth="yes"/>
      <point x="437" y="290"/>
      <point x="472" y="326"/>
      <point x="493" y="358" type="curve"/>
      <point x="477" y="371" type="line"/>
      <point x="462" y="348"/>
      <point x="434" y="318"/>
      <point x="412" y="318" type="curve" smooth="yes"/>
      <point x="405" y="318"/>
      <point x="402" y="322"/>
      <point x="402" y="331" type="curve" smooth="yes"/>
      <point x="402" y="340"/>
      <point x="404" y="352"/>
      <point x="410" y="367" type="curve" smooth="yes"/>
      <point x="516" y="644" type="line"/>
      <point x="453" y="644" type="line"/>
      <point x="352" y="390" type="line" smooth="yes"/>
      <point x="344" y="369"/>
      <point x="340" y="349"/>
      <point x="340" y="333" type="curve" smooth="yes"/>
      <point x="340" y="307"/>
      <point x="354" y="290"/>
    </contour>
  </outline>
</glyph>
<glyph name="acutecomb.case" format="2">
	<advance width="0"/>
	<anchor x="115" y="710" name="_topright"/>
	<anchor x="154" y="908" name="top"/>
	<anchor x="71" y="710" name="_top"/>
	<outline>
		<contour>
			<point x="128" y="940" type="line"/>
			<point x="68" y="760" type="line"/>
			<point x="80" y="760" type="line"/>
			<point x="209" y="940" type="line"/>
		</contour>
	</outline>
</glyph>
<glyph name="brevecomb.case" format="1">
  <advance width="299"/>
  <outline>
    <component base="breve" xOffset="102" yOffset="252"/>
    <contour>
      <point x="346" y="710" type="move" name="_top"/>
    </contour>
    <contour>
      <point x="393" y="908" type="move" name="top"/>
    </contour>
  </outline>
</glyph>
<glyph name="caroncomb.case" format="2">
	<advance width="0"/>
	<anchor x="96" y="908" name="top"/>
	<anchor x="28" y="710" name="_top"/>
	<outline>
		<contour>
			<point x="15" y="940" type="line"/>
			<point x="27" y="761" type="line"/>
			<point x="57" y="761" type="line"/>
			<point x="212" y="940" type="line"/>
			<point x="178" y="940" type="line"/>
			<point x="29" y="807" type="line"/>
			<point x="75" y="807" type="line"/>
			<point x="44" y="940" type="line"/>
		</contour>
	</outline>
</glyph>
<glyph name="circumflexcomb.case" format="2">
	<advance width="0"/>
	<anchor x="106" y="908" name="top"/>
	<anchor x="54" y="710" name="_top"/>
	<outline>
		<contour>
			<point x="102" y="940" type="line"/>
			<point x="-40" y="761" type="line"/>
			<point x="-6" y="761" type="line"/>
			<point x="136" y="894" type="line"/>
			<point x="89" y="894" type="line"/>
			<point x="128" y="761" type="line"/>
			<point x="157" y="761" type="line"/>
			<point x="141" y="940" type="line"/>
		</contour>
	</outline>
</glyph>
<glyph name="dieresiscomb.narrow" format="2">
	<advance width="0"/>
	<guideline x="254" y="656" angle="0"/>
	<anchor x="-53" y="652" name="top"/>
	<anchor x="-87" y="440" name="_top"/>
	<outline>
		<contour>
			<point x="-145" y="559" type="curve"/>
			<point x="-119" y="559"/>
			<point x="-97" y="582"/>
			<point x="-97" y="609" type="curve"/>
			<point x="-97" y="634"/>
			<point x="-119" y="657"/>
			<point x="-145" y="657" type="curve"/>
			<point x="-174" y="657"/>
			<point x="-195" y="634"/>
			<point x="-195" y="609" type="curve"/>
			<point x="-195" y="582"/>
			<point x="-174" y="559"/>
		</contour>
		<contour>
			<point x="12" y="559" type="curve"/>
			<point x="38" y="559"/>
			<point x="60" y="582"/>
			<point x="60" y="609" type="curve"/>
			<point x="60" y="634"/>
			<point x="38" y="657"/>
			<point x="12" y="657" type="curve"/>
			<point x="-17" y="657"/>
			<point x="-38" y="634"/>
			<point x="-38" y="609" type="curve"/>
			<point x="-38" y="582"/>
			<point x="-17" y="559"/>
		</contour>
	</outline>
</glyph>
<glyph name="eight.lf" format="2">
	<advance width="555"/>
	<outline>
		<contour>
			<point x="227" y="-14" type="curve"/>
			<point x="377" y="-14"/>
			<point x="508" y="107"/>
			<point x="508" y="233" type="curve"/>
			<point x="508" y="309"/>
			<point x="457" y="370"/>
			<point x="360" y="387" type="curve"/>
			<point x="385" y="371" type="line"/>
			<point x="523" y="389"/>
			<point x="612" y="474"/>
			<point x="612" y="576" type="curve"/>
			<point x="612" y="665"/>
			<point x="544" y="724"/>
			<point x="447" y="724" type="curve"/>
			<point x="309" y="724"/>
			<point x="197" y="628"/>
			<point x="197" y="515" type="curve"/>
			<point x="197" y="448"/>
			<point x="244" y="393"/>
			<point x="316" y="376" type="curve"/>
			<point x="296" y="388" type="line"/>
			<point x="158" y="368"/>
			<point x="53" y="244"/>
			<point x="53" y="138" type="curve"/>
			<point x="53" y="52"/>
			<point x="115" y="-14"/>
		</contour>
		<contour>
			<point x="228" y="10" type="curve"/>
			<point x="171" y="10"/>
			<point x="139" y="51"/>
			<point x="139" y="119" type="curve"/>
			<point x="139" y="229"/>
			<point x="225" y="368"/>
			<point x="329" y="368" type="curve"/>
			<point x="386" y="368"/>
			<point x="422" y="328"/>
			<point x="422" y="255" type="curve"/>
			<point x="422" y="143"/>
			<point x="338" y="10"/>
		</contour>
		<contour>
			<point x="362" y="392" type="curve"/>
			<point x="307" y="392"/>
			<point x="278" y="439"/>
			<point x="278" y="497" type="curve"/>
			<point x="278" y="594"/>
			<point x="355" y="700"/>
			<point x="445" y="700" type="curve"/>
			<point x="496" y="700"/>
			<point x="530" y="671"/>
			<point x="530" y="604" type="curve"/>
			<point x="530" y="501"/>
			<point x="454" y="392"/>
		</contour>
	</outline>
</glyph>
<glyph name="eight.sups" format="2">
	<advance width="368"/>
	<outline>
		<contour>
			<point x="209" y="290" type="curve"/>
			<point x="312" y="290"/>
			<point x="407" y="358"/>
			<point x="407" y="440" type="curve"/>
			<point x="407" y="476"/>
			<point x="384" y="505"/>
			<point x="341" y="518" type="curve"/>
			<point x="407" y="529"/>
			<point x="471" y="575"/>
			<point x="471" y="641" type="curve"/>
			<point x="471" y="683"/>
			<point x="439" y="717"/>
			<point x="368" y="717" type="curve"/>
			<point x="286" y="717"/>
			<point x="189" y="662"/>
			<point x="189" y="588" type="curve"/>
			<point x="189" y="560"/>
			<point x="209" y="531"/>
			<point x="245" y="519" type="curve"/>
			<point x="171" y="501"/>
			<point x="97" y="442"/>
			<point x="97" y="374" type="curve"/>
			<point x="97" y="331"/>
			<point x="131" y="290"/>
		</contour>
		<contour>
			<point x="219" y="309" type="curve"/>
			<point x="183" y="309"/>
			<point x="163" y="330"/>
			<point x="163" y="366" type="curve"/>
			<point x="163" y="420"/>
			<point x="217" y="508"/>
			<point x="288" y="508" type="curve"/>
			<point x="323" y="508"/>
			<point x="340" y="489"/>
			<point x="340" y="455" type="curve"/>
			<point x="340" y="391"/>
			<point x="291" y="309"/>
		</contour>
		<contour>
			<point x="302" y="527" type="curve"/>
			<point x="274" y="527"/>
			<point x="255" y="541"/>
			<point x="255" y="574" type="curve"/>
			<point x="255" y="626"/>
			<point x="298" y="697"/>
			<point x="360" y="697" type="curve"/>
			<point x="392" y="697"/>
			<point x="406" y="679"/>
			<point x="406" y="650" type="curve"/>
			<point x="406" y="602"/>
			<point x="360" y="527"/>
		</contour>
	</outline>
</glyph>
<glyph name="f_b.liga" format="2">
	<advance width="878"/>
	<anchor x="433" y="0" name="caret_1"/>
	<anchor x="139" y="0" name="bottom_1"/>
	<anchor x="299" y="440" name="top_1"/>
	<anchor x="734" y="440" name="top_2"/>
	<anchor x="574" y="0" name="bottom_2"/>
	<outline>
		<contour>
			<point x="-100" y="-290" type="curve"/>
			<point x="-13" y="-290"/>
			<point x="42" y="-261"/>
			<point x="84" y="-133" type="curve"/>
			<point x="294" y="504" type="line" smooth="yes"/>
			<point x="327" y="597"/>
			<point x="367" y="699"/>
			<point x="473" y="699" type="curve"/>
			<point x="523" y="699"/>
			<point x="587" y="678"/>
			<point x="609" y="604" type="curve"/>
			<point x="669" y="678" type="line"/>
			<point x="641" y="702"/>
			<point x="545" y="724"/>
			<point x="482" y="724" type="curve"/>
			<point x="327" y="724"/>
			<point x="279" y="656"/>
			<point x="230" y="520" type="curve"/>
			<point x="12" y="-132" type="line" smooth="yes"/>
			<point x="-16" y="-214"/>
			<point x="-47" y="-268"/>
			<point x="-82" y="-268" type="curve"/>
			<point x="-126" y="-268"/>
			<point x="-103" y="-174"/>
			<point x="-162" y="-174" type="curve"/>
			<point x="-190" y="-174"/>
			<point x="-211" y="-194"/>
			<point x="-211" y="-221" type="curve"/>
			<point x="-211" y="-255"/>
			<point x="-182" y="-290"/>
		</contour>
		<contour>
			<point x="115" y="440" type="line"/>
			<point x="108" y="416" type="line"/>
			<point x="375" y="416" type="line"/>
			<point x="382" y="440" type="line"/>
		</contour>
		<contour>
			<point x="573" y="10" type="curve"/>
			<point x="516" y="10"/>
			<point x="491" y="41"/>
			<point x="491" y="96" type="curve"/>
			<point x="491" y="129"/>
			<point x="500" y="171"/>
			<point x="518" y="221" type="curve"/>
			<point x="537" y="274" type="line" smooth="yes"/>
			<point x="567" y="358"/>
			<point x="612" y="430"/>
			<point x="688" y="430" type="curve"/>
			<point x="729" y="430"/>
			<point x="769" y="397"/>
			<point x="769" y="326" type="curve"/>
			<point x="769" y="184"/>
			<point x="672" y="10"/>
		</contour>
		<contour>
			<point x="573" y="-14" type="curve"/>
			<point x="701" y="-14"/>
			<point x="841" y="122"/>
			<point x="841" y="287" type="curve"/>
			<point x="841" y="380"/>
			<point x="780" y="454"/>
			<point x="694" y="454" type="curve"/>
			<point x="644" y="454"/>
			<point x="593" y="430"/>
			<point x="567" y="383" type="curve"/>
			<point x="567" y="368" type="line"/>
			<point x="669" y="678" type="line"/>
			<point x="604" y="694" type="line"/>
			<point x="452" y="233" type="line" smooth="yes"/>
			<point x="437" y="188"/>
			<point x="427" y="149"/>
			<point x="427" y="116" type="curve"/>
			<point x="427" y="30"/>
			<point x="482" y="-14"/>
		</contour>
	</outline>
</glyph>
<glyph name="f_f.liga" format="2">
	<advance width="634"/>
	<anchor x="319" y="0" name="caret_1"/>
	<outline>
		<contour>
			<point x="-100" y="-290" type="curve"/>
			<point x="-13" y="-290"/>
			<point x="37" y="-260"/>
			<point x="84" y="-131" type="curve"/>
			<point x="290" y="504" type="line" smooth="yes"/>
			<point x="322" y="597"/>
			<point x="358" y="699"/>
			<point x="441" y="699" type="curve"/>
			<point x="509" y="699"/>
			<point x="543" y="640"/>
			<point x="549" y="582" type="curve"/>
			<point x="614" y="665" type="line"/>
			<point x="573" y="713"/>
			<point x="503" y="724"/>
			<point x="449" y="724" type="curve"/>
			<point x="327" y="724"/>
			<point x="274" y="656"/>
			<point x="226" y="520" type="curve"/>
			<point x="12" y="-131" type="line" smooth="yes"/>
			<point x="-18" y="-214"/>
			<point x="-47" y="-268"/>
			<point x="-82" y="-268" type="curve"/>
			<point x="-126" y="-268"/>
			<point x="-103" y="-174"/>
			<point x="-162" y="-174" type="curve"/>
			<point x="-190" y="-174"/>
			<point x="-211" y="-194"/>
			<point x="-211" y="-221" type="curve"/>
			<point x="-211" y="-255"/>
			<point x="-182" y="-290"/>
		</contour>
		<contour>
			<point x="160" y="-290" type="curve"/>
			<point x="284" y="-290"/>
			<point x="345" y="-225"/>
			<point x="390" y="-90" type="curve"/>
			<point x="624" y="615" type="line" smooth="yes"/>
			<point x="643" y="675"/>
			<point x="678" y="702"/>
			<point x="711" y="702" type="curve"/>
			<point x="735" y="702"/>
			<point x="744" y="688"/>
			<point x="744" y="647" type="curve"/>
			<point x="744" y="618"/>
			<point x="754" y="597"/>
			<point x="783" y="597" type="curve"/>
			<point x="814" y="597"/>
			<point x="831" y="623"/>
			<point x="831" y="650" type="curve"/>
			<point x="831" y="682"/>
			<point x="810" y="724"/>
			<point x="719" y="724" type="curve"/>
			<point x="642" y="724"/>
			<point x="574" y="684"/>
			<point x="546" y="596" type="curve"/>
			<point x="322" y="-74" type="line" smooth="yes"/>
			<point x="291" y="-168"/>
			<point x="254" y="-265"/>
			<point x="180" y="-265" type="curve"/>
			<point x="120" y="-265"/>
			<point x="97" y="-209"/>
			<point x="81" y="-126" type="curve"/>
			<point x="37" y="-208" type="line"/>
			<point x="37" y="-251"/>
			<point x="89" y="-290"/>
		</contour>
		<contour>
			<point x="101" y="440" type="line"/>
			<point x="94" y="416" type="line"/>
			<point x="421" y="416" type="line"/>
			<point x="428" y="440" type="line"/>
		</contour>
		<contour>
			<point x="385" y="440" type="line"/>
			<point x="378" y="416" type="line"/>
			<point x="668" y="416" type="line"/>
			<point x="675" y="440" type="line"/>
		</contour>
	</outline>
</glyph>
<glyph name="f_f_b.liga" format="2">
	<advance width="1137"/>
	<outline>
		<contour>
			<point x="143" y="-290" type="curve"/>
			<point x="253" y="-290"/>
			<point x="334" y="-247"/>
			<point x="386" y="-88" type="curve"/>
			<point x="579" y="504" type="line" smooth="yes"/>
			<point x="609" y="598"/>
			<point x="652" y="699"/>
			<point x="758" y="699" type="curve"/>
			<point x="799" y="699"/>
			<point x="850" y="678"/>
			<point x="868" y="604" type="curve"/>
			<point x="928" y="678" type="line"/>
			<point x="904" y="700"/>
			<point x="822" y="724"/>
			<point x="760" y="724" type="curve"/>
			<point x="612" y="724"/>
			<point x="559" y="657"/>
			<point x="515" y="520" type="curve"/>
			<point x="303" y="-120" type="line" smooth="yes"/>
			<point x="272" y="-214"/>
			<point x="219" y="-265"/>
			<point x="164" y="-265" type="curve"/>
			<point x="103" y="-265"/>
			<point x="73" y="-170"/>
			<point x="63" y="-126" type="curve"/>
			<point x="25" y="-208" type="line"/>
			<point x="25" y="-242"/>
			<point x="66" y="-290"/>
		</contour>
		<contour>
			<point x="-100" y="-290" type="curve"/>
			<point x="-13" y="-290"/>
			<point x="41" y="-262"/>
			<point x="84" y="-131" type="curve"/>
			<point x="291" y="504" type="line" smooth="yes"/>
			<point x="321" y="598"/>
			<point x="359" y="699"/>
			<point x="446" y="699" type="curve"/>
			<point x="510" y="699"/>
			<point x="544" y="640"/>
			<point x="550" y="582" type="curve"/>
			<point x="615" y="665" type="line"/>
			<point x="574" y="713"/>
			<point x="504" y="724"/>
			<point x="453" y="724" type="curve"/>
			<point x="328" y="724"/>
			<point x="271" y="657"/>
			<point x="227" y="520" type="curve"/>
			<point x="12" y="-131" type="line" smooth="yes"/>
			<point x="-16" y="-215"/>
			<point x="-47" y="-268"/>
			<point x="-82" y="-268" type="curve"/>
			<point x="-126" y="-268"/>
			<point x="-103" y="-174"/>
			<point x="-162" y="-174" type="curve"/>
			<point x="-190" y="-174"/>
			<point x="-211" y="-194"/>
			<point x="-211" y="-221" type="curve"/>
			<point x="-211" y="-255"/>
			<point x="-182" y="-290"/>
		</contour>
		<contour>
			<point x="96" y="440" type="line"/>
			<point x="89" y="416" type="line"/>
			<point x="660" y="416" type="line"/>
			<point x="667" y="440" type="line"/>
		</contour>
		<contour>
			<point x="832" y="10" type="curve"/>
			<point x="775" y="10"/>
			<point x="750" y="41"/>
			<point x="750" y="96" type="curve"/>
			<point x="750" y="129"/>
			<point x="759" y="171"/>
			<point x="777" y="221" type="curve"/>
			<point x="796" y="274" type="line" smooth="yes"/>
			<point x="826" y="358"/>
			<point x="871" y="430"/>
			<point x="947" y="430" type="curve"/>
			<point x="988" y="430"/>
			<point x="1028" y="397"/>
			<point x="1028" y="326" type="curve"/>
			<point x="1028" y="184"/>
			<point x="931" y="10"/>
		</contour>
		<contour>
			<point x="832" y="-14" type="curve"/>
			<point x="960" y="-14"/>
			<point x="1100" y="122"/>
			<point x="1100" y="287" type="curve"/>
			<point x="1100" y="380"/>
			<point x="1039" y="454"/>
			<point x="953" y="454" type="curve"/>
			<point x="903" y="454"/>
			<point x="852" y="430"/>
			<point x="826" y="383" type="curve"/>
			<point x="826" y="368" type="line"/>
			<point x="928" y="678" type="line"/>
			<point x="863" y="694" type="line"/>
			<point x="711" y="233" type="line" smooth="yes"/>
			<point x="696" y="188"/>
			<point x="686" y="149"/>
			<point x="686" y="116" type="curve"/>
			<point x="686" y="30"/>
			<point x="741" y="-14"/>
		</contour>
	</outline>
</glyph>
<glyph name="f_f_h.liga" format="1">
  <advance width="1156"/>
  <outline>
    <contour>
      <point x="-100" y="-290" type="curve" smooth="yes"/>
      <point x="-13" y="-290"/>
      <point x="41" y="-262"/>
      <point x="84" y="-131" type="curve" smooth="yes"/>
      <point x="291" y="504" type="line" smooth="yes"/>
      <point x="321" y="598"/>
      <point x="359" y="699"/>
      <point x="442" y="699" type="curve" smooth="yes"/>
      <point x="510" y="699"/>
      <point x="544" y="640"/>
      <point x="550" y="582" type="curve"/>
      <point x="615" y="665" type="line"/>
      <point x="574" y="713"/>
      <point x="504" y="724"/>
      <point x="450" y="724" type="curve" smooth="yes"/>
      <point x="328" y="724"/>
      <point x="271" y="657"/>
      <point x="227" y="520" type="curve" smooth="yes"/>
      <point x="12" y="-131" type="line" smooth="yes"/>
      <point x="-16" y="-215"/>
      <point x="-47" y="-268"/>
      <point x="-82" y="-268" type="curve" smooth="yes"/>
      <point x="-126" y="-268"/>
      <point x="-103" y="-174"/>
      <point x="-162" y="-174" type="curve" smooth="yes"/>
      <point x="-190" y="-174"/>
      <point x="-211" y="-194"/>
      <point x="-211" y="-221" type="curve" smooth="yes"/>
      <point x="-211" y="-255"/>
      <point x="-182" y="-290"/>
    </contour>
    <contour>
      <point x="89" y="416" type="line"/>
      <point x="660" y="416" type="line"/>
      <point x="667" y="440" type="line"/>
      <point x="96" y="440" type="line"/>
    </contour>
    <contour>
      <point x="644" y="0" type="line"/>
      <point x="716" y="0" type="line"/>
      <point x="930" y="657" type="line"/>
      <point x="859" y="663" type="line"/>
    </contour>
    <contour>
      <point x="148" y="-290" type="curve" smooth="yes"/>
      <point x="272" y="-290"/>
      <point x="337" y="-225"/>
      <point x="382" y="-90" type="curve" smooth="yes"/>
      <point x="578" y="504" type="line" smooth="yes"/>
      <point x="608" y="598"/>
      <point x="651" y="699"/>
      <point x="751" y="699" type="curve" smooth="yes"/>
      <point x="809" y="699"/>
      <point x="859" y="666"/>
      <point x="885" y="581" type="curve"/>
      <point x="930" y="657" type="line"/>
      <point x="901" y="700"/>
      <point x="836" y="724"/>
      <point x="757" y="724" type="curve" smooth="yes"/>
      <point x="611" y="724"/>
      <point x="558" y="657"/>
      <point x="514" y="520" type="curve" smooth="yes"/>
      <point x="318" y="-74" type="line" smooth="yes"/>
      <point x="287" y="-168"/>
      <point x="242" y="-265"/>
      <point x="168" y="-265" type="curve" smooth="yes"/>
      <point x="108" y="-265"/>
      <point x="85" y="-204"/>
      <point x="63" y="-126" type="curve"/>
      <point x="25" y="-208" type="line"/>
      <point x="25" y="-251"/>
      <point x="77" y="-290"/>
    </contour>
    <component base="_part.jambage" xOffset="593"/>
  </outline>
</glyph>
<glyph name="f_f_i.liga" format="1">
  <advance width="868"/>
  <outline>
    <contour>
      <point x="-100" y="-290" type="curve" smooth="yes"/>
      <point x="-13" y="-290"/>
      <point x="37" y="-260"/>
      <point x="84" y="-131" type="curve" smooth="yes"/>
      <point x="290" y="504" type="line" smooth="yes"/>
      <point x="322" y="597"/>
      <point x="358" y="699"/>
      <point x="441" y="699" type="curve" smooth="yes"/>
      <point x="509" y="699"/>
      <point x="543" y="640"/>
      <point x="549" y="582" type="curve"/>
      <point x="614" y="665" type="line"/>
      <point x="573" y="713"/>
      <point x="503" y="724"/>
      <point x="449" y="724" type="curve" smooth="yes"/>
      <point x="327" y="724"/>
      <point x="274" y="656"/>
      <point x="226" y="520" type="curve" smooth="yes"/>
      <point x="12" y="-131" type="line" smooth="yes"/>
      <point x="-18" y="-214"/>
      <point x="-47" y="-268"/>
      <point x="-82" y="-268" type="curve" smooth="yes"/>
      <point x="-126" y="-268"/>
      <point x="-103" y="-174"/>
      <point x="-162" y="-174" type="curve" smooth="yes"/>
      <point x="-190" y="-174"/>
      <point x="-211" y="-194"/>
      <point x="-211" y="-221" type="curve" smooth="yes"/>
      <point x="-211" y="-255"/>
      <point x="-182" y="-290"/>
    </contour>
    <contour>
      <point x="94" y="416" type="line"/>
      <point x="421" y="416" type="line"/>
      <point x="428" y="440" type="line"/>
      <point x="101" y="440" type="line"/>
    </contour>
    <contour>
      <point x="378" y="416" type="line"/>
      <point x="668" y="416" type="line"/>
      <point x="675" y="440" type="line"/>
      <point x="385" y="440" type="line"/>
    </contour>
    <contour>
      <point x="380" y="-90" type="curve" smooth="yes"/>
      <point x="606" y="581" type="line" smooth="yes"/>
      <point x="633" y="664"/>
      <point x="681" y="702"/>
      <point x="730" y="702" type="curve" smooth="yes"/>
      <point x="768" y="702"/>
      <point x="787" y="686"/>
      <point x="787" y="633" type="curve" smooth="yes"/>
      <point x="787" y="603"/>
      <point x="804" y="582"/>
      <point x="834" y="582" type="curve" smooth="yes"/>
      <point x="871" y="582"/>
      <point x="893" y="610"/>
      <point x="893" y="638" type="curve" smooth="yes"/>
      <point x="893" y="665"/>
      <point x="874" y="724"/>
      <point x="742" y="724" type="curve" smooth="yes"/>
      <point x="641" y="724"/>
      <point x="568" y="685"/>
      <point x="520" y="541" type="curve" smooth="yes"/>
      <point x="312" y="-74" type="line" smooth="yes"/>
      <point x="278" y="-174"/>
      <point x="244" y="-265"/>
      <point x="170" y="-265" type="curve" smooth="yes"/>
      <point x="110" y="-265"/>
      <point x="87" y="-209"/>
      <point x="71" y="-126" type="curve"/>
      <point x="27" y="-208" type="line"/>
      <point x="27" y="-251"/>
      <point x="79" y="-290"/>
      <point x="150" y="-290" type="curve" smooth="yes"/>
      <point x="274" y="-290"/>
      <point x="335" y="-223"/>
    </contour>
    <component base="idotless" xOffset="589"/>
    <contour>
      <point x="20" y="0" type="move" name="caret_1"/>
    </contour>
    <contour>
      <point x="316" y="0" type="move" name="caret_2"/>
    </contour>
  </outline>
</glyph>
<glyph name="f_f_k.liga" format="2">
	<advance width="1126"/>
	<outline>
		<contour>
			<point x="-100" y="-290" type="curve"/>
			<point x="-13" y="-290"/>
			<point x="41" y="-262"/>
			<point x="84" y="-131" type="curve"/>
			<point x="291" y="504" type="line" smooth="yes"/>
			<point x="321" y="598"/>
			<point x="359" y="699"/>
			<point x="442" y="699" type="curve"/>
			<point x="510" y="699"/>
			<point x="544" y="640"/>
			<point x="550" y="582" type="curve"/>
			<point x="615" y="665" type="line"/>
			<point x="574" y="713"/>
			<point x="504" y="724"/>
			<point x="450" y="724" type="curve"/>
			<point x="328" y="724"/>
			<point x="271" y="657"/>
			<point x="227" y="520" type="curve"/>
			<point x="12" y="-131" type="line" smooth="yes"/>
			<point x="-16" y="-215"/>
			<point x="-47" y="-268"/>
			<point x="-82" y="-268" type="curve"/>
			<point x="-126" y="-268"/>
			<point x="-103" y="-174"/>
			<point x="-162" y="-174" type="curve"/>
			<point x="-190" y="-174"/>
			<point x="-211" y="-194"/>
			<point x="-211" y="-221" type="curve"/>
			<point x="-211" y="-255"/>
			<point x="-182" y="-290"/>
		</contour>
		<contour>
			<point x="96" y="440" type="line"/>
			<point x="89" y="416" type="line"/>
			<point x="660" y="416" type="line"/>
			<point x="667" y="440" type="line"/>
		</contour>
		<contour>
			<point x="859" y="657" type="line"/>
			<point x="644" y="0" type="line"/>
			<point x="716" y="0" type="line"/>
			<point x="930" y="657" type="line"/>
		</contour>
		<contour>
			<point x="148" y="-290" type="curve"/>
			<point x="272" y="-290"/>
			<point x="337" y="-225"/>
			<point x="382" y="-90" type="curve"/>
			<point x="578" y="504" type="line" smooth="yes"/>
			<point x="608" y="598"/>
			<point x="651" y="699"/>
			<point x="751" y="699" type="curve"/>
			<point x="809" y="699"/>
			<point x="859" y="666"/>
			<point x="885" y="581" type="curve"/>
			<point x="930" y="657" type="line"/>
			<point x="901" y="700"/>
			<point x="836" y="724"/>
			<point x="757" y="724" type="curve"/>
			<point x="611" y="724"/>
			<point x="558" y="657"/>
			<point x="514" y="520" type="curve"/>
			<point x="318" y="-74" type="line" smooth="yes"/>
			<point x="287" y="-168"/>
			<point x="242" y="-265"/>
			<point x="168" y="-265" type="curve"/>
			<point x="108" y="-265"/>
			<point x="85" y="-204"/>
			<point x="63" y="-126" type="curve"/>
			<point x="25" y="-208" type="line"/>
			<point x="25" y="-251"/>
			<point x="77" y="-290"/>
		</contour>
		<contour>
			<point x="972" y="-14" type="curve"/>
			<point x="1010" y="-14"/>
			<point x="1058" y="9"/>
			<point x="1093" y="72" type="curve"/>
			<point x="1076" y="84" type="line"/>
			<point x="1049" y="39"/>
			<point x="1019" y="19"/>
			<point x="1002" y="19" type="curve"/>
			<point x="975" y="19"/>
			<point x="975" y="37"/>
			<point x="973" y="136" type="curve"/>
			<point x="971" y="249"/>
			<point x="938" y="284"/>
			<point x="803" y="284" type="curve"/>
			<point x="801" y="269" type="line"/>
			<point x="885" y="269"/>
			<point x="905" y="236"/>
			<point x="905" y="132" type="curve"/>
			<point x="905" y="22"/>
			<point x="915" y="-14"/>
		</contour>
		<contour>
			<point x="783" y="284" type="curve"/>
			<point x="783" y="270" type="line"/>
			<point x="873" y="270"/>
			<point x="895" y="295"/>
			<point x="938" y="340" type="curve"/>
			<point x="979" y="383" type="line" smooth="yes"/>
			<point x="998" y="402"/>
			<point x="1009" y="414"/>
			<point x="1023" y="414" type="curve"/>
			<point x="1027" y="414"/>
			<point x="1031" y="412"/>
			<point x="1033" y="409" type="curve"/>
			<point x="1037" y="404"/>
			<point x="1038" y="396"/>
			<point x="1038" y="373" type="curve"/>
			<point x="1038" y="348"/>
			<point x="1057" y="337"/>
			<point x="1075" y="337" type="curve"/>
			<point x="1101" y="337"/>
			<point x="1118" y="362"/>
			<point x="1118" y="392" type="curve"/>
			<point x="1118" y="411"/>
			<point x="1111" y="454"/>
			<point x="1058" y="454" type="curve"/>
			<point x="1024" y="454"/>
			<point x="1000" y="433"/>
			<point x="963" y="394" type="curve"/>
			<point x="926" y="355" type="line" smooth="yes"/>
			<point x="883" y="310"/>
			<point x="854" y="284"/>
		</contour>
	</outline>
</glyph>
<glyph name="f_f_l.liga" format="1">
  <advance width="896"/>
  <outline>
    <contour>
      <point x="148" y="-290" type="curve" smooth="yes"/>
      <point x="272" y="-290"/>
      <point x="337" y="-225"/>
      <point x="382" y="-90" type="curve" smooth="yes"/>
      <point x="578" y="504" type="line" smooth="yes"/>
      <point x="608" y="598"/>
      <point x="651" y="699"/>
      <point x="751" y="699" type="curve" smooth="yes"/>
      <point x="809" y="699"/>
      <point x="859" y="666"/>
      <point x="885" y="581" type="curve"/>
      <point x="930" y="657" type="line"/>
      <point x="901" y="700"/>
      <point x="836" y="724"/>
      <point x="757" y="724" type="curve" smooth="yes"/>
      <point x="611" y="724"/>
      <point x="558" y="657"/>
      <point x="514" y="520" type="curve" smooth="yes"/>
      <point x="318" y="-74" type="line" smooth="yes"/>
      <point x="287" y="-168"/>
      <point x="242" y="-265"/>
      <point x="168" y="-265" type="curve" smooth="yes"/>
      <point x="108" y="-265"/>
      <point x="85" y="-204"/>
      <point x="63" y="-126" type="curve"/>
      <point x="25" y="-208" type="line"/>
      <point x="25" y="-251"/>
      <point x="77" y="-290"/>
    </contour>
    <contour>
      <point x="-100" y="-290" type="curve" smooth="yes"/>
      <point x="-13" y="-290"/>
      <point x="41" y="-262"/>
      <point x="84" y="-131" type="curve" smooth="yes"/>
      <point x="291" y="504" type="line" smooth="yes"/>
      <point x="321" y="598"/>
      <point x="359" y="699"/>
      <point x="442" y="699" type="curve" smooth="yes"/>
      <point x="510" y="699"/>
      <point x="544" y="640"/>
      <point x="550" y="582" type="curve"/>
      <point x="615" y="665" type="line"/>
      <point x="574" y="713"/>
      <point x="504" y="724"/>
      <point x="450" y="724" type="curve" smooth="yes"/>
      <point x="328" y="724"/>
      <point x="271" y="657"/>
      <point x="227" y="520" type="curve" smooth="yes"/>
      <point x="12" y="-131" type="line" smooth="yes"/>
      <point x="-16" y="-215"/>
      <point x="-47" y="-268"/>
      <point x="-82" y="-268" type="curve" smooth="yes"/>
      <point x="-126" y="-268"/>
      <point x="-103" y="-174"/>
      <point x="-162" y="-174" type="curve" smooth="yes"/>
      <point x="-190" y="-174"/>
      <point x="-211" y="-194"/>
      <point x="-211" y="-221" type="curve" smooth="yes"/>
      <point x="-211" y="-255"/>
      <point x="-182" y="-290"/>
    </contour>
    <contour>
      <point x="89" y="416" type="line"/>
      <point x="436" y="416" type="line"/>
      <point x="443" y="440" type="line"/>
      <point x="96" y="440" type="line"/>
    </contour>
    <contour>
      <point x="387" y="416" type="line"/>
      <point x="654" y="416" type="line"/>
      <point x="661" y="440" type="line"/>
      <point x="394" y="440" type="line"/>
    </contour>
    <contour>
      <point x="747" y="19" type="curve" smooth="yes"/>
      <point x="738" y="19"/>
      <point x="731" y="24"/>
      <point x="731" y="38" type="curve" smooth="yes"/>
      <point x="731" y="46"/>
      <point x="734" y="56"/>
      <point x="738" y="69" type="curve" smooth="yes"/>
      <point x="930" y="657" type="line"/>
      <point x="861" y="664" type="line"/>
      <point x="675" y="94" type="line" smooth="yes"/>
      <point x="669" y="74"/>
      <point x="664" y="57"/>
      <point x="664" y="43" type="curve" smooth="yes"/>
      <point x="664" y="5"/>
      <point x="688" y="-14"/>
      <point x="718" y="-14" type="curve" smooth="yes"/>
      <point x="772" y="-14"/>
      <point x="810" y="21"/>
      <point x="843" y="75" type="curve"/>
      <point x="825" y="87" type="line"/>
      <point x="808" y="55"/>
      <point x="777" y="19"/>
    </contour>
  </outline>
</glyph>
<glyph name="f_h.liga" format="2">
	<advance width="856"/>
	<outline>
		<contour>
			<point x="-100" y="-290" type="curve"/>
			<point x="-13" y="-290"/>
			<point x="43" y="-261"/>
			<point x="86" y="-131" type="curve"/>
			<point x="296" y="504" type="line" smooth="yes"/>
			<point x="326" y="598"/>
			<point x="368" y="700"/>
			<point x="474" y="700" type="curve"/>
			<point x="522" y="700"/>
			<point x="574" y="667"/>
			<point x="598" y="581" type="curve"/>
			<point x="643" y="657" type="line"/>
			<point x="616" y="700"/>
			<point x="556" y="725"/>
			<point x="483" y="725" type="curve"/>
			<point x="328" y="725"/>
			<point x="280" y="656"/>
			<point x="231" y="520" type="curve"/>
			<point x="12" y="-131" type="line" smooth="yes"/>
			<point x="-18" y="-214"/>
			<point x="-47" y="-268"/>
			<point x="-82" y="-268" type="curve"/>
			<point x="-126" y="-268"/>
			<point x="-103" y="-174"/>
			<point x="-162" y="-174" type="curve"/>
			<point x="-190" y="-174"/>
			<point x="-211" y="-194"/>
			<point x="-211" y="-221" type="curve"/>
			<point x="-211" y="-255"/>
			<point x="-182" y="-290"/>
		</contour>
		<contour>
			<point x="116" y="440" type="line"/>
			<point x="109" y="416" type="line"/>
			<point x="376" y="416" type="line"/>
			<point x="383" y="440" type="line"/>
		</contour>
		<contour>
			<point x="579" y="664" type="line"/>
			<point x="334" y="0" type="line"/>
			<point x="406" y="0" type="line"/>
			<point x="643" y="657" type="line"/>
		</contour>
		<contour>
			<point x="682" y="-14" type="curve"/>
			<point x="739" y="-14"/>
			<point x="779" y="31"/>
			<point x="804" y="72" type="curve"/>
			<point x="786" y="84" type="line"/>
			<point x="769" y="55"/>
			<point x="738" y="19"/>
			<point x="709" y="19" type="curve"/>
			<point x="698" y="19"/>
			<point x="693" y="26"/>
			<point x="693" y="39" type="curve"/>
			<point x="693" y="49"/>
			<point x="696" y="63"/>
			<point x="702" y="80" type="curve"/>
			<point x="792" y="331" type="line" smooth="yes"/>
			<point x="799" y="351"/>
			<point x="803" y="370"/>
			<point x="803" y="388" type="curve"/>
			<point x="803" y="426"/>
			<point x="782" y="454"/>
			<point x="716" y="454" type="curve"/>
			<point x="592" y="454"/>
			<point x="501" y="323"/>
			<point x="476" y="255" type="curve"/>
			<point x="499" y="257" type="line"/>
			<point x="526" y="329"/>
			<point x="621" y="429"/>
			<point x="697" y="429" type="curve"/>
			<point x="718" y="429"/>
			<point x="735" y="417"/>
			<point x="735" y="391" type="curve"/>
			<point x="735" y="381"/>
			<point x="733" y="370"/>
			<point x="728" y="356" type="curve"/>
			<point x="641" y="110" type="line" smooth="yes"/>
			<point x="632" y="84"/>
			<point x="626" y="60"/>
			<point x="626" y="40" type="curve"/>
			<point x="626" y="8"/>
			<point x="641" y="-14"/>
		</contour>
	</outline>
</glyph>
<glyph name="f_j.liga" format="2">
	<advance width="583"/>
	<guideline x="609" y="539" angle="70"/>
	<anchor x="521" y="440" name="top"/>
	<outline>
		<contour>
			<point x="-100" y="-290" type="curve"/>
			<point x="-13" y="-290"/>
			<point x="37" y="-260"/>
			<point x="84" y="-131" type="curve"/>
			<point x="350" y="615" type="line" smooth="yes"/>
			<point x="370" y="675"/>
			<point x="413" y="702"/>
			<point x="457" y="702" type="curve"/>
			<point x="496" y="702"/>
			<point x="515" y="686"/>
			<point x="515" y="633" type="curve"/>
			<point x="515" y="603"/>
			<point x="532" y="582"/>
			<point x="562" y="582" type="curve"/>
			<point x="599" y="582"/>
			<point x="621" y="613"/>
			<point x="621" y="642" type="curve"/>
			<point x="621" y="665"/>
			<point x="615" y="724"/>
			<point x="470" y="724" type="curve"/>
			<point x="362" y="724"/>
			<point x="302" y="683"/>
			<point x="272" y="596" type="curve"/>
			<point x="12" y="-131" type="line" smooth="yes"/>
			<point x="-18" y="-214"/>
			<point x="-47" y="-268"/>
			<point x="-82" y="-268" type="curve"/>
			<point x="-126" y="-268"/>
			<point x="-103" y="-174"/>
			<point x="-162" y="-174" type="curve"/>
			<point x="-190" y="-174"/>
			<point x="-211" y="-194"/>
			<point x="-211" y="-221" type="curve"/>
			<point x="-211" y="-255"/>
			<point x="-182" y="-290"/>
		</contour>
		<contour>
			<point x="132" y="440" type="line"/>
			<point x="125" y="416" type="line"/>
			<point x="429" y="416" type="line"/>
			<point x="429" y="440" type="line"/>
		</contour>
		<contour>
			<point x="395" y="-90" type="curve"/>
			<point x="582" y="443" type="line"/>
			<point x="420" y="440" type="line"/>
			<point x="413" y="416" type="line"/>
			<point x="450" y="416"/>
			<point x="489" y="417"/>
			<point x="489" y="384" type="curve"/>
			<point x="489" y="378"/>
			<point x="488" y="370"/>
			<point x="484" y="360" type="curve"/>
			<point x="327" y="-74" type="line" smooth="yes"/>
			<point x="291" y="-174"/>
			<point x="259" y="-265"/>
			<point x="185" y="-265" type="curve"/>
			<point x="125" y="-265"/>
			<point x="102" y="-209"/>
			<point x="86" y="-126" type="curve"/>
			<point x="42" y="-208" type="line"/>
			<point x="42" y="-251"/>
			<point x="94" y="-290"/>
			<point x="165" y="-290" type="curve"/>
			<point x="289" y="-290"/>
			<point x="350" y="-223"/>
		</contour>
	</outline>
</glyph>
<glyph name="f_k.liga" format="1">
  <advance width="816"/>
  <outline>
    <contour>
      <point x="-100" y="-290" type="curve" smooth="yes"/>
      <point x="-13" y="-290"/>
      <point x="37" y="-260"/>
      <point x="84" y="-131" type="curve" smooth="yes"/>
      <point x="296" y="504" type="line" smooth="yes"/>
      <point x="329" y="597"/>
      <point x="369" y="699"/>
      <point x="475" y="699" type="curve" smooth="yes"/>
      <point x="523" y="699"/>
      <point x="575" y="666"/>
      <point x="599" y="581" type="curve"/>
      <point x="644" y="657" type="line"/>
      <point x="617" y="700"/>
      <point x="557" y="724"/>
      <point x="484" y="724" type="curve" smooth="yes"/>
      <point x="329" y="724"/>
      <point x="281" y="656"/>
      <point x="232" y="520" type="curve" smooth="yes"/>
      <point x="12" y="-131" type="line" smooth="yes"/>
      <point x="-18" y="-214"/>
      <point x="-47" y="-268"/>
      <point x="-82" y="-268" type="curve" smooth="yes"/>
      <point x="-126" y="-268"/>
      <point x="-103" y="-174"/>
      <point x="-162" y="-174" type="curve" smooth="yes"/>
      <point x="-190" y="-174"/>
      <point x="-211" y="-194"/>
      <point x="-211" y="-221" type="curve" smooth="yes"/>
      <point x="-211" y="-255"/>
      <point x="-182" y="-290"/>
    </contour>
    <contour>
      <point x="92" y="416" type="line"/>
      <point x="359" y="416" type="line"/>
      <point x="366" y="440" type="line"/>
      <point x="99" y="440" type="line"/>
    </contour>
    <contour>
      <point x="662" y="-14" type="curve" smooth="yes"/>
      <point x="700" y="-14"/>
      <point x="748" y="9"/>
      <point x="783" y="72" type="curve"/>
      <point x="766" y="84" type="line"/>
      <point x="739" y="39"/>
      <point x="709" y="19"/>
      <point x="692" y="19" type="curve" smooth="yes"/>
      <point x="660" y="19"/>
      <point x="664" y="64"/>
      <point x="663" y="114" type="curve" smooth="yes"/>
      <point x="662" y="166" type="line" smooth="yes"/>
      <point x="660" y="261"/>
      <point x="596" y="284"/>
      <point x="493" y="284" type="curve"/>
      <point x="491" y="269" type="line"/>
      <point x="569" y="269"/>
      <point x="595" y="233"/>
      <point x="595" y="159" type="curve" smooth="yes"/>
      <point x="595" y="111" type="line" smooth="yes"/>
      <point x="595" y="27"/>
      <point x="606" y="-14"/>
    </contour>
    <contour>
      <point x="335" y="0" type="line"/>
      <point x="407" y="0" type="line"/>
      <point x="644" y="657" type="line"/>
      <point x="580" y="664" type="line"/>
    </contour>
    <contour>
      <point x="473" y="270" type="line"/>
      <point x="563" y="270"/>
      <point x="585" y="295"/>
      <point x="628" y="340" type="curve" smooth="yes"/>
      <point x="669" y="383" type="line" smooth="yes"/>
      <point x="689" y="403"/>
      <point x="702" y="414"/>
      <point x="718" y="414" type="curve" smooth="yes"/>
      <point x="723" y="414"/>
      <point x="727" y="412"/>
      <point x="729" y="409" type="curve" smooth="yes"/>
      <point x="733" y="404"/>
      <point x="734" y="396"/>
      <point x="734" y="387" type="curve" smooth="yes"/>
      <point x="734" y="365"/>
      <point x="750" y="357"/>
      <point x="765" y="357" type="curve" smooth="yes"/>
      <point x="791" y="357"/>
      <point x="802" y="382"/>
      <point x="802" y="407" type="curve" smooth="yes"/>
      <point x="802" y="428"/>
      <point x="789" y="454"/>
      <point x="753" y="454" type="curve" smooth="yes"/>
      <point x="714" y="454"/>
      <point x="690" y="433"/>
      <point x="653" y="394" type="curve" smooth="yes"/>
      <point x="616" y="355" type="line" smooth="yes"/>
      <point x="573" y="310"/>
      <point x="544" y="284"/>
      <point x="473" y="284" type="curve"/>
    </contour>
    <contour>
      <point x="133" y="0" type="move" name="bottom_1"/>
    </contour>
    <contour>
      <point x="550" y="0" type="move" name="bottom_2"/>
    </contour>
    <contour>
      <point x="410" y="0" type="move" name="caret_1"/>
    </contour>
    <contour>
      <point x="293" y="440" type="move" name="top_1"/>
    </contour>
    <contour>
      <point x="710" y="440" type="move" name="top_2"/>
    </contour>
  </outline>
</glyph>
<glyph name="f_t.liga" format="2">
	<advance width="607"/>
	<anchor x="308.5" y="0" name="caret_1"/>
	<anchor x="82" y="0" name="bottom_1"/>
	<anchor x="242" y="440" name="top_1"/>
	<anchor x="567" y="440" name="top_2"/>
	<anchor x="407" y="0" name="bottom_2"/>
	<outline>
		<contour>
			<point x="354" y="440" type="line"/>
			<point x="346" y="416" type="line"/>
			<point x="562" y="416" type="line"/>
			<point x="570" y="440" type="line"/>
		</contour>
		<component base="f"/>
		<component base="t" xOffset="299"/>
	</outline>
</glyph>
<glyph name="four.sups" format="2">
	<advance width="325"/>
	<outline>
		<contour>
			<point x="82" y="406" type="curve"/>
			<point x="78" y="395" type="line"/>
			<point x="255" y="395" type="line"/>
			<point x="263" y="417" type="line"/>
			<point x="108" y="417" type="line"/>
			<point x="100" y="401" type="line"/>
			<point x="441" y="710" type="line"/>
			<point x="330" y="710" type="line"/>
			<point x="272" y="630"/>
			<point x="164" y="484"/>
		</contour>
		<contour>
			<point x="147" y="314" type="line"/>
			<point x="139" y="294" type="line"/>
			<point x="246" y="296" type="line"/>
			<point x="331" y="294" type="line"/>
			<point x="341" y="314" type="line"/>
			<point x="329" y="315" type="line" smooth="yes"/>
			<point x="307" y="317"/>
			<point x="296" y="319"/>
			<point x="296" y="335" type="curve"/>
			<point x="296" y="343"/>
			<point x="301" y="358"/>
			<point x="307" y="373" type="curve"/>
			<point x="371" y="547" type="line"/>
			<point x="349" y="547" type="line"/>
			<point x="330" y="534"/>
			<point x="310" y="524"/>
			<point x="295" y="520" type="curve"/>
			<point x="241" y="373" type="line" smooth="yes"/>
			<point x="223" y="325"/>
			<point x="218" y="317"/>
			<point x="169" y="315" type="curve"/>
		</contour>
		<contour>
			<point x="317" y="417" type="line"/>
			<point x="309" y="395" type="line"/>
			<point x="364" y="395" type="line"/>
			<point x="372" y="417" type="line"/>
		</contour>
	</outline>
</glyph>
<glyph name="gravecomb.case" format="2">
	<advance width="0"/>
	<anchor x="101" y="908" name="top"/>
	<anchor x="95" y="710" name="_top"/>
	<outline>
		<contour>
			<point x="101" y="760" type="line"/>
			<point x="113" y="760" type="line"/>
			<point x="141" y="940" type="line"/>
			<point x="60" y="940" type="line"/>
		</contour>
	</outline>
</glyph>
